<svg width="80" height="80" viewBox="0 0 80 80" fill="none" xmlns="http://www.w3.org/2000/svg">
<path fill-rule="evenodd" clip-rule="evenodd" d="M11.0461 68.3848C11.0461 68.3848 17.6267 66.3199 19.4566 63.1106C21.2865 59.9012 22.5449 43.9448 22.5449 43.9448L19.9292 40.7759L5.69096 41.3605L1.73438 60.0941" fill="black"/>
<path fill-rule="evenodd" clip-rule="evenodd" d="M31.1719 35.2747C31.1719 40.0482 30.386 44.5668 28.9573 48.6624C26.9488 54.4342 23.6571 59.3788 19.4532 63.1013L17.5189 47.8601C17.4639 47.4154 17.5546 47.0111 17.7799 46.6441L19.074 44.5792C19.39 44.0817 19.4395 43.4721 19.2197 42.9124L19.129 42.6853C18.8817 42.0696 18.3734 41.6964 17.7744 41.6964H13.3919C12.793 41.6964 12.2847 42.0696 12.0374 42.6853L11.9467 42.9124C11.7269 43.4721 11.7736 44.0817 12.0923 44.5792L13.3865 46.6441C13.62 47.0111 13.7024 47.4154 13.6475 47.8601L11.0455 68.3849C7.63292 69.7936 3.91537 70.5493 0 70.5493V35.2747H31.1746H31.1719Z" fill="white"/>
<path fill-rule="evenodd" clip-rule="evenodd" d="M29.3425 15.5771C29.3425 17.1413 29.1365 18.6527 28.7573 20.0801C27.051 26.4832 21.8003 31.1479 15.5851 31.1479C7.97971 31.1479 1.82227 24.1757 1.82227 15.5771C1.82227 8.16327 6.39158 1.97162 12.516 0.398056C13.4997 0.133722 14.5328 0 15.5851 0C23.1823 0 29.3425 6.97221 29.3425 15.5771Z" fill="white"/>
<path fill-rule="evenodd" clip-rule="evenodd" d="M20.0886 72.6452L16.654 76.6724C16.3655 77.0145 16.0001 77.1855 15.588 77.1855C15.1758 77.1855 14.8021 77.0145 14.5136 76.6724L11.0873 72.6452C10.7576 72.2565 10.612 71.7714 10.6807 71.2365L11.0461 68.3848C11.211 68.3133 11.3759 68.251 11.5407 68.1733C11.6369 68.1329 11.7413 68.0862 11.8375 68.0396C12.1809 67.8841 12.5244 67.7286 12.8623 67.5576C13.1508 67.4176 13.4393 67.2684 13.7223 67.1129C14.129 66.8952 14.5356 66.6682 14.9258 66.4349C15.228 66.2483 15.5248 66.0617 15.8215 65.8752C16.132 65.673 16.4397 65.4709 16.7365 65.2594C16.7502 65.2501 16.7585 65.2439 16.7639 65.2345C17.0662 65.0231 17.3629 64.8054 17.6514 64.5815C17.6789 64.5659 17.7009 64.5504 17.7284 64.5255C18.0169 64.3078 18.2999 64.0808 18.5829 63.8476C18.8247 63.6516 19.0582 63.4588 19.2835 63.2567C19.3467 63.21 19.4017 63.1541 19.4566 63.1074L20.4897 71.2303C20.5584 71.7683 20.4128 72.2503 20.0913 72.639L20.0886 72.6452Z" fill="white"/>
<path fill-rule="evenodd" clip-rule="evenodd" d="M54.9482 10.4235C49.3297 4.06441 41.5656 0.130615 32.9941 0.130615V19.7531C40.5667 19.7531 46.7052 26.7008 46.7052 35.2715C46.7052 43.8423 40.5667 50.7899 32.9941 50.7899V70.4124C41.5656 70.4124 49.3297 66.4786 54.9482 60.1195C60.5667 53.7604 64.0424 44.9728 64.0424 35.2715C64.0424 25.5702 60.5667 16.7827 54.9482 10.4235Z" fill="#E6F2FF"/>
<path fill-rule="evenodd" clip-rule="evenodd" d="M32.7866 15.3303C32.7866 16.8409 32.6266 18.315 32.3177 19.7225H32.9934V0.130615H25.8496C30.0559 3.5946 32.7866 9.11817 32.7866 15.3333V15.3303Z" fill="#B0D6FF"/>
<path d="M79.9991 79.9938L79.9936 80H56.7321L48.5854 69.8744L46.1016 66.7926L58.8176 53.6754L61.4196 56.9065L79.9991 79.9938Z" fill="#E6F2FF"/>
</svg>
