<svg width="580" height="540" viewBox="0 0 580 540" fill="none" xmlns="http://www.w3.org/2000/svg">
<g clip-path="url(#clip0_2124_17078)">
<path d="M46.1491 155.02C52.7202 139.273 72.3536 144.304 84.5357 148.814C95.9577 153.052 107.29 158.384 119.542 159.63C130.204 160.724 139.875 157.621 149.547 153.413C160.839 148.553 172.481 142.527 185.103 145.228C186.043 145.429 186.453 143.983 185.503 143.782C174.341 141.392 163.939 145.49 153.838 149.908C147.477 152.69 141.105 155.653 134.314 157.24C126.653 158.888 118.709 158.667 111.15 156.597C93.8273 152.288 55.7307 128.226 44.7188 154.588C44.3388 155.482 45.799 155.874 46.1591 154.99L46.1491 155.02Z" fill="#C8CCD1"/>
<path d="M133.552 438.909C154.435 412.547 195.402 415.871 224.898 420.049C257.173 424.618 289.259 430.765 320.704 418.613C336.787 412.396 351.489 403.177 366.032 394.008C366.842 393.496 366.092 392.19 365.272 392.702C351.339 401.49 337.267 410.358 321.944 416.514C305.661 423.052 288.658 425.301 271.185 424.377C238.67 422.64 206.414 412.105 173.689 417.106C158.356 419.446 142.423 425.311 132.492 437.845C131.891 438.598 132.942 439.672 133.552 438.909Z" fill="#C8CCD1"/>
<path d="M338.198 431.337C351.41 421.726 366.802 415.108 383.275 414.525C399.278 413.973 414.741 418.733 429.613 424.096C444.106 429.328 458.428 435.354 473.551 438.558C488.242 441.736 503.458 441.534 518.06 437.967C532.662 434.4 546.271 427.56 557.865 417.96C558.616 417.347 557.545 416.283 556.805 416.896C531.951 437.292 499.225 443.77 468.22 435.756C439.745 428.374 412.63 411.653 382.405 413.049C365.982 413.812 350.6 420.431 337.397 430.031C336.627 430.594 337.397 431.899 338.157 431.337H338.198Z" fill="#C8CCD1"/>
<path d="M346.74 358.326C364.853 351.296 384.177 355.313 402.43 359.611C420.683 363.91 439.046 368.65 457.779 370.789C488.915 374.424 522.981 370.106 546.665 347.691C547.365 347.018 546.305 345.953 545.605 346.616C519.7 371.171 481.994 373.35 448.588 368.037C430.465 365.155 412.802 360.244 394.889 356.378C378.886 352.913 362.053 350.814 346.37 356.91C345.48 357.251 345.87 358.707 346.77 358.356L346.74 358.326Z" fill="#C8CCD1"/>
<path d="M228.528 212.083C255.673 196.597 287.788 201.789 316.923 207.373C346.058 212.957 374.813 217.265 403.578 207.443C417.726 202.564 430.841 195.071 442.245 185.349C442.985 184.726 441.925 183.662 441.185 184.285C426.741 196.569 409.564 205.181 391.106 209.391C371.203 213.871 351.199 212.083 331.356 208.528C297.41 202.502 259.853 192.459 227.778 210.747C227.605 210.847 227.48 211.012 227.428 211.205C227.376 211.398 227.403 211.603 227.503 211.777C227.602 211.95 227.766 212.076 227.958 212.128C228.151 212.18 228.356 212.153 228.528 212.053V212.083Z" fill="#C8CCD1"/>
<path d="M309.283 167.292C317.935 172.565 328.126 170.968 337.508 168.759C349.11 166.027 360.332 161.93 371.514 157.712C393.958 149.235 416.712 140.066 441.106 140.639C441.305 140.639 441.496 140.56 441.636 140.418C441.777 140.277 441.856 140.085 441.856 139.886C441.856 139.686 441.777 139.494 441.636 139.353C441.496 139.212 441.305 139.132 441.106 139.132C418.922 138.57 397.978 146.032 377.505 153.785C367.143 157.712 356.791 161.719 346.15 164.832C334.888 168.146 320.925 172.515 310.083 165.906C309.253 165.404 308.503 166.71 309.323 167.212L309.283 167.292Z" fill="#C8CCD1"/>
<path d="M206.265 41.2754C243.902 50.9767 277.658 26.6833 311.643 14.9332C350.48 1.50603 390.407 10.8157 427.663 24.8454C428.574 25.1869 428.964 23.7307 428.064 23.3892C393.168 10.2533 354.911 0.551966 318.045 11.3379C281.568 21.9732 246.522 50.1331 206.655 39.8493C206.56 39.823 206.461 39.8157 206.363 39.8279C206.265 39.8401 206.17 39.8716 206.084 39.9206C205.911 40.0194 205.783 40.1835 205.73 40.3766C205.677 40.5697 205.703 40.776 205.801 40.9503C205.9 41.1245 206.063 41.2523 206.255 41.3055L206.265 41.2754Z" fill="#C8CCD1"/>
<path d="M156.496 114.789C156.894 114.789 157.275 114.63 157.557 114.348C157.838 114.065 157.996 113.682 157.996 113.282C157.996 112.883 157.838 112.5 157.557 112.217C157.275 111.935 156.894 111.776 156.496 111.776C156.098 111.776 155.717 111.935 155.435 112.217C155.154 112.5 154.996 112.883 154.996 113.282C154.996 113.682 155.154 114.065 155.435 114.348C155.717 114.63 156.098 114.789 156.496 114.789Z" fill="#007BFF"/>
<path d="M416.391 316.257C417.341 313.857 419.231 313.033 422.042 313.776C422.652 314.259 423.272 314.71 423.902 315.162C424.614 315.634 425.449 315.885 426.302 315.885C428.243 315.755 428.813 314.188 430.203 313.174C433.804 310.533 434.204 313.907 437.204 314.58C439.205 315.042 444.206 310.412 445.296 312.842C445.696 313.716 446.986 312.953 446.586 312.079C445.586 309.88 443.335 310.171 441.445 311.135C439.555 312.099 438.505 313.415 436.134 312.139C435.464 311.768 435.074 310.824 434.364 310.452C433.996 310.211 433.581 310.049 433.148 309.976C432.714 309.903 432.27 309.922 431.843 310.03C430.393 310.372 429.903 311.748 428.843 312.521C425.222 315.042 424.712 312.983 421.772 311.888C418.641 310.723 416.681 313.063 415.121 315.524C414.6 316.347 415.901 317.101 416.421 316.287L416.391 316.257Z" fill="#007BFF"/>
<path d="M432.463 322.875C435.274 317 439.314 323.015 443.085 321.66C443.855 321.388 444.085 320.716 444.645 320.394C447.166 319.008 449.206 320.465 451.276 321.619C453.707 322.975 457.147 324.391 458.178 320.545C458.212 320.359 458.176 320.168 458.077 320.008C457.978 319.848 457.822 319.731 457.641 319.68C457.46 319.63 457.267 319.649 457.099 319.735C456.932 319.821 456.803 319.966 456.737 320.143C455.647 324.16 449.736 317.833 447.736 317.512C445.315 317.12 444.415 318.848 442.245 319.259C439.844 319.721 438.244 317.964 435.664 318.436C434.667 318.618 433.732 319.051 432.947 319.693C432.162 320.336 431.552 321.168 431.173 322.112C430.753 322.975 432.043 323.749 432.463 322.875Z" fill="#007BFF"/>
<path d="M33.9563 183.24C34.7965 176.803 40.9575 183.361 43.4479 182.437C46.3784 181.362 45.4483 176.662 49.829 179.103C51.1493 179.836 51.8294 181.282 53.5797 180.679C54.0798 180.509 54.3898 179.926 54.7999 179.675C55.0106 179.306 55.1976 178.923 55.36 178.53C58.2405 176.351 60.2508 176.662 61.361 179.434C61.9011 180.237 63.2013 179.434 62.6613 178.681C60.5809 175.618 58.5906 174.061 55.14 175.728C54.6899 175.949 54.6599 176.853 54.2998 177.064L50.8692 178.068C50.4178 177.585 49.9259 177.141 49.399 176.742C48.3988 176.441 48.1788 175.859 47.0086 176.11C45.6283 176.401 45.4683 177.506 44.6782 178.39C44.618 178.849 44.3838 179.267 44.0241 179.557C43.6645 179.847 43.2073 179.986 42.7478 179.946C41.7543 180.85 40.8942 180.79 40.1674 179.765C39.2272 179.414 38.8671 178.761 37.857 178.651C34.8565 178.209 32.8061 180.569 32.456 183.26C32.336 184.214 33.8363 184.214 33.9563 183.26V183.24Z" fill="#007BFF"/>
<path d="M49.1495 189.989C50.3898 186.123 54.8005 191.335 56.8009 190.994C58.8012 190.652 58.7412 188.694 60.1114 187.85C63.8821 185.53 64.6022 190.029 67.6627 190.511C69.7831 190.843 71.7935 189.336 73.3637 188.171C74.1339 187.599 73.3637 186.293 72.6036 186.866C71.5307 187.461 70.3423 187.816 69.1199 187.906C67.8976 187.996 66.6703 187.819 65.5224 187.388C64.9723 187.077 64.6322 186.153 64.1021 185.761C63.6363 185.294 63.0304 184.994 62.378 184.907C61.7255 184.82 61.0627 184.951 60.4915 185.279C58.6712 186.193 59.4313 186.986 56.7509 187.438C53.6003 187.981 49.3796 184.295 47.7493 189.547C47.4592 190.471 48.8995 190.873 49.1996 189.949L49.1495 189.989Z" fill="#007BFF"/>
<path d="M168.59 524.183C172.3 519.894 177.721 528.3 182.162 527.366C183.652 527.055 183.922 526.362 185.003 525.508C187.863 523.178 189.413 523.61 192.534 525.307C194.534 526.392 196.605 527.487 198.815 526.312C199.555 525.93 200.045 524.866 200.725 524.544C202.596 523.64 203.626 524.715 205.126 525.237C206.336 525.649 206.636 526.03 207.997 525.779C208.997 525.599 208.547 524.142 207.597 524.323C205.526 524.715 204.196 521.943 202.116 522.114C200.735 522.224 200.715 522.917 199.665 523.48C197.585 524.584 196.585 525.488 194.244 524.484C193.244 524.082 192.344 523.339 191.374 522.867C190.272 522.209 189.015 521.863 187.733 521.863C186.706 521.957 185.744 522.408 185.013 523.138C182.782 525.066 184.012 526.985 178.462 524.936C177.406 524.353 176.403 523.681 175.461 522.927C172.861 521.371 169.74 520.547 167.55 523.068C166.92 523.801 167.97 524.876 168.61 524.132L168.59 524.183Z" fill="#007BFF"/>
<path d="M192.724 533.582C196.414 529.043 198.545 534.858 201.645 535.099C203.806 535.27 205.546 532.809 207.716 532.94C211.077 533.14 213.347 536.525 216.718 534.325C217.518 533.803 216.768 532.498 215.958 533.03C213.157 534.858 209.957 531.453 207.136 531.333C205.036 531.242 204.006 532.709 201.955 532.699C198.285 532.699 194.954 528.461 191.663 532.518C191.063 533.271 192.114 534.336 192.724 533.582Z" fill="#007BFF"/>
<path d="M34.9652 131.56C40.7321 131.56 45.407 126.866 45.407 121.075C45.407 115.285 40.7321 110.591 34.9652 110.591C29.1984 110.591 24.5234 115.285 24.5234 121.075C24.5234 126.866 29.1984 131.56 34.9652 131.56Z" stroke="#007BFF" stroke-miterlimit="10"/>
<path d="M295.188 388.464C297.398 388.464 299.189 386.666 299.189 384.447C299.189 382.229 297.398 380.43 295.188 380.43C292.979 380.43 291.188 382.229 291.188 384.447C291.188 386.666 292.979 388.464 295.188 388.464Z" stroke="#007BFF" stroke-width="0.5" stroke-miterlimit="10"/>
<path d="M68.7307 472.091C72.4372 472.091 75.4419 469.074 75.4419 465.352C75.4419 461.63 72.4372 458.613 68.7307 458.613C65.0242 458.613 62.0195 461.63 62.0195 465.352C62.0195 469.074 65.0242 472.091 68.7307 472.091Z" stroke="#007BFF" stroke-miterlimit="10"/>
<path d="M528.24 9.94216C530.836 9.94216 532.941 7.8289 532.941 5.22206C532.941 2.61522 530.836 0.501953 528.24 0.501953C525.644 0.501953 523.539 2.61522 523.539 5.22206C523.539 7.8289 525.644 9.94216 528.24 9.94216Z" stroke="#007BFF" stroke-miterlimit="10"/>
<path d="M576.977 123.345C578.369 123.345 579.497 122.212 579.497 120.814C579.497 119.417 578.369 118.284 576.977 118.284C575.585 118.284 574.457 119.417 574.457 120.814C574.457 122.212 575.585 123.345 576.977 123.345Z" stroke="#007BFF" stroke-miterlimit="10"/>
<path d="M160.279 121.708C163.831 121.708 166.71 118.817 166.71 115.25C166.71 111.684 163.831 108.793 160.279 108.793C156.727 108.793 153.848 111.684 153.848 115.25C153.848 118.817 156.727 121.708 160.279 121.708Z" fill="#8AC2FF"/>
<path d="M158.658 34.5571C161.315 34.5571 163.469 32.3944 163.469 29.7266C163.469 27.0587 161.315 24.896 158.658 24.896C156.002 24.896 153.848 27.0587 153.848 29.7266C153.848 32.3944 156.002 34.5571 158.658 34.5571Z" fill="#8AC2FF"/>
<path d="M422.913 483.228C427.829 483.228 431.815 479.226 431.815 474.29C431.815 469.354 427.829 465.352 422.913 465.352C417.997 465.352 414.012 469.354 414.012 474.29C414.012 479.226 417.997 483.228 422.913 483.228Z" fill="#8AC2FF"/>
<path d="M350.758 334.645C353.095 334.645 354.989 332.743 354.989 330.397C354.989 328.051 353.095 326.149 350.758 326.149C348.422 326.149 346.527 328.051 346.527 330.397C346.527 332.743 348.422 334.645 350.758 334.645Z" fill="#8AC2FF"/>
<path d="M114.19 504.98C118.278 504.98 121.592 501.653 121.592 497.549C121.592 493.444 118.278 490.117 114.19 490.117C110.103 490.117 106.789 493.444 106.789 497.549C106.789 501.653 110.103 504.98 114.19 504.98Z" stroke="#8AC2FF" stroke-miterlimit="10"/>
<path d="M247.922 456.123C248.32 456.123 248.701 455.964 248.983 455.681C249.264 455.399 249.422 455.016 249.422 454.616C249.422 454.217 249.264 453.834 248.983 453.551C248.701 453.269 248.32 453.11 247.922 453.11C247.524 453.11 247.143 453.269 246.861 453.551C246.58 453.834 246.422 454.217 246.422 454.616C246.422 455.016 246.58 455.399 246.861 455.681C247.143 455.964 247.524 456.123 247.922 456.123Z" fill="#8AC2FF"/>
<path d="M466.72 398.578C466.32 396.84 473.791 398.899 474.881 398.578C476.661 398.045 477.431 396.649 479.432 396.167C482.272 395.494 485.203 396.519 487.893 397.292C489.719 397.97 491.706 398.079 493.594 397.603C496.595 397.041 498.335 396.74 501.246 397.603C502.552 398.073 503.942 398.265 505.326 398.166C506.326 398.095 506.326 396.589 505.326 396.659C501.486 396.941 498.615 394.329 494.754 395.133C492.374 395.635 490.754 396.318 488.293 395.816C487.293 395.615 486.293 395.203 485.293 394.972C483.475 394.5 481.586 394.37 479.722 394.591C477.151 395.002 475.721 396.71 473.111 396.469C471.48 396.328 469.79 395.364 468.11 395.464C466.04 395.605 464.769 396.971 465.219 398.929C465.429 399.873 466.88 399.471 466.67 398.527L466.72 398.578Z" fill="#8AC2FF"/>
<path d="M491.042 405.286C494.893 403.72 497.833 405.788 500.774 407.877C500.944 407.965 501.141 407.986 501.326 407.936C501.511 407.886 501.671 407.768 501.774 407.606C503.924 404.784 506.685 404.362 509.775 405.377C510.526 405.628 511.156 406.12 511.916 406.381C513.675 406.878 515.537 406.878 517.297 406.381C518.237 406.17 517.847 404.714 516.897 404.925C511.316 406.18 507.965 399.903 503.044 403.981C500.144 406.371 500.814 405.346 497.143 403.9C496.131 403.417 495.027 403.159 493.906 403.145C492.786 403.131 491.676 403.361 490.652 403.82C489.772 404.181 490.162 405.638 491.052 405.266L491.042 405.286Z" fill="#8AC2FF"/>
<path d="M54.9762 69.5662C54.4783 73.8288 54.3612 78.1275 54.6261 82.4109C55.0362 89.23 55.6863 99.7749 62.5475 109.366C64.2816 111.801 66.2959 114.023 68.5485 115.984C73.6835 117.506 79.0072 118.291 84.3613 118.314C96.2733 118.314 105.095 114.478 113.366 110.762C121.484 107.099 129.104 102.411 136.04 96.8123C135.821 94.1318 135.362 91.4766 134.67 88.8785C129.739 70.2592 114.176 59.7545 107.125 55.5767C104.19 59.2374 100.763 62.4718 96.9434 65.1876C93.0928 67.9293 85.1514 73.5733 73.7894 73.9549C67.2479 74.1309 60.7706 72.6199 54.9762 69.5662Z" fill="white"/>
<path d="M215.414 56.4203C218.285 58.8525 220.929 61.5417 223.315 64.4545C227.522 69.2238 230.769 74.7656 232.877 80.774C235.029 87.448 235.544 94.5454 234.377 101.462C245.209 102.891 255.556 106.85 264.588 113.021C273.62 119.191 281.086 127.402 286.386 136.993C288.7 132.743 290.741 128.349 292.497 123.837C301.399 100.94 301.149 79.4584 299.349 64.7558C290.842 58.3547 281.168 53.6906 270.874 51.0273C244.789 44.369 223.025 52.9857 215.414 56.4203Z" fill="white"/>
<path d="M266.665 477.775C267.665 480.235 269.225 483.62 271.235 487.557C274.046 493.07 278.357 501.506 284.628 509.199C295.91 523.008 309.502 529.435 315.193 532.076C322.589 535.48 330.402 537.884 338.427 539.227C344.302 535.592 349.83 531.42 354.94 526.764C365.339 517.256 373.903 505.906 380.204 493.281C375.91 493.079 371.68 492.152 367.692 490.539C358.79 486.914 353.75 480.828 350.119 476.349C339.857 463.675 336.217 449.575 334.776 441.199C321.337 441.414 308.143 444.849 296.292 451.218C284.441 457.587 274.277 466.706 266.645 477.815L266.665 477.775Z" fill="white"/>
<path opacity="0.14" d="M330.506 441.059C322.7 444.833 316.288 450.997 312.193 458.664C307.502 467.592 306.002 478.639 308.782 487.296C314.323 504.499 338.287 516.861 366.252 511.659C359.772 523.308 350.13 532.868 338.448 539.227C332.208 538.132 326.093 536.413 320.194 534.095C308.465 529.528 297.786 522.608 288.809 513.758C278.692 503.371 271.344 490.592 267.445 476.6C275.837 465.028 286.916 455.688 299.721 449.394C309.381 444.727 319.819 441.9 330.506 441.059Z" fill="#474C54"/>
<path opacity="0.14" d="M106.796 56.8623C103.241 61.6826 100.469 67.0383 98.5845 72.7299C92.2434 92.022 98.3044 109.225 100.805 115.311C90.4208 119.025 79.1181 119.261 68.5893 115.984C62.7706 109.809 58.6045 102.254 56.4796 94.0247C54.3546 85.7956 54.34 77.16 56.4372 68.9237C60.4833 71.8087 65.1384 73.7163 70.0396 74.4974C90.4531 77.5805 105.776 58.188 106.796 56.8623Z" fill="#474C54"/>
<path opacity="0.14" d="M216.824 57.6655C222.177 61.9825 226.575 67.3731 229.736 73.4929C232.24 78.4111 233.929 83.706 234.737 89.1697C235.52 93.9386 235.692 98.7885 235.247 103.601C240.68 104.631 246.029 106.065 251.25 107.889C260.462 111.113 268.473 113.915 275.724 120.945C280.38 125.495 284.015 130.99 286.386 137.064C285.121 127.206 282.773 117.519 279.385 108.181C271.356 86.5198 258.13 67.1821 240.878 51.8809L216.824 57.6655Z" fill="#474C54"/>
<path d="M54.2276 69.5661C52.2754 86.1765 56.5542 102.921 66.2297 116.536C66.7898 117.32 68.09 116.536 67.5299 115.783C58.0121 102.394 53.8141 85.9199 55.7579 69.5862C55.8679 68.5819 54.3676 68.5819 54.2576 69.5862L54.2276 69.5661Z" fill="black"/>
<path d="M55.9065 69.4757C62.8177 75.6521 72.9994 75.1198 81.4909 73.0911C91.4918 70.6359 100.506 65.1694 107.325 57.4244C107.965 56.7013 106.905 55.6368 106.265 56.3599C100.335 63.0919 92.6898 68.0741 84.1514 70.7713C75.6099 73.4226 64.1479 74.7884 56.9567 68.3911C56.2366 67.7484 55.1764 68.8029 55.8965 69.4557L55.9065 69.4757Z" fill="black"/>
<path d="M68.3891 116.677C90.0929 124.711 116.727 112.318 134.15 99.604C134.931 99.0416 134.15 97.726 133.4 98.2985C116.257 110.832 90.1529 123.104 68.7892 115.251C67.879 114.919 67.489 116.375 68.3891 116.707V116.677Z" fill="black"/>
<path d="M106.756 56.2294C114.578 59.971 121.312 65.6684 126.31 72.7749C131.309 79.8815 134.405 88.1587 135.301 96.8123C135.391 97.8166 136.891 97.8166 136.801 96.8123C135.901 87.8976 132.735 79.3646 127.607 72.0315C122.479 64.6983 115.561 58.811 107.516 54.9339C106.646 54.5121 105.885 55.8076 106.756 56.2294Z" fill="black"/>
<path d="M269.015 476.61C273.906 465.352 287.138 457.258 297.41 451.503C308.892 445.036 321.554 441.119 334.796 441.953C335.796 442.013 335.796 440.506 334.796 440.446C321.314 439.592 308.342 443.62 296.66 450.208C286.228 456.083 272.655 464.458 267.725 475.887C267.334 476.771 268.635 477.534 269.015 476.65V476.61Z" fill="black"/>
<path d="M335.075 442.494C338.285 465.261 354.488 493.401 380.222 493.994C380.421 493.994 380.612 493.914 380.753 493.773C380.894 493.632 380.973 493.44 380.973 493.241C380.973 493.041 380.894 492.849 380.753 492.708C380.612 492.567 380.421 492.487 380.222 492.487C355.198 491.905 339.635 464.157 336.525 442.063C336.385 441.109 334.945 441.51 335.075 442.464V442.494Z" fill="black"/>
<path d="M267.733 480.054C277.475 511.478 305.74 535.129 338.256 539.166C339.206 539.287 339.196 537.78 338.256 537.66C306.42 533.703 278.705 510.353 269.184 479.653C268.894 478.729 267.443 479.12 267.733 480.054Z" fill="black"/>
<path d="M338.835 539.88C355.857 529.278 369.744 514.294 379.052 496.485C379.502 495.621 378.212 494.858 377.762 495.721C368.579 513.306 354.876 528.102 338.075 538.574C337.265 539.086 338.015 540.392 338.835 539.88Z" fill="black"/>
<path d="M217.555 60.3369C223.668 65.0751 228.392 71.3844 231.226 78.5973C234.061 85.8102 234.901 93.6584 233.658 101.311C233.498 102.255 234.948 102.667 235.098 101.713C236.414 93.741 235.548 85.5597 232.592 78.0437C229.635 70.5277 224.701 63.9595 218.315 59.0414C217.545 58.4489 216.795 59.7544 217.555 60.3369Z" fill="black"/>
<path d="M223.276 55.7577C249.28 49.9228 279.506 48.5269 299.999 68.7229C300.689 69.4058 301.75 68.3413 301.059 67.6584C280.186 47.0807 249.441 48.3863 222.876 54.3015C221.936 54.5124 222.336 55.9686 223.276 55.7577Z" fill="black"/>
<path d="M238.501 105.379C257.404 109.657 278.758 117.028 285.639 137.245C285.682 137.384 285.764 137.509 285.875 137.603C285.986 137.697 286.122 137.757 286.266 137.776C286.411 137.795 286.557 137.772 286.689 137.71C286.821 137.648 286.932 137.549 287.009 137.425C299.221 116.265 299.772 91.3893 299.942 67.5979C299.942 67.3982 299.863 67.2066 299.722 67.0653C299.581 66.9241 299.39 66.8447 299.191 66.8447C298.992 66.8447 298.802 66.9241 298.661 67.0653C298.52 67.2066 298.441 67.3982 298.441 67.5979C298.271 91.1282 297.791 115.743 285.709 136.662L287.079 136.843C280.018 116.074 258.374 108.331 238.901 103.923C237.961 103.712 237.561 105.168 238.501 105.379Z" fill="black"/>
<path d="M311.462 496.414C316.329 493.462 320.791 489.883 324.734 485.769C325.404 485.066 324.344 484.002 323.674 484.705C319.811 488.73 315.439 492.232 310.672 495.119C309.842 495.621 310.602 496.927 311.422 496.414H311.462Z" fill="#8AC2FF"/>
<path d="M314.113 486.251C316.539 490.859 319.74 495.011 323.575 498.523C324.285 499.176 325.355 498.111 324.635 497.459C320.896 494.034 317.773 489.988 315.404 485.498C314.954 484.634 313.663 485.397 314.113 486.251Z" fill="#8AC2FF"/>
<path d="M253.45 80.7639C260.166 81.2512 266.418 84.3846 270.843 89.481C271.483 90.2041 272.544 89.1396 271.903 88.4165C267.193 83.0431 260.562 79.752 253.45 79.2575C252.45 79.1772 252.5 80.6836 253.45 80.7639Z" fill="#8AC2FF"/>
<path d="M263.184 72.8099L261.184 88.1553C261.054 89.1596 262.564 89.0993 262.684 88.1553L264.684 72.8099C264.804 71.8559 263.304 71.8659 263.184 72.8099Z" fill="#8AC2FF"/>
<path d="M86.503 93.91C91.7872 91.8578 96.9122 89.414 101.836 86.5989C101.921 86.5488 101.996 86.4822 102.055 86.4031C102.115 86.324 102.159 86.2339 102.184 86.1378C102.209 86.0418 102.215 85.9417 102.202 85.8433C102.188 85.7449 102.156 85.6502 102.106 85.5645C102.056 85.4787 101.99 85.4037 101.911 85.3437C101.832 85.2837 101.742 85.2398 101.647 85.2147C101.551 85.1895 101.451 85.1835 101.353 85.197C101.255 85.2105 101.161 85.2432 101.076 85.2933C96.2601 88.0537 91.2452 90.4473 86.0729 92.4538C85.1828 92.8053 85.5628 94.2615 86.463 93.91H86.503Z" fill="#8AC2FF"/>
<path d="M90.9455 81.6879L100.797 96.2198C101.337 97.0131 102.637 96.2198 102.097 95.4565L92.2357 80.9246C91.6956 80.1312 90.3954 80.9246 90.9455 81.6879Z" fill="#8AC2FF"/>
<path d="M139.397 278.466C129.766 292.102 121.615 306.734 115.083 322.112C101.692 353.991 95.3153 388.399 96.3898 422.981C103.744 432.332 113.395 439.6 124.395 444.071C154.4 456.012 182.185 440.948 186.405 438.568C187.438 428.155 189.03 417.806 191.176 407.566C199.328 368.208 210.53 355.283 211.4 329.624C211.76 318.858 210.399 303.04 201.558 283.427L139.397 278.466Z" fill="#007BFF"/>
<path d="M140.688 217.818C139.706 214.682 139.259 211.402 139.367 208.116C139.58 203.146 140.998 198.302 143.498 194.006C150.409 182.306 163.372 179.725 165.132 179.404C173.799 177.955 182.688 179.95 189.916 184.968C194.157 182.517 198.796 180.838 203.619 180.007C208.669 179.153 213.15 178.4 215.841 181.011C218.901 184.024 217.841 189.547 217.481 191.305C216.781 194.86 214.91 199.218 206.649 206.791C199.648 213.248 193.117 219.194 182.185 222.94C177.794 224.446 171.883 224.948 160.071 226.073C155.54 226.485 151.94 226.675 148.069 224.787C144.998 223.217 142.438 220.799 140.688 217.818Z" fill="#8AC2FF"/>
<path d="M170.523 223.472C172.467 225.586 174.076 227.988 175.294 230.592C177.415 235.192 177.185 238.375 177.925 243.899C178.817 251.417 180.579 258.805 183.176 265.913C185.316 271.456 186.436 274.278 189.177 276.819C194.768 281.931 202.069 282.001 204.409 282.031C207.68 282.031 212.021 282.102 215.921 279.209C219.532 276.518 220.722 272.812 222.172 268.293C223.623 263.774 225.063 259.254 223.403 253.65C222.117 249.583 219.591 246.024 216.181 243.477C212.85 240.904 208.863 239.327 204.679 238.928C199.885 235.955 195.011 232.792 190.057 229.437C187.056 227.429 184.132 225.397 181.285 223.341L170.523 223.472Z" fill="black"/>
<path d="M142.707 221.724C142.917 223.311 143.217 225.651 143.507 228.473C144.367 236.738 145.698 249.452 144.647 263.894C143.833 274.776 141.793 285.53 138.566 295.95C146.701 300.143 155.982 301.535 164.982 299.913C173.981 298.291 182.201 293.744 188.375 286.972L187.175 273.796C185.608 271.294 184.269 268.656 183.174 265.912C179.473 256.432 180.574 250.517 178.503 240.996C177.291 235.498 175.357 230.186 172.752 225.199C162.609 227.244 152.083 226.028 142.667 221.724H142.707Z" fill="white"/>
<path d="M182.414 222.598C183.077 225.23 183.988 227.792 185.135 230.25C187.285 234.88 188.705 237.933 191.796 239.721C196.376 242.382 201.797 240.615 203.478 239.992H207.248C206.582 237.314 205.798 234.579 204.898 231.787C203.022 225.794 200.808 219.912 198.267 214.172L182.414 222.598Z" fill="white"/>
<path opacity="0.17" d="M168.632 227.971C166.177 232.448 164.167 237.158 162.631 242.031C159.34 252.575 159.75 259.314 158.73 265.31C157.45 272.842 153.219 283.387 139.477 295.157C141.3 288.164 142.682 281.063 143.617 273.896C144.456 267.407 144.93 260.876 145.038 254.333C145.147 247.732 144.886 241.13 144.257 234.559L168.632 227.971Z" fill="#474C54"/>
<path d="M142.668 222.97C142.978 224.978 143.418 227.84 143.878 231.335C146.679 252.807 145.418 260.459 147.779 261.303C150.139 262.147 156.06 255.96 171.323 225.47C161.706 226.825 151.908 225.97 142.668 222.97Z" fill="black"/>
<path d="M198.716 218.33C202.009 225.354 204.625 232.678 206.527 240.203L207.447 239.269C205.856 238.986 204.242 238.858 202.626 238.887C202.427 238.887 202.237 238.967 202.096 239.108C201.955 239.249 201.876 239.441 201.876 239.641C201.876 239.84 201.955 240.032 202.096 240.173C202.237 240.315 202.427 240.394 202.626 240.394C204.108 240.293 205.597 240.405 207.047 240.725C207.174 240.757 207.307 240.755 207.433 240.72C207.559 240.684 207.674 240.617 207.767 240.524C207.859 240.431 207.926 240.316 207.962 240.189C207.997 240.063 207.999 239.929 207.967 239.801C206.03 232.158 203.368 224.719 200.016 217.587C199.606 216.703 198.306 217.466 198.716 218.34V218.33Z" fill="black"/>
<path d="M181.463 223.13C183.634 228.523 185.354 235.854 190.195 239.54C192.145 240.982 194.457 241.848 196.871 242.042C199.284 242.235 201.704 241.748 203.857 240.635C204.727 240.213 203.967 238.907 203.107 239.329C200.751 240.538 198.048 240.878 195.468 240.289C192.888 239.7 190.597 238.219 188.995 236.105C186.084 232.279 184.694 227.157 182.913 222.728C182.553 221.845 181.103 222.226 181.463 223.13Z" fill="black"/>
<path d="M208.279 240.564C225.512 244.923 227.772 265.742 216.81 277.632C216.15 278.335 217.21 279.41 217.87 278.697C229.592 265.983 227.002 243.748 208.679 239.108C208.584 239.082 208.484 239.075 208.386 239.087C208.288 239.099 208.193 239.131 208.107 239.179C208.022 239.228 207.946 239.294 207.885 239.372C207.825 239.45 207.78 239.54 207.754 239.636C207.727 239.731 207.72 239.831 207.732 239.929C207.744 240.028 207.776 240.123 207.825 240.209C207.873 240.295 207.939 240.371 208.016 240.432C208.094 240.493 208.184 240.538 208.279 240.564Z" fill="black"/>
<path d="M172.914 227.78C182.386 243.979 175.914 267.409 191.827 280.183C192.567 280.786 193.638 279.731 192.887 279.119C177.255 266.535 183.596 243.065 174.204 227.017C174.097 226.858 173.934 226.746 173.748 226.703C173.561 226.661 173.366 226.691 173.201 226.789C173.037 226.886 172.915 227.043 172.862 227.227C172.809 227.411 172.827 227.609 172.914 227.78Z" fill="black"/>
<path d="M141.946 223.13C145.873 247.034 144.79 271.497 138.765 294.956C138.739 295.052 138.732 295.152 138.744 295.25C138.756 295.348 138.788 295.444 138.836 295.53C138.885 295.616 138.95 295.692 139.028 295.753C139.106 295.814 139.195 295.859 139.29 295.885C139.386 295.911 139.485 295.919 139.583 295.907C139.681 295.894 139.776 295.863 139.862 295.814C139.948 295.765 140.023 295.699 140.084 295.621C140.145 295.543 140.189 295.453 140.216 295.358C146.297 271.637 147.377 246.903 143.386 222.739C143.226 221.784 141.786 222.186 141.946 223.13Z" fill="black"/>
<path d="M139.027 217.476C141.237 223.502 147.248 225.671 153.129 226.515C161.822 227.675 170.661 226.991 179.074 224.506C195.397 219.632 209.128 208.453 217.25 193.424C217.72 192.58 216.43 191.817 215.96 192.67C210.722 202.511 202.944 210.756 193.442 216.541C183.94 222.326 173.063 225.437 161.951 225.55C154.71 225.631 143.508 225.229 140.507 217.104C140.177 216.211 138.727 216.592 139.067 217.506L139.027 217.476Z" fill="black"/>
<path d="M141.408 217.616C139.268 210.258 140.072 202.353 143.646 195.581C147.221 188.809 153.286 183.704 160.551 181.351C175.174 176.46 190.556 182.968 199.258 195.24C199.818 196.024 201.118 195.24 200.558 194.477C191.136 181.201 174.313 174.392 158.711 180.417C151.438 183.154 145.463 188.549 141.986 195.522C138.508 202.495 137.783 210.531 139.958 218.017C140.238 218.941 141.688 218.55 141.408 217.616Z" fill="black"/>
<path d="M192.425 185.349C196.317 182.98 200.598 181.324 205.067 180.458C207.958 179.916 212.579 179.063 215.069 181.292C218.48 184.305 217.55 189.788 215.709 193.263C215.249 194.117 216.539 194.88 216.999 194.016C219.53 189.266 219.92 180.87 213.659 178.691C206.988 176.371 197.266 180.699 191.655 184.054C191.497 184.161 191.385 184.325 191.343 184.512C191.301 184.699 191.331 184.895 191.428 185.061C191.525 185.226 191.681 185.348 191.865 185.401C192.048 185.455 192.245 185.436 192.415 185.349H192.425Z" fill="black"/>
<path d="M192.174 221.704C192.919 222.883 193.39 224.214 193.554 225.601L194.954 225.219C193.939 223.846 193.27 222.248 193.004 220.559C192.844 219.555 191.404 220.007 191.554 220.951C191.849 222.768 192.569 224.488 193.654 225.972C194.034 226.494 195.154 226.424 195.054 225.591C194.875 223.939 194.336 222.348 193.474 220.931C192.964 220.107 191.664 220.86 192.174 221.694V221.704Z" fill="black"/>
<path d="M173.814 232.54C169.424 231.214 166.093 236.075 165.973 240.022C165.923 241.08 166.101 242.137 166.495 243.12C166.888 244.103 167.487 244.989 168.252 245.719C169.017 246.449 169.929 247.005 170.927 247.349C171.924 247.694 172.984 247.818 174.034 247.715C174.985 247.604 175.035 246.098 174.034 246.208C164.643 247.213 166.693 231.958 173.414 233.986C173.599 234.021 173.79 233.985 173.949 233.885C174.109 233.785 174.225 233.629 174.275 233.448C174.326 233.266 174.306 233.072 174.221 232.904C174.135 232.736 173.99 232.606 173.814 232.54Z" fill="black"/>
<path d="M191.737 280.022C198.868 283.216 212.22 285.104 218.181 278.385C218.821 277.662 217.761 276.598 217.111 277.321C211.65 283.487 198.968 281.619 192.497 278.727C191.627 278.335 190.856 279.631 191.737 280.022Z" fill="black"/>
<path d="M192.895 227.86C193.313 227.319 193.874 226.906 194.514 226.67C195.154 226.434 195.848 226.383 196.515 226.525C197.455 226.726 197.855 225.279 196.915 225.068C195.992 224.855 195.029 224.904 194.132 225.209C193.234 225.514 192.44 226.063 191.835 226.796C191.235 227.539 192.285 228.614 192.895 227.86Z" fill="black"/>
<path d="M186.423 273.595C186.077 276.063 185.98 278.56 186.133 281.047C186.193 282.051 187.693 282.051 187.633 281.047C187.476 278.702 187.553 276.347 187.863 274.017C187.993 273.073 186.553 272.661 186.423 273.615V273.595Z" fill="black"/>
<path d="M184.703 292.516C187.555 289.339 191.069 286.833 194.995 285.174C201.606 282.423 208.067 282.804 215.468 284.301C229.341 287.113 238.872 292.335 246.364 296.041C258.398 302.02 270.846 307.121 283.61 311.306C291.482 307.148 299.833 302.327 308.474 296.723C315.246 292.335 321.477 287.916 327.228 283.577C328.067 278.723 330.515 274.296 334.176 271.015C337.836 267.733 342.493 265.79 347.391 265.5C355.749 269.961 365.051 272.345 374.516 272.45C373.516 277.702 373.096 281.217 373.696 281.388C374.296 281.559 375.496 279.631 375.106 278.948C374.276 277.471 364.844 280.685 340.67 292.144C330.868 302.739 322.287 311.406 315.666 317.914C303.574 329.764 297.543 335.338 289.661 341.012C284.81 344.517 280.57 347.168 277.559 348.966C274.871 349.336 272.161 349.518 269.448 349.508C261.427 349.403 253.502 347.75 246.104 344.638C236.812 341.042 223.32 336.885 202.656 331.743L184.703 292.516Z" fill="white"/>
<path opacity="0.24" d="M183.172 289.332C186.452 292.074 191.523 296.241 197.844 301.122C233.01 328.298 251.224 342.016 268.857 338.762C272.937 338.009 280.599 331.381 295.911 318.135C324.916 293.028 332.918 281.468 350.991 276.567C358.506 274.583 366.325 274.024 374.045 274.92C375.415 278.114 375.045 279.992 374.525 281.067C371.734 287.092 358.632 282.583 345.67 289.171C343.199 290.416 342.029 291.421 332.978 300.369C316.195 316.869 311.304 322.262 305.663 327.575C297 335.714 287.533 342.946 277.408 349.157C270.407 348.765 263.016 348.022 255.224 346.807C236.391 343.857 217.996 338.564 200.465 331.05L183.172 289.332Z" fill="#474C54"/>
<path d="M189.802 289.061C203.854 278.586 221.117 286.43 235.299 292.285L281.537 311.366C282.428 311.727 282.818 310.271 281.937 309.91C264.724 302.799 247.532 295.619 230.279 288.589C217.156 283.236 201.594 278.395 189.041 287.755C188.281 288.328 189.041 289.633 189.802 289.051V289.061Z" fill="black"/>
<path d="M278.189 315.443C291.131 307.61 304.414 300.319 317.346 292.475C321.687 289.844 325.997 286.811 328.928 282.573C330.478 280.344 331.288 277.823 332.458 275.403C333.369 273.363 334.721 271.554 336.417 270.106C338.113 268.659 340.109 267.61 342.26 267.037C342.433 266.97 342.575 266.841 342.659 266.675C342.743 266.509 342.762 266.317 342.714 266.137C342.665 265.958 342.552 265.802 342.396 265.701C342.241 265.6 342.053 265.561 341.87 265.591C339.642 266.168 337.561 267.212 335.764 268.656C333.968 270.1 332.497 271.91 331.448 273.966C329.628 277.522 328.638 280.936 325.917 283.959C323.557 286.458 320.864 288.617 317.916 290.376C304.704 298.712 290.831 306.053 277.459 314.138C277.286 314.239 277.161 314.405 277.111 314.599C277.06 314.793 277.088 314.999 277.189 315.172C277.29 315.345 277.455 315.471 277.648 315.522C277.841 315.573 278.047 315.544 278.219 315.443H278.189Z" fill="black"/>
<path d="M200.275 331.783C214.491 336.892 228.959 341.267 243.622 344.889C250.643 346.63 257.708 348.183 264.816 349.549C269.997 350.553 275.137 351.376 279.998 348.815C285.359 345.983 290.24 341.645 294.911 337.819C300.442 333.279 305.773 328.499 310.914 323.568C321.295 313.676 331.067 303.161 340.839 292.656C341.489 291.943 340.429 290.879 339.769 291.592C321.886 310.834 303.762 330.889 281.959 345.823C275.027 350.553 268.216 348.775 260.555 347.209C253.774 345.816 247.029 344.263 240.321 342.549C226.909 339.124 213.677 335.027 200.635 330.357C199.725 330.036 199.334 331.482 200.245 331.813L200.275 331.783Z" fill="black"/>
<path d="M352.2 268.061C356.03 269.936 360.099 271.271 364.292 272.028C365.908 272.309 367.537 272.5 369.173 272.601C371.664 272.751 372.004 272.129 373.474 274.69C374.834 277.08 374.624 278.295 373.864 280.866C373.829 281.051 373.865 281.243 373.965 281.403C374.064 281.563 374.22 281.68 374.401 281.731C374.582 281.781 374.775 281.762 374.942 281.676C375.11 281.59 375.239 281.445 375.304 281.268C376.194 278.255 377.305 272.792 373.724 271.225C372.733 271.056 371.724 271.023 370.724 271.125C368.696 271.061 366.675 270.866 364.672 270.542C360.604 269.812 356.653 268.528 352.93 266.726C352.06 266.314 351.3 267.61 352.18 268.021L352.2 268.061Z" fill="black"/>
<path d="M341.31 292.556C345.601 286.53 357.983 290.819 364.184 289.905C369.365 289.141 372.186 286.45 374.346 281.81C374.756 280.936 373.466 280.173 373.056 281.057C368.745 290.256 360.353 288.469 351.822 288.087C347.561 287.916 342.7 287.966 340.02 291.763C339.46 292.556 340.76 293.309 341.31 292.516V292.556Z" fill="black"/>
<path d="M0.921875 193.343C1.53198 194.93 30.2169 402.705 30.2169 402.705L211.178 506.336C206.637 433.399 202.1 360.455 197.566 287.504L0.921875 193.343Z" fill="white" stroke="black" stroke-miterlimit="10"/>
<path opacity="0.18" d="M82.1559 232.229C77.7228 246.74 75.0793 261.742 74.2845 276.899C67.9834 399.642 188.084 489.625 211.178 506.336L30.1469 402.695C20.4319 332.918 10.6902 263.134 0.921875 193.343L82.1559 232.229Z" fill="#474C54"/>
<path d="M339.949 24.9062C343.48 36.576 346.7 48.8683 349.471 61.7532C364.093 129.793 361.363 191.456 353.542 240.515L541.124 255.518L546.555 35.7926L339.949 24.9062Z" fill="white" stroke="black" stroke-miterlimit="10"/>
<path opacity="0.18" d="M448.817 139.233C448.038 127.364 448.629 115.445 450.577 103.712C453.818 84.2491 455.668 73.1016 465.02 65.3888C476.551 55.8783 496.025 54.4321 509.887 63.5108C525.89 74.0256 521.979 100.81 521.109 121.709C519.769 153.574 522.579 198.566 541.113 255.549L496.225 246.229C495.625 244.14 495.005 242.061 494.355 239.972C483.432 204.612 468.133 170.768 448.817 139.233Z" fill="#474C54"/>
<path d="M408.268 143.792C407.408 144.887 406.188 146.484 404.828 148.482C403.828 149.909 399.567 156.215 397.516 161.759C395.406 167.463 395.596 172.575 396.236 179.414C397.436 191.96 399.441 204.416 402.237 216.703C397.115 220.673 392.204 224.91 387.525 229.397C381.984 234.7 381.404 235.905 376.003 240.776C369.142 246.952 365.721 250.045 360.24 252.877C356.449 254.835 354.429 255.277 350.168 258.089C344.117 262.106 342.647 264.858 342.027 266.354C340.677 269.669 340.557 274.007 342.027 274.72C343.497 275.433 346.858 272.099 348.828 270.06C349.889 268.972 350.866 267.804 351.749 266.565C355.281 269.446 359.653 271.093 364.201 271.255C367.527 271.355 370.828 270.645 373.822 269.187C374.421 266.719 375.371 264.352 376.643 262.157C379.773 256.733 383.824 254.233 391.455 249.101C401.517 242.392 406.528 238.707 407.718 237.833C416.47 231.376 419.3 228.473 421.351 224.376C422.931 221.242 423.441 218.601 424.141 214.946C425.188 208.594 425.414 202.133 424.811 195.724C423.751 185.078 418.58 166.258 408.268 143.792Z" fill="white"/>
<path d="M349.029 287.535C350.27 286.063 351.368 284.476 352.309 282.795C354.66 278.938 354.72 277.683 356.87 274.881C357.99 273.435 359.45 271.537 360.291 271.868C361.411 272.29 360.831 276.337 360.641 277.583C361.481 274.188 364.931 272.682 367.142 273.676C369.012 274.519 370.142 277.261 369.242 279.943C371.472 278.938 372.193 279.42 372.433 279.631C373.613 280.696 371.973 284.311 370.902 286.099C369.933 287.823 368.585 289.303 366.962 290.427C365.191 291.612 363.471 292.044 353.049 292.155C347.958 292.205 346.048 292.155 345.798 291.321C345.548 290.487 346.968 289.885 349.029 287.535Z" fill="white"/>
<path opacity="0.2" d="M413.481 155.844C413.781 160.012 414.191 166.198 414.571 173.7C415.281 187.639 415.641 194.609 415.301 197.923C414.821 202.653 412.531 219.153 400.639 231.747C393.638 239.169 389.467 238.687 378.515 249.824C374.688 253.685 371.185 257.857 368.043 262.297C366.037 265.138 364.184 268.085 362.492 271.125C364.059 272.206 365.947 272.716 367.843 272.571C369.019 272.448 370.158 272.085 371.19 271.505C372.222 270.925 373.125 270.139 373.844 269.197C374.98 265.339 376.84 261.736 379.325 258.581C382.596 254.454 385.566 252.947 393.988 247.424C401.499 242.483 405.26 240.002 408.75 237.14C414.661 232.259 419.552 228.232 422.493 221.825C425.353 215.568 425.173 209.613 424.563 203.346C422.853 185.781 418.092 168.899 413.481 155.844Z" fill="#474C54"/>
<path opacity="0.22" d="M350.949 292.124C353.23 291.608 355.384 290.635 357.28 289.262C364.732 283.789 365.172 273.485 367.142 273.655C367.802 273.716 368.592 274.951 369.242 279.922C370.933 279.239 371.993 279.139 372.433 279.611C373.38 280.635 371.469 284.317 366.702 290.658L350.949 292.124Z" fill="#474C54"/>
<path d="M404.298 147.91C386.525 166.991 400.167 194.528 401.528 216.663C401.588 217.667 403.088 217.667 403.028 216.663C401.698 195.01 388.025 167.624 405.358 148.974C406.018 148.271 404.958 147.197 404.298 147.91Z" fill="black"/>
<path d="M404.119 216.633C395.347 218.441 387.606 228.182 381.565 234.238C373.433 242.382 365.342 249.553 354.96 254.675C348.219 257.999 339.757 263.251 340.638 272.069C341.638 282.343 350.039 269.809 352.33 267.048C352.95 266.304 351.89 265.24 351.269 265.983C349.919 267.6 344.808 275.956 342.338 273.133C340.608 271.125 343.248 265.933 344.338 264.266C345.722 262.318 347.468 260.657 349.479 259.375C355.65 255.217 362.621 252.827 368.572 248.217C374.243 243.829 379.234 238.657 384.295 233.595C389.696 228.202 396.797 219.656 404.499 218.079C405.449 217.878 405.049 216.432 404.099 216.623L404.119 216.633Z" fill="black"/>
<path d="M423.582 202.553C423.972 210.848 424.082 219.696 419.051 226.756C414.42 233.243 407.049 237.451 400.608 241.91C390.096 249.191 376.604 255.599 373.113 269.026C373.087 269.122 373.079 269.221 373.092 269.32C373.104 269.418 373.135 269.513 373.184 269.6C373.233 269.686 373.298 269.762 373.376 269.823C373.454 269.884 373.543 269.928 373.638 269.955C373.733 269.981 373.833 269.989 373.931 269.976C374.029 269.964 374.124 269.933 374.209 269.884C374.295 269.835 374.371 269.769 374.432 269.691C374.492 269.613 374.537 269.523 374.563 269.428C376.934 260.208 383.755 255.448 391.176 250.346C397.937 245.656 404.878 241.147 411.46 236.196C416.11 232.701 420.461 228.684 422.792 223.251C425.602 216.783 425.402 209.522 425.082 202.633C425.082 201.629 423.532 201.629 423.582 202.633V202.553Z" fill="black"/>
<path d="M346.059 291.01C348.631 289.257 350.775 286.943 352.331 284.241C353.741 281.951 357.141 272.933 360.102 272.762C361.102 272.712 361.102 271.205 360.102 271.256C357.361 271.416 355.401 275.634 354.251 277.683C351.74 282.112 349.7 286.822 345.309 289.734C344.499 290.267 345.249 291.562 346.059 291.03V291.01Z" fill="black"/>
<path d="M359.65 272.23C360.89 274.238 358.37 279.129 357.6 280.836C356.661 282.922 355.571 284.936 354.339 286.862C353.819 287.685 355.119 288.439 355.639 287.625C357.466 284.754 358.984 281.698 360.17 278.506C360.95 276.357 362.301 273.636 360.94 271.476C360.43 270.653 359.13 271.406 359.65 272.23Z" fill="black"/>
<path d="M360.349 279.059C362.465 276.501 365.166 274.496 368.221 273.214L367.221 272.943C369.741 277.331 365.69 283.769 363.15 287.454C362.6 288.248 363.9 289.001 364.45 288.208C367.331 284.04 371.401 277.16 368.521 272.139C368.416 271.979 368.256 271.863 368.072 271.813C367.888 271.763 367.692 271.782 367.521 271.868C364.347 273.204 361.543 275.292 359.349 277.954C358.729 278.687 359.779 279.762 360.409 279.018L360.349 279.059Z" fill="black"/>
<path d="M366.42 273.455C364.582 278.538 362.158 283.388 359.199 287.906C358.659 288.71 359.959 289.473 360.489 288.659C363.53 284.033 366.021 279.065 367.911 273.856C368.241 272.943 366.8 272.551 366.47 273.455H366.42Z" fill="black"/>
<path d="M369.774 280.455C371.774 280.374 372.414 280.033 371.714 279.45C371.594 279.953 371.454 280.455 371.314 280.927C370.957 282.081 370.519 283.209 370.004 284.301C369.047 286.312 367.848 288.198 366.433 289.915C365.823 290.658 366.883 291.723 367.493 290.98C369.914 288.017 372.754 283.799 373.164 279.852C373.464 276.99 369.984 278.366 368.713 279.43C367.963 280.053 369.033 281.118 369.774 280.495V280.455Z" fill="black"/>
<path d="M345.596 292.024C351.937 294.424 360.219 292.295 366.7 291.431C367.64 291.311 367.7 289.794 366.7 289.925C360.359 290.769 352.167 292.938 345.996 290.568C345.086 290.226 344.696 291.682 345.596 292.024Z" fill="black"/>
<path d="M400.441 145.47C401.912 149.537 404.192 156.135 406.442 164.44C411.633 183.361 410.363 187.539 415.394 195.463C419.795 202.392 421.395 200.173 432.817 212.997C439.978 221.032 443.819 225.571 446.539 232.079C448.067 235.81 449.115 239.721 449.66 243.718L510.51 250.075C504.122 221.909 493.577 194.859 479.225 169.823C472.275 157.726 464.453 146.156 455.821 135.206C448.22 133.127 429.216 129.18 410.693 138.621C407.028 140.506 403.589 142.803 400.441 145.47Z" fill="#8AC2FF"/>
<path d="M449.265 146.193C450.477 144.208 451.943 142.392 453.626 140.79C456.026 138.51 459.377 135.337 464.358 134.814C470.149 134.212 474.569 137.576 476.12 138.751C479.29 141.171 480.88 143.913 482.901 147.619C489.902 160.534 492.052 166.007 492.052 166.007C496.483 177.315 498.703 182.979 502.054 193.785C504.965 203.175 508.405 215.408 511.626 230.02C510.798 232.532 509.397 234.816 507.535 236.688C505.268 238.836 502.477 240.346 499.444 241.067C473.239 248.097 439.153 247.183 439.153 247.183C435.453 247.082 430.152 246.912 423.651 246.58C421.595 247.176 419.437 247.326 417.319 247.022C413.719 246.48 412.449 244.843 408.698 243.226C405.154 241.728 401.341 240.976 397.496 241.017C391.555 241.167 386.814 243.598 385.744 241.931C385.515 241.525 385.414 241.059 385.454 240.595C385.551 240.096 385.758 239.626 386.061 239.219C386.364 238.812 386.755 238.479 387.204 238.245C387.519 237.704 387.877 237.19 388.274 236.708C388.733 236.144 389.246 235.626 389.805 235.162C389.937 234.475 390.134 233.802 390.395 233.153C390.909 231.93 391.629 230.805 392.525 229.829C394.456 227.871 397.826 228.092 401.847 228.403C404.934 228.652 407.984 229.248 410.938 230.18C411.108 228.272 411.578 227.168 412.359 226.866C414.112 226.197 417.42 229.544 422.28 236.909C427.884 236.407 433.443 235.494 438.913 234.177C445.034 232.692 451.035 230.748 456.866 228.363C463.407 225.681 465.278 224.255 471.149 222.437C474.816 221.305 478.569 220.472 482.371 219.947C479.29 212.103 476.6 205.566 474.579 200.745C466.088 180.519 459.107 165.997 457.216 162.09C453.986 155.462 451.215 149.979 449.265 146.193Z" fill="white"/>
<path opacity="0.21" d="M468.669 134.604C471.769 138.028 474.626 141.665 477.22 145.49C491.913 167.152 493.703 188.493 494.873 204.913C496.174 223.11 493.433 227.097 491.873 228.875C488.372 232.842 485.052 232.29 466.128 235.282C454.506 237.13 433.963 240.796 423.541 240.836C420.156 240.831 416.773 240.637 413.409 240.253C410.879 239.932 409.479 239.55 408.268 239.44C402.282 238.894 396.246 239.425 390.445 241.007C396.193 239.985 402.107 240.462 407.618 242.393C410.895 243.556 413.967 245.234 416.72 247.364L424.451 246.239C437.183 246.922 447.965 246.902 456.167 246.681C476.84 246.139 484.672 244.301 488.172 243.367C494.755 241.645 501.14 239.238 507.225 236.186L511.306 229.508C510.876 227.549 510.196 224.486 509.306 220.841C505.063 202.704 499.473 184.912 492.583 167.614C484.582 147.75 484.502 153.394 479.671 142.919C478.822 140.94 477.54 139.179 475.92 137.767C473.834 136.071 471.327 134.977 468.669 134.604Z" fill="#474C54"/>
<path d="M448.618 146.574C460.749 170.224 471.688 194.471 481.393 219.224C481.743 220.117 483.193 219.726 482.843 218.822C473.093 193.943 462.104 169.572 449.918 145.801C449.468 144.937 448.177 145.69 448.618 146.554V146.574Z" fill="black"/>
<path d="M486.661 220.851C484.151 218.581 481.01 219.294 477.95 220.017C471.949 221.443 466.378 224.034 460.707 226.394C448.272 231.469 435.158 234.668 421.79 235.885C420.84 235.975 420.79 237.481 421.79 237.391C432.563 236.439 443.186 234.207 453.436 230.743C458.526 228.995 463.437 226.806 468.438 224.807C472.439 223.18 481.87 218.521 485.631 221.915C486.351 222.568 487.411 221.503 486.691 220.851H486.661Z" fill="black"/>
<path d="M476.102 139.635C486.474 151.917 492.195 167.393 497.466 182.387C502.729 197.416 507.013 212.774 510.288 228.363C510.488 229.307 511.938 228.915 511.738 227.961C508.204 211.124 503.488 194.559 497.626 178.39C492.505 164.33 486.914 150.12 477.162 138.57C476.542 137.837 475.482 138.902 476.102 139.635Z" fill="black"/>
<path d="M424.773 247.514C442.246 248.107 459.829 248.689 477.232 246.51C488.314 245.114 506.427 243.768 511.898 231.998C512.298 231.124 511.008 230.351 510.598 231.235C507.457 237.994 500.256 240.324 493.545 242.001C485.743 243.89 477.803 245.153 469.801 245.777C454.798 247.032 439.796 246.53 424.793 246.018C423.793 246.018 423.793 247.494 424.793 247.524L424.773 247.514Z" fill="black"/>
<path d="M423.441 245.857C416.44 248.468 411.049 242.322 404.628 240.705C398.627 239.199 391.756 240.705 385.735 241.177C384.734 241.257 384.734 242.764 385.735 242.683C394.486 241.99 402.177 240.675 410.309 244.813C414.729 247.052 418.89 249.151 423.841 247.313C424.741 246.972 424.351 245.516 423.441 245.857Z" fill="black"/>
<path d="M422.524 235.463C421.033 232.247 418.624 229.549 415.603 227.71C414.603 227.097 413.122 226.153 411.882 226.625C411.663 226.701 411.462 226.821 411.29 226.977C411.118 227.132 410.979 227.321 410.881 227.532C410.783 227.743 410.728 227.971 410.72 228.203C410.711 228.436 410.75 228.668 410.832 228.885C411.152 229.789 412.602 229.397 412.282 228.483C412.082 227.921 413.952 228.483 414.042 228.563C414.5 228.796 414.944 229.054 415.373 229.337C416.263 229.919 417.091 230.592 417.843 231.345C419.244 232.746 420.385 234.385 421.214 236.186C421.634 237.06 422.924 236.296 422.514 235.433L422.524 235.463Z" fill="black"/>
<path d="M420.38 235.624C416.934 232.055 412.567 229.52 407.767 228.303C402.968 227.086 397.925 227.236 393.205 228.734C392.285 229.026 392.685 230.482 393.605 230.191C398.074 228.748 402.856 228.592 407.408 229.74C411.961 230.889 416.101 233.296 419.36 236.688C420.04 237.381 421.1 236.317 420.42 235.624H420.38Z" fill="black"/>
<path d="M385.696 241.599C387.816 238.144 394.447 238.586 397.958 238.114C398.908 238.004 398.958 236.497 397.958 236.608C393.757 237.12 386.956 236.668 384.406 240.836C383.895 241.669 385.196 242.423 385.696 241.599Z" fill="black"/>
<path d="M387.656 238.426C391.076 235.353 395.757 235.242 400.108 235.212C400.307 235.212 400.498 235.133 400.638 234.991C400.779 234.85 400.858 234.659 400.858 234.459C400.858 234.259 400.779 234.067 400.638 233.926C400.498 233.785 400.307 233.706 400.108 233.706C395.317 233.706 390.336 233.997 386.596 237.361C385.876 238.014 386.936 239.068 387.656 238.426Z" fill="black"/>
<path d="M390.404 235.182C391.344 232.028 398.135 232.37 400.636 232.5C401.636 232.55 401.636 231.044 400.636 230.994C397.275 230.813 390.204 230.622 388.954 234.78C388.674 235.714 390.124 236.106 390.404 235.182Z" fill="black"/>
<path d="M391.745 232.169C392.033 231.445 392.582 230.857 393.284 230.523C393.985 230.19 394.786 230.135 395.526 230.371C396.446 230.672 396.846 229.216 395.926 228.925C394.805 228.585 393.597 228.691 392.551 229.22C391.505 229.749 390.701 230.66 390.305 231.767C389.965 232.681 391.415 233.073 391.745 232.169Z" fill="black"/>
<path d="M456.126 139.374C459.127 137.586 462.207 135.688 465.738 135.437C469.739 135.146 472.679 137.184 475.74 139.404C476.52 139.976 477.27 138.671 476.49 138.098C473.409 135.869 470.239 133.75 466.288 133.85C462.337 133.951 458.697 136.08 455.366 138.068C454.546 138.57 455.296 139.876 456.126 139.374Z" fill="black"/>
<path d="M377.806 94.282C376.983 99.6989 376.906 105.204 377.576 110.642C378.324 117.268 380.443 123.665 383.797 129.422C387.739 135.987 393.236 141.473 399.799 145.39C401.57 145.202 403.325 144.887 405.05 144.446C408.747 143.501 412.284 142.009 415.542 140.017C417.301 141.508 419.208 142.814 421.233 143.913C425.817 146.366 430.896 147.739 436.086 147.931C440.563 142.544 444.094 136.431 446.528 129.854C448.748 123.828 454.899 107.117 447.008 92.0626C444.127 86.5591 440.496 83.4459 436.326 79.8707C427.974 72.7202 417.052 63.3603 403.32 65.9815C388.097 68.8839 379.756 84.5004 378.316 91.4399C378.206 91.7714 378.016 92.866 377.806 94.282Z" fill="white"/>
<path opacity="0.26" d="M402.782 74.0156C409.054 79.1099 413.722 85.9187 416.223 93.6194C418.723 101.32 418.95 109.583 416.875 117.41C413.224 132.886 402.772 142.086 398.691 145.319C401.552 144.677 404.612 143.863 407.843 142.819C410.603 141.935 413.174 140.981 415.524 140.017C417.285 141.506 419.192 142.811 421.215 143.913C424 145.413 426.984 146.506 430.077 147.157C436.898 139.486 442.054 130.474 445.219 120.694C448.13 111.596 450.75 103.371 447.11 95.0854C443.379 86.5992 435.168 82.8332 427.746 79.4387C419.9 75.8801 411.392 74.0317 402.782 74.0156Z" fill="#474C54"/>
<path d="M378.298 91.4599C384.028 82.6269 392.185 75.6505 401.782 71.3743C402.498 73.5253 403.402 75.6089 404.482 77.6008C411.213 89.9434 423.215 95.3866 429.066 97.596C431.427 94.6535 435.067 93.4182 437.988 94.4727C441.628 95.7883 442.569 100.006 442.819 101.151C443.353 103.746 442.952 106.447 441.688 108.774C439.488 112.63 434.827 114.799 429.806 114.418C428.336 115.422 421.665 120.212 420.105 129.02C418.494 138.058 423.255 146.625 429.806 151.204C433.886 153.961 438.713 155.388 443.629 155.291C448.546 155.194 453.313 153.578 457.281 150.662C464.832 145.078 466.383 136.602 466.703 134.594C472.604 139.123 479.975 139.836 484.926 136.602C490.687 132.816 491.767 124.551 490.137 118.987C487.526 110.019 478.875 110.953 464.552 96.2904C459.311 90.9376 456.921 88.1156 454.191 83.7571C447.689 73.3427 448.36 66.6843 438.188 61.3918C418.384 51.0879 396.281 61.0202 393.73 62.2053C382.494 67.5676 373.311 76.4682 367.576 87.5532C369.818 94.1642 370.835 101.132 370.576 108.111C369.976 121.809 364.575 125.856 364.645 138.41C364.645 143.662 364.735 155.834 373.267 163.296C382.018 170.938 398.601 172.696 408.023 163.025C416.304 154.518 414.284 142.075 414.024 140.599L400.491 145.44C395.425 142.643 390.942 138.892 387.289 134.393C373.507 117.25 377.477 95.5272 378.298 91.4599Z" fill="#007BFF"/>
<path d="M377.547 91.4599C375.036 111.987 380.217 134.031 398.32 145.972C399.12 146.504 399.88 145.199 399.07 144.666C381.427 133.037 376.606 111.415 379.067 91.4398C379.187 90.4355 377.687 90.4958 377.567 91.4398L377.547 91.4599Z" fill="black"/>
<path d="M399.782 146.143C407.371 145.314 414.495 142.061 420.106 136.863C420.816 136.211 419.756 135.146 419.036 135.799C413.722 140.733 406.975 143.83 399.782 144.637C398.832 144.747 398.782 146.253 399.782 146.143Z" fill="black"/>
<path d="M391.591 98.1182C391.777 106.669 392.765 115.182 394.542 123.547C394.579 123.673 394.648 123.787 394.742 123.879C394.836 123.971 394.952 124.037 395.079 124.07C395.205 124.103 395.339 124.103 395.465 124.07C395.592 124.036 395.708 123.97 395.802 123.878C397.336 122.214 398.738 120.431 399.993 118.545C400.533 117.742 399.233 116.979 398.702 117.782C397.501 119.558 396.164 121.237 394.702 122.803L395.952 123.135C394.202 114.903 393.231 106.523 393.051 98.1082C393.051 97.1039 391.521 97.1039 391.551 98.1082L391.591 98.1182Z" fill="black"/>
<path d="M395.759 129.673C398.794 129.803 401.822 129.3 404.653 128.198C407.485 127.095 410.058 125.416 412.212 123.265C412.902 122.582 411.842 121.518 411.152 122.201C409.145 124.213 406.742 125.783 404.097 126.81C401.452 127.837 398.622 128.299 395.789 128.166C394.789 128.166 394.789 129.632 395.789 129.673H395.759Z" fill="black"/>
<path d="M382.358 92.1026C382.71 91.5964 383.18 91.1847 383.727 90.9036C384.274 90.6225 384.881 90.4807 385.496 90.4906C386.11 90.5005 386.712 90.6619 387.25 90.9605C387.788 91.2591 388.244 91.6857 388.579 92.203C389.12 92.9964 390.42 92.203 389.88 91.4397C389.429 90.724 388.813 90.1279 388.085 89.7021C387.356 89.2763 386.535 89.0334 385.693 88.994C384.851 88.9546 384.011 89.1198 383.246 89.4756C382.481 89.8315 381.813 90.3674 381.298 91.038C380.718 91.7912 381.768 92.8658 382.358 92.1026Z" fill="black"/>
<path d="M401.21 91.2591C402.471 90.0391 404.129 89.319 405.878 89.2322C407.627 89.1454 409.348 89.6978 410.722 90.7871C411.472 91.3896 412.542 90.3251 411.792 89.7225C410.129 88.3587 408.027 87.6536 405.882 87.7406C403.737 87.8276 401.698 88.7005 400.15 90.1945C399.46 90.8674 400.52 91.932 401.21 91.2591Z" fill="black"/>
<path d="M429.595 98.0781C431.665 96.1499 434.085 94.7037 436.976 95.0653C441.167 95.5975 442.157 99.3033 442.117 102.798C442.047 109.025 438.326 112.369 432.325 112.781C431.325 112.841 431.325 114.347 432.325 114.287C440.376 113.735 444.857 108.061 443.437 99.9561C442.017 91.8516 433.435 92.3939 428.534 96.9433C427.824 97.6061 428.894 98.6706 429.595 98.0178V98.0781Z" fill="black"/>
<path d="M386.837 108.231C387.561 108.231 388.147 106.532 388.147 104.435C388.147 102.339 387.561 100.639 386.837 100.639C386.114 100.639 385.527 102.339 385.527 104.435C385.527 106.532 386.114 108.231 386.837 108.231Z" fill="black"/>
<path d="M405.091 107.659C405.815 107.659 406.401 105.959 406.401 103.863C406.401 101.766 405.815 100.066 405.091 100.066C404.368 100.066 403.781 101.766 403.781 103.863C403.781 105.959 404.368 107.659 405.091 107.659Z" fill="black"/>
<path d="M408.003 111.756H407.863C407.664 111.756 407.474 111.836 407.333 111.977C407.192 112.118 407.113 112.31 407.113 112.51C407.113 112.709 407.192 112.901 407.333 113.042C407.474 113.183 407.664 113.263 407.863 113.263H408.003C408.202 113.263 408.393 113.183 408.534 113.042C408.674 112.901 408.753 112.709 408.753 112.51C408.753 112.31 408.674 112.118 408.534 111.977C408.393 111.836 408.202 111.756 408.003 111.756Z" fill="black"/>
<path d="M414.414 109.547C414.613 109.547 414.804 109.468 414.944 109.326C415.085 109.185 415.164 108.993 415.164 108.794C415.164 108.594 415.085 108.402 414.944 108.261C414.804 108.12 414.613 108.041 414.414 108.041C414.215 108.041 414.024 108.12 413.884 108.261C413.743 108.402 413.664 108.594 413.664 108.794C413.664 108.993 413.743 109.185 413.884 109.326C414.024 109.468 414.215 109.547 414.414 109.547Z" fill="black"/>
<path d="M414.555 115.673C414.754 115.673 414.944 115.594 415.085 115.452C415.226 115.311 415.305 115.119 415.305 114.92C415.305 114.72 415.226 114.528 415.085 114.387C414.944 114.246 414.754 114.167 414.555 114.167C414.356 114.167 414.165 114.246 414.024 114.387C413.884 114.528 413.805 114.72 413.805 114.92C413.805 115.119 413.884 115.311 414.024 115.452C414.165 115.594 414.356 115.673 414.555 115.673Z" fill="black"/>
<path d="M414.995 140.549C419.065 143.761 423.606 146.319 428.457 148.131C429.358 148.473 429.748 147.017 428.848 146.675C424.237 144.956 419.921 142.527 416.055 139.475C415.305 138.892 414.235 139.947 414.995 140.549Z" fill="black"/>
</g>
<defs>
<clipPath id="clip0_2124_17078">
<rect width="580" height="540" fill="white"/>
</clipPath>
</defs>
</svg>
