<svg width="202" height="254" viewBox="0 0 202 254" fill="none" xmlns="http://www.w3.org/2000/svg">
<path d="M153.386 67.3821C154.717 67.7254 155.998 67.8747 156.21 70.2931C156.318 71.5249 157.627 71.6509 158.593 71.6842C160.326 71.7442 160.779 72.0999 160.676 74.062C160.593 75.6465 160.996 76.1153 162.162 76.2458C163.698 76.4174 165.137 76.9735 166.753 76.1843C168.208 75.4743 169.04 76.4115 169.731 78.6364C169.877 79.1077 170.087 79.7363 170.521 79.3965C172.497 77.8477 174.857 79.0542 176.975 77.6874C178.382 76.7796 180.386 77.1908 181.797 78.9133C182.48 79.7462 183.289 80.1466 184.136 79.4143C185.034 78.6379 185.778 79.3523 186.24 79.9561C187.708 81.8735 189.366 81.3034 191.05 80.8957C191.275 80.8411 191.494 80.7379 191.715 80.6575C192.63 80.3246 191.773 82.9912 192.798 81.8546C193.341 81.2524 193.721 81.1263 194.336 81.0316C197.136 80.5995 199.2 82.6161 201.347 84.4035L200.32 87.4669C200.246 87.4429 200.171 87.4209 200.096 87.4009C199.487 87.2397 198.931 85.8864 198.748 86.2564C198.368 87.0204 197.604 87.6738 197.704 88.7424C197.831 90.1136 197.297 90.4375 196.341 90.4956C195.489 90.5472 194.619 90.7387 193.96 91.5934C193.423 92.2904 192.786 92.3043 192.025 92.2671C190.057 92.1709 188.997 93.3575 188.751 95.8911C188.498 98.4896 186.588 99.4223 185.577 101.252C185.251 101.844 184.958 101.077 184.782 100.683C183.98 98.8781 184.477 97.2003 185.193 95.6167C185.539 94.8508 186.095 94.2416 186.534 93.5386C186.8 93.1125 187.493 92.8386 187.178 92.1758C186.898 91.5895 186.257 91.4302 185.7 91.4486C185.005 91.4719 184.535 92.0771 184.215 92.7642C183.657 93.9618 182.999 93.7857 182.032 93.5654C179.51 92.9914 176.9 92.6556 175.143 95.8693C174.678 96.7201 173.24 96.8441 173.678 98.2257C174.091 99.526 175.363 98.6657 176.224 99.0026C176.861 99.2511 177.718 98.9723 177.747 100.06C177.777 101.233 178.717 102.546 177.669 103.59C177.343 103.915 177.05 104.112 177.005 104.665C176.983 104.943 176.991 105.364 176.723 105.363C176.469 105.362 176.497 104.946 176.471 104.679C176.452 104.481 176.465 104.28 176.447 104.082C176.397 103.526 176.589 102.924 176.25 102.425C176.132 102.987 176.091 103.602 175.881 104.102C174.882 106.492 173.818 108.749 171.483 109.469C169.344 110.127 169.131 110.684 169.646 113.427C169.833 114.427 169.837 115.279 168.993 115.633C168.177 115.974 167.922 115.012 167.641 114.345C167.423 113.831 167.302 113.227 167.231 112.645C167.127 111.792 166.755 111.715 166.232 111.96C165.825 112.15 165.393 112.793 165.021 112.031C164.765 111.504 164.602 111.156 164.232 111.816C164.01 112.212 163.661 112.699 163.705 113.084C163.799 113.921 164.288 113.243 164.606 113.283C165.515 113.396 166.371 113.533 165.177 114.894C164.635 115.511 164.797 116.319 164.921 117.124C165.556 121.239 164.167 124.279 161.092 125.674C160.324 126.022 159.364 125.963 159.032 127.338C158.821 128.215 158.505 128.141 158.198 127.263C157.827 126.202 157.272 126.881 156.855 127.251C156.29 127.754 156.281 128.384 156.805 128.988C157.038 129.256 157.287 129.503 157.505 129.789C158.99 131.741 158.467 134.474 156.447 135.494C155.89 135.775 155.804 135.292 155.581 134.89C154.975 133.797 153.928 132.507 153.149 133.402C152.144 134.557 153.207 135.929 154.006 136.901C154.595 137.616 155.287 138.476 155.138 139.405C154.796 141.529 156.278 142.821 156.372 144.703C156.414 145.551 157.058 145.678 157.593 145.867C159.164 146.42 160.627 147.563 162.362 147.219C162.661 147.16 163.1 147.312 163.121 147.72C163.153 148.298 162.68 148.132 162.403 148.163C160.423 148.389 158.396 147.966 156.615 147.243C155.242 146.686 154.08 144.68 153.188 143.006C152.448 141.612 151.635 140.281 150.756 139.023C150.499 138.655 150.019 138.423 150.329 137.867C150.68 137.24 151.191 137.487 151.554 137.893C152.082 138.483 152.542 139.169 153.037 139.807C153.201 140.018 153.436 140.249 153.634 140.036C153.867 139.787 153.618 139.517 153.496 139.3C152.207 137.01 151.724 134.47 151.901 131.67C151.967 130.627 151.832 129.582 150.613 129.916C149.564 130.204 149.591 128.932 149.227 128.278C147.698 125.529 147.13 125.459 145.165 127.687C144.714 128.198 144.22 128.648 143.726 129.093C142.029 130.622 141.582 132.888 142.454 135.403C142.632 135.918 143.07 136.489 142.587 137.011C142.141 137.492 141.766 136.883 141.342 136.699C139.384 135.849 138.646 133.778 138.377 131.549C137.976 128.228 136.008 126.309 134.602 123.877C134.241 123.252 133.702 123.12 133.136 123.108C132.429 123.092 131.717 123.013 131.017 123.099C130.582 123.153 130.167 123.073 129.759 122.959C129.062 122.766 128.648 123.903 129.217 124.45C129.488 124.711 129.782 124.949 130.033 125.232C130.484 125.741 130.02 126.049 129.888 126.481C129.059 129.212 126.989 129.915 125.212 130.952C124.1 131.6 123.047 132.581 121.747 132.678C121.505 132.696 121.265 132.857 121.265 133.207C121.265 133.68 121.56 133.908 121.873 133.944C122.67 134.035 123.371 133.484 124.133 133.329C125.194 133.115 125.705 134.029 125.232 135.254C124.299 137.671 123.099 139.901 121.38 141.601C118.748 144.204 118.498 145.267 119.485 149.166C120.258 152.221 120.168 152.682 118.07 154.703C117.269 155.474 116.583 156.181 116.981 157.641C117.139 158.219 117.177 159.008 116.801 159.338C115.296 160.658 114.803 162.854 113.858 164.64C112.339 167.511 110.011 167.373 107.771 167.589C107.069 167.657 106.54 166.773 106.469 166.082C106.212 163.595 105.241 161.331 104.568 159.138C103.533 155.763 102.756 152.854 103.793 149.295C104.091 148.274 103.699 146.586 103.17 145.594C102.283 143.932 101.861 142.257 101.902 140.301C101.915 139.678 101.648 138.902 101.154 138.994C99.8055 139.243 98.7117 137.665 97.582 137.988C96.3144 138.351 94.9266 138.034 93.7617 138.954C92.9793 139.572 92.2871 139.324 91.5746 138.729C89.7855 137.236 88.7719 134.793 87.2109 133.021C87.0473 132.835 86.9484 132.47 86.9875 132.195C87.5242 128.421 86.4977 124.081 89.3019 121.119C90.6652 119.68 91.2035 117.474 92.5152 115.998C93.066 115.379 93.0914 114.54 92.2543 114.125C91.6961 113.848 91.1141 113.45 91.2957 112.684C91.5984 111.409 91.0156 110.064 91.5246 108.897C91.9816 107.85 92.8691 108.04 93.6465 108.093C95.9633 108.249 96.175 108.024 95.7633 105.023C95.5891 103.752 95.8273 103.159 96.6824 102.374C97.6742 101.462 98.6219 100.402 99.6301 99.4972C101.252 98.0417 101.435 97.4761 100.277 95.2655C99.9144 94.574 99.6793 93.8973 99.5363 93.1184C99.1387 90.9485 99.4066 90.0149 101.02 89.0524C102.145 88.3812 102.989 87.5026 103.484 86.0347C104.343 83.4843 106 82.0387 107.96 81.0802C108.765 80.6868 109.605 80.4125 110.416 80.0349C111.859 79.3622 113.092 79.0512 114.4 80.8098C115.262 81.9672 116.905 81.7891 118.045 82.7277C118.433 83.0472 119.035 83.1023 119.278 83.522C120.227 85.1626 120.923 86.0119 121.462 83.1737C121.586 82.5223 122.405 82.3051 122.848 82.9738C123.52 83.9903 124.125 83.7522 124.887 83.1931C126.166 82.2555 127.65 82.7307 129.027 82.3899C130.489 82.0282 129.53 81.228 129.341 80.538L129.368 80.4968C130.518 80.7959 131.662 81.1368 132.82 81.3769C133.432 81.5039 133.864 81.5227 134.054 80.3048C134.467 77.6611 135.402 77.1626 137.687 77.4359C138.505 77.5336 139.296 77.3545 140.124 77.8194C140.603 78.0878 141.461 77.9697 141.594 76.8902C141.779 75.3846 142.385 75.5785 143.278 75.9109C144.104 76.218 145.23 76.7434 145.219 74.6265C145.216 74.0719 145.755 73.9707 146.135 73.8655C147.801 73.4041 149.355 72.4328 151.151 72.5345C152.8 72.6278 153.245 71.2372 152.359 69.2404C152.845 68.7513 153.124 68.0751 153.386 67.3821ZM100.535 108.611C98.7965 109.001 97.6168 110.333 96.9086 112.252C96.5625 113.19 96.2609 114.032 95.4957 114.494C95.2406 114.647 94.7234 114.559 94.7859 114.982C94.8348 115.311 95.3566 115.242 95.6363 115.118C97.0379 114.498 98.4328 113.917 99.9352 113.751C100.756 113.66 101.493 113.81 102.208 114.226C102.911 114.634 102.821 115.479 102.859 116.281C102.89 116.904 103.274 117.423 103.765 117.455C105.338 117.558 106.837 119.252 108.504 117.776C108.761 117.548 109.32 117.595 109.634 117.79C111.367 118.871 113.221 118.121 115.003 118.432C115.876 118.584 116.186 117.499 116.353 116.695C116.557 115.711 115.929 115.691 115.325 115.638C114.802 115.591 114.26 115.036 113.785 115.139C112.149 115.494 111.429 114.632 111.325 112.637C111.305 112.234 111.112 111.85 110.718 111.919C110.453 111.966 110.476 112.336 110.375 112.581C109.796 113.997 108.296 114.24 107.579 113.035C107.362 112.67 107.343 111.701 107.027 111.903C105.398 112.94 104.678 111.02 103.593 110.353C102.88 109.915 102.437 109.754 102.366 111.068C102.328 111.767 102.02 112.65 101.399 112.417C100.507 112.084 101.299 111.299 101.337 110.706C101.396 109.817 101.902 108.635 100.535 108.611ZM106.749 97.7276C107.835 97.7996 107.745 97.7271 108.186 96.8446C109.221 94.7714 108.811 92.722 108.27 90.6573C108.118 90.0764 108.179 89.0033 107.341 89.3828C106.702 89.6721 106.303 90.6156 106.716 91.3295C108.114 93.7445 106.275 94.9103 105.523 96.3708C105.052 97.2841 104.107 98.2103 103.309 96.4854C103.192 96.2329 102.923 96.0285 102.734 96.2666C102.598 96.4373 102.544 96.8257 102.582 97.0872C102.831 98.8007 103.894 98.4356 104.803 98.4385C105.504 98.441 105.948 97.294 106.749 97.7276ZM119.665 109.783C119.334 108.144 117.503 108.285 117.232 106.404C117.17 105.975 116.709 107.063 116.38 107.379C115.86 107.878 115.334 108.028 115.012 107.206C114.748 106.534 114.465 106.13 114.006 106.744C113.482 107.445 112.861 108.169 112.962 109.302C113.026 110.022 113.462 110.433 113.941 110.3C115.444 109.884 116.836 110.151 118.255 110.861C118.85 111.157 119.501 110.801 119.665 109.783ZM118.184 125.346C117.692 125.481 117.673 125.935 117.647 126.432C117.571 127.879 118.391 128.721 118.993 129.707C119.267 130.154 119.548 130.953 120 130.708C120.652 130.355 120.241 129.542 120.118 128.927C119.884 127.761 119.206 126.907 118.732 125.911C118.623 125.682 118.388 125.55 118.184 125.346ZM0.585938 99.7547C2.55039 98.2247 4.53945 96.7617 6.73828 95.8192C7.01875 95.6991 7.40859 95.4783 7.37812 95.0477C7.34297 94.5491 6.86914 94.7659 6.6207 94.5804C5.60859 93.8244 4.55937 93.1343 3.6 92.2815C2.41484 91.2278 2.46992 90.3557 3.69023 89.4116C3.95352 89.2077 4.26328 89.102 4.55 88.9453C4.87852 88.7652 5.54727 88.8892 5.41602 88.2736C5.30078 87.7328 4.7293 88.2438 4.36172 88.2175C4.05273 88.1957 3.7207 88.218 3.44219 88.0796C2.90508 87.8127 2.43125 87.3042 2.52734 86.5283C2.64961 85.5406 3.34023 85.4642 3.9875 85.4548C4.27578 85.4503 4.68906 85.8794 4.81719 85.421C4.93633 84.9954 4.44258 84.9274 4.19375 84.7225C2.33477 83.1896 2.3418 82.8145 4.21445 81.4339C4.68828 81.0847 5.13203 80.6556 5.6293 80.3763C7.04297 79.5825 8.37148 79.1018 10.0398 79.8469C11.848 80.6546 13.8816 80.6074 15.7891 81.107C18.1555 81.7266 20.4023 81.741 22.8156 80.9621C25.1336 80.214 27.6184 80.7706 29.9434 81.809C30.2227 81.9335 30.5809 82.247 30.798 81.8353C30.9945 81.4627 30.7547 81.0584 30.4918 80.8336C30.0992 80.4988 29.7402 80.2175 29.6406 79.523C29.5277 78.7362 29.1613 78.5605 28.6836 79.2129C28.1172 79.9863 27.4355 79.9724 26.7402 79.588C26.0285 79.1946 25.4844 78.6171 25.977 77.5267C26.2527 76.916 26.5547 76.3584 26.5215 75.6048C26.4746 74.5476 27.2023 74.315 27.6172 74.6533C28.952 75.7407 30.6254 75.138 31.9812 76.4685C33.0961 77.5629 34.6355 77.8839 36.1063 76.7453C36.9551 76.0885 37.8508 75.9432 37.6652 77.8814C37.5934 78.634 37.7922 79.4555 38.2312 79.7507C39.4367 80.5608 40.448 81.1854 38.732 82.7704C38.3723 83.1028 38.6398 83.7288 39.0875 83.8901C39.6211 84.0821 40.3863 84.2155 40.4477 83.3513C40.5195 82.3388 40.7961 81.7891 41.4184 81.2052C42.4336 80.2527 42.2629 79.6713 40.959 79.6539C39.8996 79.6395 39.5367 78.2455 38.7395 77.6904C39.668 77.4781 40.0328 76.0637 41.034 75.9764C41.5789 75.9288 42.1187 75.7789 42.6598 75.6658C43.4316 75.5046 43.9602 75.0164 44.0738 73.9637C44.1316 73.4299 44.1012 72.9378 43.6047 72.8123C42.8965 72.6337 42.2738 72.0989 41.6348 73.4012C40.7324 75.2392 38.9445 73.7008 37.6949 74.5427L37.3711 73.4538C37.5668 73.1898 37.5887 72.9264 37.3703 72.663C37.5309 71.6043 36.9258 70.6498 37.3301 69.4627C38.0082 67.4714 38.1785 67.268 39.5457 68.3683C39.9535 68.6967 40.4754 69.0668 40.316 69.7043C40.1023 70.5566 39.534 69.8343 39.1277 69.869C38.6234 69.9121 38.1379 69.9697 38.1324 70.7734C38.127 71.5641 38.5867 71.7045 39.107 71.7006C39.6551 71.6966 40.2047 71.765 40.7508 71.7278C41.7582 71.6594 42.3469 71.2253 41.5371 69.9002C41.1848 69.3233 40.7324 68.6863 41.3133 68.1039C41.918 67.4972 42.3375 68.3787 42.6305 68.848C42.923 69.3168 43.9492 69.3163 43.3418 70.6047C43.1578 70.9951 44.1316 71.2615 44.6289 71.4173C44.8668 71.4917 45.1008 71.3072 45.1602 70.9703C45.2805 70.2862 45.0238 69.8303 44.5637 69.5202C44.4908 69.4733 44.4209 69.4193 44.3547 69.3585C41.4484 66.6459 41.4832 65.7951 44.6039 63.4624C45.1438 63.0579 45.7288 62.7595 46.3391 62.5774C49.5336 61.61 52.8074 61.3307 56.0496 60.849C57.4047 60.6476 58.8402 61.237 60.2301 61.5371C60.7582 61.6512 61.6812 61.928 61.6941 62.1895C61.732 62.9495 60.9008 62.9217 60.5293 63.4069C60.3184 63.6827 59.925 63.8791 60.1348 64.3425C60.3742 64.8708 60.9043 64.8961 61.1332 64.5062C62.4969 62.186 64.3988 62.7729 66.2695 62.625C67.7918 62.505 69.3293 62.2505 70.8937 61.5669C72.6164 60.8138 74.6711 60.5955 76.6066 60.3986C76.9945 60.3594 77.4934 60.6392 77.7644 60.4199C80.1059 58.5288 82.0637 61.3431 84.2496 61.2092C84.5101 61.1933 84.7109 61.4731 84.6273 61.805C84.5648 62.053 84.3625 62.4092 84.2035 62.4256C83.1113 62.5392 82.0137 62.569 80.9184 62.6439C80.6926 62.6593 80.4699 62.7535 80.2457 62.8116C80.3785 63.2982 80.7191 63.132 80.9664 63.1315C83.3059 63.1246 85.641 63.5443 87.9879 63.1871C88.5578 63.1003 89.384 62.9971 89.4961 64.086C89.5844 64.9428 88.8672 65.105 88.4008 65.4299C86.7242 66.5987 84.8547 67.6266 86.1391 70.8165C86.2996 71.2149 85.8828 71.583 85.8898 71.8925C85.9531 74.6434 84.0598 76.7935 84.4641 79.6614C84.5777 80.468 84.1789 81.3094 83.5332 81.5624C82.1227 82.1151 81.0254 83.6941 79.4145 83.5666C79.2621 83.5547 79.0734 83.5681 78.9555 83.6708C76.6492 85.674 73.5781 86.6245 72.8059 90.7565C72.5125 92.3257 71.7891 92.5216 70.6855 92.1208C68.9375 91.4858 68.073 89.7966 67.1949 87.9729C66.2851 86.0833 65.8906 84.3728 67.284 82.5982C67.5016 82.3214 67.4863 81.9742 67.182 81.6125C66.4871 80.787 65.259 78.0823 65.0746 77.1829C64.5094 74.4236 62.3461 72.1709 60.2027 72.8981C57.8344 73.7018 56.982 71.6996 55.7926 70.115C55.309 69.4711 55.7328 69.0207 56.1699 68.7433C56.7953 68.346 57.532 68.3485 58.1379 67.7993C58.6289 67.3543 58.6621 66.9743 58.4117 66.3194C58.1477 65.6284 57.8242 65.8715 57.4664 66.0535C55.3379 67.136 53.4488 68.4621 52.75 71.6068C52.516 72.661 51.8605 73.5212 51.6457 74.7287C51.4609 75.7675 50.3406 75.5309 49.5852 75.6867C49.3098 75.7437 48.8328 75.4128 48.8086 75.897C48.7906 76.2562 49.3629 76.0845 49.6082 76.2636C51.3059 77.5009 53.4113 76.7478 55.1059 78.306C56.4551 79.5468 58.0449 80.1972 58.7016 82.5298C59.0219 83.6683 60.2637 84.0801 61.1988 84.5792C61.6359 84.8123 62.2699 84.9924 61.7926 85.7103C61.4188 86.2723 61.2414 87.6202 60.2414 86.9505C59.9047 86.7248 59.6539 86.2956 59.3566 85.9702C59.184 85.7812 58.95 85.5287 58.7582 85.742C58.5465 85.9771 58.7527 86.2698 58.9 86.4827C59.107 86.7823 59.3602 87.0358 59.5437 87.3548C59.8789 87.9372 60.757 88.4819 60.0699 89.2841C59.5516 89.8898 58.8988 90.8647 58.0211 90.3418C56.2918 89.3124 54.7426 87.6544 52.6242 88.1327C52.4234 88.1778 52.2262 87.84 52.2227 87.515C52.2184 87.1514 52.4223 87.0026 52.6773 86.9768C53.0676 86.9371 53.4805 87.0095 53.8453 86.8716C54.8469 86.4926 55.4621 84.9205 55.1055 83.7874C54.691 82.4713 52.1801 80.9408 50.9914 81.1139C50.1488 81.237 50.6988 81.6582 50.6418 82.1131C50.4812 83.395 51.2855 85.4265 49.1371 85.5361C48.3742 85.5753 48.9781 86.3735 49.2855 86.7352C49.8441 87.3925 51.1508 87.4962 50.9977 88.4536C50.8519 89.3665 49.5781 88.0394 48.9324 88.9691C48.6637 89.356 48.1625 89.3962 47.8414 89.0633C46.5812 87.7576 45.8203 89.113 45.0156 89.9226C42.6219 92.3316 42.7207 93.6631 45.4996 95.3637C46.1281 95.7482 46.7074 96.3267 47.3801 96.5345C49.1324 97.0768 50.6254 97.9062 51.0656 100.452C51.1434 100.901 51.5793 101.713 52.1062 101.085C52.3961 100.739 52.398 100.163 52.1742 99.7457C51.4879 98.4658 51.6176 97.6165 52.7949 96.9622C53.3203 96.6704 53.1605 95.902 52.9406 95.3687C52.5496 94.4212 52.6996 93.4215 52.6637 92.4378C52.5723 89.9151 53.6879 88.9919 55.4766 90.1905C56.1566 90.6464 56.9391 91.1812 57.3199 91.9595C57.959 93.2658 58.4613 93.9429 59.698 92.9691C60.5019 92.3361 61.0738 93.3079 61.3336 94.0987C61.902 95.8286 62.9414 96.9428 63.9992 98.1369C64.8047 99.0462 66.0793 99.8628 65.3207 101.809C65.0754 102.438 65.6293 102.576 65.9328 102.836C66.4602 103.288 66.9535 103.789 67.0707 104.651C67.1246 105.047 66.9227 105.746 66.8844 105.709C66.0211 104.86 64.9902 105.668 64.141 105.236C63.5684 104.944 63.5363 104.173 63.7508 103.421C64.0801 102.265 63.6031 102.295 62.925 102.508C62.4742 102.65 61.9773 102.741 61.5246 102.654C59.8926 102.342 59.9844 103.047 60.4805 104.7C60.9207 106.167 61.3715 106.052 62.1926 105.463C62.5766 105.188 62.9809 105.25 63.1605 105.822C63.3312 106.365 63.0648 107.001 62.7387 107.068C61.5148 107.32 60.5156 109.192 59.0617 107.876C58.6242 107.48 57.8891 107.78 57.8141 108.222C57.5172 109.977 56.3531 110.439 55.393 111.244C55.2117 111.396 55.0793 111.707 55 111.979C54.2934 114.399 53.2836 116.471 51.6094 118.097C50.7586 118.924 50.7035 120.361 51.5766 121.549C52.0051 122.132 52.1262 122.937 51.5488 123.356C50.9769 123.772 50.8965 122.729 50.5531 122.407C50.1871 122.063 49.8777 121.564 49.6457 121.057C48.9617 119.565 47.9113 119.404 46.7926 119.86C46.1078 120.139 45.4465 120.349 44.7328 120.35C43.3281 120.351 42.0742 120.263 42.4 123.055C42.5215 124.096 41.3488 125.266 42.4215 126.595C43.2027 127.563 43.9086 128.023 44.8941 127.241C45.2266 126.978 45.5375 126.669 45.8738 126.413C46.3637 126.041 46.973 125.755 47.4402 126.123C48.157 126.687 47.4551 127.397 47.2656 127.887C46.6562 129.465 46.7762 130.282 48.3359 130.266C49.168 130.257 49.6324 130.964 49.6516 132.003C49.6695 132.976 49.3445 134.2 50.3246 134.576C51.3469 134.968 52.6445 135.101 53.4422 134.291C55.1594 132.548 56.8512 132.918 58.6973 133.652C59.1937 133.85 59.7094 133.943 60.2285 133.986C63.223 134.237 64.8711 137.829 67.6203 138.677C68.5578 142.798 71.9082 142.161 74.0652 143.872C74.6242 144.315 75.3422 144.543 75.9469 145.017C77.1129 145.932 77.4344 147.106 76.5496 148.484C75.6648 149.863 75.4359 151.478 75.0594 153.111C74.4402 155.794 74.059 158.894 71.0215 159.138C70.2027 159.204 69.7773 160.182 69.5352 161.226C68.5633 165.417 68.2121 165.859 64.6469 167.608C64.3703 167.744 64.2902 167.883 64.3809 168.206C64.941 170.197 63.8672 170.739 62.7309 170.874C61.6687 171.001 61.6145 172.122 61.193 172.853C60.4352 174.166 60.2586 175.954 59.1289 176.997C59.0586 177.062 59.1375 177.639 59.2723 177.77C60.0027 178.482 59.6789 178.941 59.2145 179.682C57.6738 182.143 57.7016 182.278 59.0852 184.838C59.3063 185.247 59.7336 185.551 59.0395 185.848C57.1629 186.649 55.4012 185.541 54.6902 183.168C54.1355 181.318 54.1027 179.296 54.4902 177.566C55.2992 173.953 55.1812 170.199 55.8687 166.536C56.3949 163.732 56.8195 160.612 56.8547 157.559C56.8769 155.649 56.2769 154.178 55.0855 153.283C53.7668 152.293 53.0277 150.902 52.5309 149.169C52.3988 148.708 52.1617 148.297 51.9949 147.851C51.5547 146.673 49.8055 146.283 50.8094 144.197C51.3523 143.069 51.1137 141.428 52.1141 140.495C52.7582 139.895 52.791 139.021 52.8281 138.093C52.868 137.102 52.6797 136.693 51.8207 136.587C50.2672 136.395 48.6387 136.182 48.2559 133.605C48.1727 133.045 47.6445 132.983 47.2949 132.893C45.4902 132.427 44.0668 130.906 41.9809 130.809C40.2203 130.728 37.8477 129.593 36.9543 126.615C36.5598 125.3 36.1184 124.344 34.4859 124.764C33.1508 125.107 32.2844 122.974 31.8313 121.429C31.1246 119.02 30.1172 117.171 28.4855 115.513C26.7219 113.72 26.2375 110.775 26.282 107.913C26.3125 105.958 26.4293 104.107 24.773 103.043C24.4203 102.816 24.2758 102.451 24.227 101.866C24.0328 99.5443 23.8828 99.4143 21.9414 99.2184C21.3168 99.1554 21.3414 98.4817 21.1117 97.9906C19.6996 94.9733 17.9062 92.7394 14.9098 92.3281C13.8238 92.1788 13.157 92.8902 12.2902 93.103C11.3703 93.3288 10.2754 92.7841 10.8801 94.9555C11.0586 95.5974 10.2668 96.5692 9.61914 96.3033C8.43516 95.8167 7.87109 96.6223 7.26406 97.5778C7.11953 97.8055 6.93516 98.1562 6.76055 98.1647C4.61523 98.2684 2.8418 100.075 0.723437 100.272L0.585938 99.7547ZM45.1832 77.482C44.7984 77.5644 44.4141 77.6606 44.1473 78.0669C43.843 78.5303 43.9574 79.0165 44.2117 79.4044C45.0352 80.66 45.6473 82.2158 47.1039 82.5898C47.3867 82.6622 47.0305 83.7551 47.6402 83.5641C47.9379 83.4714 48.2445 82.9108 48.3523 82.4827C48.4914 81.9305 48.0957 81.5455 47.7269 81.43C46.4633 81.0341 46.0172 79.8975 45.8816 78.4112C45.8352 77.9037 45.7133 77.4314 45.1832 77.482Z" fill="url(#paint0_linear_3191_3182)"/>
<path d="M176.453 155.382C176.432 153.919 176.475 152.665 175.238 152.286C175.087 152.24 174.812 152.136 174.816 152.091C175.09 149.064 172.99 149.552 171.771 148.732C171.501 148.551 171.275 148.242 171.062 147.952C170.683 147.433 170.242 146.795 170.68 146.127C171.193 145.344 172.013 145.605 172.287 146.309C172.862 147.782 173.575 147.345 174.561 147.234C176.744 146.989 178.495 148.473 179.685 150.661C180.147 151.511 181.445 152.463 181.043 153.027C180.402 153.924 179.577 152.552 178.849 152.086C178.263 151.711 177.752 151.897 177.366 152.467C176.934 153.103 177.221 153.733 177.466 154.394C178.658 157.616 180.412 160.351 182.086 163.157C183.645 165.769 183.732 167.211 182.482 170.056C182.252 170.582 182.015 171.104 181.818 171.651C180.309 175.857 177.808 176.375 175.243 173.289C174.029 171.829 172.567 170.686 171.162 169.507C170.285 168.772 169.387 169.125 168.502 169.75C167.063 170.767 165.556 171.489 163.871 171.701C162.03 171.932 162.009 172.065 161.75 169.699C161.527 167.664 160.57 165.889 160.791 163.646C160.968 161.856 161.499 160.967 162.803 160.497C163.88 160.108 164.89 159.859 165.412 158.001C165.701 156.97 167.228 155.937 168.498 156.013C169.238 156.057 169.653 155.911 170.023 155.112C170.604 153.857 171.603 153.997 172.549 154.087C173.164 154.146 173.681 154.503 173.529 155.389C173.187 157.388 174.2 158.055 175.357 157.975C176.685 157.882 176.327 156.249 176.453 155.382ZM104.991 70.5023C104.234 70.7395 103.204 69.7135 102.723 71.1874C102.23 72.701 103.603 73.0959 103.936 74.1312C104.122 74.7077 104.522 75.0326 104.891 75.4052C105.557 76.0769 106.262 76.1801 106.692 75.2177C107.355 73.7344 108.074 73.7086 109.041 74.6645C109.292 74.9121 109.643 74.8585 109.908 74.5802C110.106 74.3724 110.214 73.9909 110.017 73.8033C107.934 71.8289 109.797 72.1637 110.692 71.8547C111.055 71.7292 111.385 71.4181 111.707 71.1472C111.888 70.9949 112.141 70.7588 112.149 70.548C112.161 70.2315 111.85 70.1868 111.633 70.1685C110.543 70.0772 109.519 69.401 108.283 69.6262C107.166 69.3286 106.12 70.1481 104.991 70.5023ZM35.7469 75.754C35.3816 75.2351 34.8183 75.112 34.5937 75.811C33.7179 78.5356 32.6515 76.4708 31.9867 75.8244C30.2136 74.1015 29.4504 74.0087 27.9453 75.8591C27.2929 76.6613 27.2519 77.1644 28.2285 77.4124C29.5301 77.7428 30.7535 78.2181 31.9308 79.1071C33.357 80.1841 36.2273 79.1899 37.3695 77.5176C37.5652 77.2537 37.5871 76.9902 37.3687 76.7268C36.6801 76.7992 36.1914 76.3855 35.7469 75.754ZM158.123 144.814C158.039 144.89 158.024 145.199 158.062 145.37C158.364 146.72 158.684 148.075 159.953 148.464C161.051 148.801 161.854 148.423 162.552 147.166C163.425 145.59 163.028 143.72 163.528 142.067C163.713 141.457 163.097 141.134 162.287 141.127C161.027 142.235 159.568 143.511 158.123 144.814ZM124.497 154.81C123.519 155.683 122.164 156.365 121.661 157.693C121.083 159.222 120.874 161.073 120.958 162.863C120.987 163.492 121.248 163.994 121.784 164.115C122.434 164.262 123.205 164.207 123.39 163.362C123.905 161.021 124.902 158.872 125.155 156.58C124.937 155.801 125.141 154.235 124.497 154.81ZM129.368 84.5656C127.751 82.2855 127.753 81.8048 129.587 79.8716C130.669 78.731 131.849 77.782 133.256 77.3603C133.857 77.1802 134.444 76.8895 135.007 76.5651C135.157 76.4788 135.278 76.0774 135.269 75.8304C135.25 75.3625 134.944 75.12 134.611 75.2236C131.581 76.1647 128.549 77.1108 126.586 80.6226C125.801 82.0266 126.071 83.5531 127.272 84.3126C127.93 84.7288 128.644 84.5958 129.341 84.6063L129.368 84.5656ZM193.175 180.736C193.74 179.004 194.77 177.919 195.914 176.839C197.303 175.529 197.203 174.582 195.77 173.14C195.468 172.836 195.164 172.336 194.772 172.563C194.299 172.838 194.6 173.412 194.663 173.869C194.843 175.19 194.704 176.093 193.562 176.859C192.592 177.511 191.902 178.897 191.174 180.046C190.6 180.951 190.91 181.908 191.802 181.974C192.414 181.984 192.941 181.453 193.175 180.736ZM176.437 114.967C176.122 114.737 175.791 114.817 175.626 115.194C174.627 117.479 172.961 118.595 171.146 119.536C170.405 119.92 169.888 120.713 169.926 121.855C169.941 122.296 170.134 122.686 170.498 122.481C172.157 121.545 173.868 120.704 175.413 119.52C176.343 118.807 176.658 117.307 176.873 116.143C176.898 115.485 176.721 115.175 176.437 114.967ZM151.152 68.894C150.028 67.9618 149.334 68.8493 148.914 69.9531C148.477 71.1011 148.796 72.1141 149.856 72.5001C150.683 72.8012 151.524 73.0423 152.359 73.3102C152.843 72.8156 153.123 72.1394 153.384 71.4464C152.868 70.2731 152.002 69.5979 151.152 68.894ZM174.2 77.338C173.737 78.3694 174.726 78.5266 175.076 79.0723C175.223 79.3015 175.388 79.5149 175.514 79.7614C175.866 80.4535 176.289 81.1788 176.991 80.8871C177.859 80.5264 176.786 79.7078 177.125 79.1473C177.311 78.8387 177.468 78.4994 177.666 78.2042C178.135 77.5052 177.825 77.1227 177.31 76.9426C176.867 76.7878 176.391 76.7858 176.082 76.7397C175.316 76.8231 174.54 76.5815 174.2 77.338ZM165.38 137.783C166.14 138.616 166.83 137.954 167.215 137.364C167.63 136.727 167.172 135.987 166.564 135.833C165.463 135.556 165.396 134.872 165.779 133.702C165.941 133.206 165.477 132.779 165.107 132.652C164.611 132.481 164.434 133.049 164.311 133.507C164.211 133.875 164.223 134.292 164.185 134.687C164.108 136.02 164.63 136.96 165.38 137.783ZM163.531 147.401C163.588 148.286 163.687 149.553 164.445 149.773C164.853 149.892 165.898 149.424 165.829 148.257C165.779 147.403 165.621 146.458 164.679 146.332C164.118 146.367 163.48 146.61 163.531 147.401Z" fill="url(#paint1_linear_3191_3182)"/>
<defs>
<linearGradient id="paint0_linear_3191_3182" x1="256.729" y1="225.439" x2="-172.788" y2="157.069" gradientUnits="userSpaceOnUse">
<stop stop-color="#2E944A"/>
<stop offset="1" stop-color="#007BFF" stop-opacity="0.9"/>
</linearGradient>
<linearGradient id="paint1_linear_3191_3182" x1="243.642" y1="217.3" x2="-119.895" y2="162.923" gradientUnits="userSpaceOnUse">
<stop stop-color="#2E944A"/>
<stop offset="1" stop-color="#007BFF" stop-opacity="0.9"/>
</linearGradient>
</defs>
</svg>
