<svg width="312" height="258" viewBox="0 0 312 258" fill="none" xmlns="http://www.w3.org/2000/svg">
<path d="M241.071 27.7021C241.071 27.7021 212.048 3.99006 174.303 14.492C136.557 24.9939 120.745 57.548 99.1044 79.8997C87.7663 91.6059 71.0244 95.9178 57.546 104.935C14.4899 133.751 20.8547 198.535 54.064 222.97C86.1626 246.564 128.869 243.25 165.067 232.362C231.249 212.444 310.953 151.678 276.539 73.8656C268.486 55.9178 256.338 40.1071 241.071 27.7021Z" fill="#9DC1EB"/>
<path opacity="0.7" d="M241.071 27.7021C241.071 27.7021 212.048 3.99006 174.303 14.492C136.557 24.9939 120.745 57.548 99.1044 79.8997C87.7663 91.6059 71.0244 95.9178 57.546 104.935C14.4899 133.751 20.8547 198.535 54.064 222.97C86.1626 246.564 128.869 243.25 165.067 232.362C231.249 212.444 310.953 151.678 276.539 73.8656C268.486 55.9178 256.338 40.1071 241.071 27.7021Z" fill="white"/>
<path d="M156 254.262C228.806 254.262 287.826 249.56 287.826 243.76C287.826 237.96 228.806 233.258 156 233.258C83.1945 233.258 24.1738 237.96 24.1738 243.76C24.1738 249.56 83.1945 254.262 156 254.262Z" fill="#9DC1EB"/>
<path opacity="0.5" d="M156 254.262C228.806 254.262 287.826 249.56 287.826 243.76C287.826 237.96 228.806 233.258 156 233.258C83.1945 233.258 24.1738 237.96 24.1738 243.76C24.1738 249.56 83.1945 254.262 156 254.262Z" fill="white"/>
<path d="M261.668 24.707H125.28C122.32 24.707 119.92 27.1069 119.92 30.0672V101.159C119.92 104.12 122.32 106.52 125.28 106.52H261.668C264.628 106.52 267.028 104.12 267.028 101.159V30.0672C267.028 27.1069 264.628 24.707 261.668 24.707Z" fill="#063D7A"/>
<path d="M266.023 27.7695H129.636C126.675 27.7695 124.275 30.1694 124.275 33.1297V104.222C124.275 107.182 126.675 109.582 129.636 109.582H266.023C268.984 109.582 271.383 107.182 271.383 104.222V33.1297C271.383 30.1694 268.984 27.7695 266.023 27.7695Z" fill="white" stroke="#063D7A" stroke-miterlimit="10"/>
<path d="M141.929 37.7214C141.929 38.6482 141.654 39.5543 141.139 40.3249C140.624 41.0956 139.893 41.6962 139.036 42.0509C138.18 42.4056 137.238 42.4984 136.329 42.3176C135.42 42.1367 134.585 41.6904 133.929 41.035C133.274 40.3797 132.828 39.5447 132.647 38.6356C132.466 37.7266 132.559 36.7843 132.913 35.928C133.268 35.0717 133.869 34.3399 134.639 33.8249C135.41 33.31 136.316 33.0352 137.243 33.0352C137.858 33.0352 138.468 33.1564 139.036 33.3919C139.605 33.6274 140.121 33.9726 140.557 34.4077C140.992 34.8429 141.337 35.3595 141.572 35.928C141.808 36.4966 141.929 37.106 141.929 37.7214Z" fill="#9DC1EB" stroke="#063D7A" stroke-miterlimit="10"/>
<path d="M134.141 34.2109L140.381 41.1935" stroke="#063D7A" stroke-miterlimit="10"/>
<path d="M140.805 34.2734L134.434 41.1311" stroke="#063D7A" stroke-miterlimit="10"/>
<path d="M153.93 40.02V45.13C153.93 45.43 153.877 45.7033 153.77 45.95C153.67 46.1967 153.523 46.4067 153.33 46.58C153.143 46.7533 152.917 46.8867 152.65 46.98C152.383 47.0733 152.087 47.12 151.76 47.12C151.147 47.12 150.657 46.9667 150.29 46.66C149.93 46.3533 149.697 45.93 149.59 45.39L150.65 45.17C150.71 45.4567 150.823 45.6967 150.99 45.89C151.157 46.0833 151.417 46.18 151.77 46.18C152.097 46.18 152.35 46.0833 152.53 45.89C152.717 45.69 152.81 45.3867 152.81 44.98V40.96H150.38V40.02H153.93ZM157.996 47.12C157.556 47.12 157.173 47.04 156.846 46.88C156.526 46.7133 156.259 46.4767 156.046 46.17C155.839 45.8633 155.686 45.4867 155.586 45.04C155.486 44.5933 155.436 44.0833 155.436 43.51C155.436 42.9433 155.486 42.4367 155.586 41.99C155.686 41.5367 155.839 41.1567 156.046 40.85C156.259 40.5433 156.526 40.31 156.846 40.15C157.173 39.9833 157.556 39.9 157.996 39.9C158.436 39.9 158.816 39.9833 159.136 40.15C159.463 40.31 159.729 40.5433 159.936 40.85C160.149 41.1567 160.306 41.5367 160.406 41.99C160.506 42.4367 160.556 42.9433 160.556 43.51C160.556 44.0833 160.506 44.5933 160.406 45.04C160.306 45.4867 160.149 45.8633 159.936 46.17C159.729 46.4767 159.463 46.7133 159.136 46.88C158.816 47.04 158.436 47.12 157.996 47.12ZM157.996 46.19C158.496 46.19 158.849 46.0033 159.056 45.63C159.263 45.25 159.366 44.7367 159.366 44.09V42.92C159.366 42.28 159.263 41.7733 159.056 41.4C158.849 41.02 158.496 40.83 157.996 40.83C157.496 40.83 157.143 41.02 156.936 41.4C156.729 41.7733 156.626 42.28 156.626 42.92V44.1C156.626 44.74 156.729 45.25 156.936 45.63C157.143 46.0033 157.496 46.19 157.996 46.19ZM161.822 40.02H164.232C164.866 40.02 165.356 40.1833 165.702 40.51C166.056 40.8367 166.232 41.2833 166.232 41.85C166.232 42.2567 166.132 42.58 165.932 42.82C165.732 43.06 165.462 43.23 165.122 43.33V43.38C165.529 43.4733 165.856 43.6533 166.102 43.92C166.349 44.18 166.472 44.55 166.472 45.03C166.472 45.3167 166.426 45.58 166.332 45.82C166.239 46.06 166.106 46.27 165.932 46.45C165.759 46.6233 165.549 46.76 165.302 46.86C165.062 46.9533 164.796 47 164.502 47H161.822V40.02ZM164.162 46.14C164.536 46.14 164.822 46.0633 165.022 45.91C165.222 45.7567 165.322 45.51 165.322 45.17V44.81C165.322 44.47 165.222 44.2233 165.022 44.07C164.822 43.9167 164.536 43.84 164.162 43.84H162.922V46.14H164.162ZM164.002 43.02C164.356 43.02 164.622 42.9533 164.802 42.82C164.989 42.68 165.082 42.45 165.082 42.13V41.77C165.082 41.45 164.989 41.2233 164.802 41.09C164.622 40.95 164.356 40.88 164.002 40.88H162.922V43.02H164.002ZM174.644 40.96V47H173.524V40.96H171.334V40.02H176.834V40.96H174.644ZM177.88 47V46.15H179.52V40.87H177.88V40.02H182.28V40.87H180.64V46.15H182.28V47H177.88ZM186.637 40.96V47H185.517V40.96H183.327V40.02H188.827V40.96H186.637ZM192.633 40.96V47H191.513V40.96H189.323V40.02H194.823V40.96H192.633ZM196.149 47V40.02H197.269V46.06H200.449V47H196.149ZM201.925 47V40.02H206.295V40.96H203.045V42.99H206.175V43.93H203.045V46.06H206.295V47H201.925Z" fill="#18191C"/>
<rect x="193" y="82.5" width="70" height="19" rx="9.5" fill="#0A65CC"/>
<path d="M205.8 95.5V88.52H208.45C209.13 88.52 209.65 88.7133 210.01 89.1C210.37 89.4867 210.55 90.0133 210.55 90.68C210.55 91.3467 210.37 91.8733 210.01 92.26C209.65 92.6467 209.13 92.84 208.45 92.84H207.11V95.5H205.8ZM207.11 91.77H208.18C208.533 91.77 208.787 91.7 208.94 91.56C209.093 91.4133 209.17 91.1833 209.17 90.87V90.49C209.17 90.1767 209.093 89.95 208.94 89.81C208.787 89.6633 208.533 89.59 208.18 89.59H207.11V91.77ZM213.996 95.62C213.543 95.62 213.149 95.54 212.816 95.38C212.483 95.2133 212.206 94.9767 211.986 94.67C211.773 94.3633 211.613 93.9867 211.506 93.54C211.406 93.0933 211.356 92.5833 211.356 92.01C211.356 91.4433 211.406 90.9367 211.506 90.49C211.613 90.0367 211.773 89.6567 211.986 89.35C212.206 89.0433 212.483 88.81 212.816 88.65C213.149 88.4833 213.543 88.4 213.996 88.4C214.903 88.4 215.569 88.7167 215.996 89.35C216.423 89.9833 216.636 90.87 216.636 92.01C216.636 93.15 216.423 94.0367 215.996 94.67C215.569 95.3033 214.903 95.62 213.996 95.62ZM213.996 94.55C214.229 94.55 214.426 94.5067 214.586 94.42C214.746 94.3267 214.873 94.1967 214.966 94.03C215.066 93.8633 215.136 93.66 215.176 93.42C215.223 93.1733 215.246 92.9 215.246 92.6V91.41C215.246 90.81 215.153 90.3367 214.966 89.99C214.786 89.6433 214.463 89.47 213.996 89.47C213.529 89.47 213.203 89.6433 213.016 89.99C212.836 90.3367 212.746 90.81 212.746 91.41V92.61C212.746 93.21 212.836 93.6833 213.016 94.03C213.203 94.3767 213.529 94.55 213.996 94.55ZM219.912 95.62C219.312 95.62 218.799 95.5167 218.372 95.31C217.952 95.1033 217.609 94.83 217.342 94.49L218.132 93.67C218.392 93.97 218.672 94.1933 218.972 94.34C219.279 94.48 219.606 94.55 219.952 94.55C220.352 94.55 220.659 94.46 220.872 94.28C221.086 94.1 221.192 93.84 221.192 93.5C221.192 93.22 221.112 93.01 220.952 92.87C220.792 92.7233 220.522 92.62 220.142 92.56L219.402 92.44C218.756 92.3267 218.296 92.0933 218.022 91.74C217.749 91.38 217.612 90.9567 217.612 90.47C217.612 89.8033 217.829 89.2933 218.262 88.94C218.696 88.58 219.296 88.4 220.062 88.4C220.609 88.4 221.079 88.4867 221.472 88.66C221.872 88.8333 222.192 89.07 222.432 89.37L221.662 90.19C221.476 89.97 221.252 89.7967 220.992 89.67C220.732 89.5367 220.426 89.47 220.072 89.47C219.312 89.47 218.932 89.7833 218.932 90.41C218.932 90.6767 219.012 90.88 219.172 91.02C219.332 91.16 219.606 91.2633 219.992 91.33L220.722 91.46C221.329 91.5733 221.779 91.7967 222.072 92.13C222.366 92.4633 222.512 92.89 222.512 93.41C222.512 93.7367 222.456 94.0367 222.342 94.31C222.229 94.5767 222.062 94.81 221.842 95.01C221.622 95.2033 221.349 95.3533 221.022 95.46C220.702 95.5667 220.332 95.62 219.912 95.62ZM226.638 89.6V95.5H225.338V89.6H223.238V88.52H228.738V89.6H226.638ZM238 88.52V93.59C238 93.9033 237.947 94.1867 237.84 94.44C237.734 94.6867 237.58 94.8967 237.38 95.07C237.187 95.2433 236.95 95.38 236.67 95.48C236.397 95.5733 236.09 95.62 235.75 95.62C235.09 95.62 234.57 95.4533 234.19 95.12C233.817 94.7867 233.577 94.3433 233.47 93.79L234.7 93.53C234.76 93.8233 234.867 94.0667 235.02 94.26C235.18 94.4467 235.424 94.54 235.75 94.54C236.05 94.54 236.28 94.4533 236.44 94.28C236.6 94.1 236.68 93.82 236.68 93.44V89.6H234.32V88.52H238ZM241.977 95.62C241.523 95.62 241.13 95.54 240.797 95.38C240.463 95.2133 240.187 94.9767 239.967 94.67C239.753 94.3633 239.593 93.9867 239.487 93.54C239.387 93.0933 239.337 92.5833 239.337 92.01C239.337 91.4433 239.387 90.9367 239.487 90.49C239.593 90.0367 239.753 89.6567 239.967 89.35C240.187 89.0433 240.463 88.81 240.797 88.65C241.13 88.4833 241.523 88.4 241.977 88.4C242.883 88.4 243.55 88.7167 243.977 89.35C244.403 89.9833 244.617 90.87 244.617 92.01C244.617 93.15 244.403 94.0367 243.977 94.67C243.55 95.3033 242.883 95.62 241.977 95.62ZM241.977 94.55C242.21 94.55 242.407 94.5067 242.567 94.42C242.727 94.3267 242.853 94.1967 242.947 94.03C243.047 93.8633 243.117 93.66 243.157 93.42C243.203 93.1733 243.227 92.9 243.227 92.6V91.41C243.227 90.81 243.133 90.3367 242.947 89.99C242.767 89.6433 242.443 89.47 241.977 89.47C241.51 89.47 241.183 89.6433 240.997 89.99C240.817 90.3367 240.727 90.81 240.727 91.41V92.61C240.727 93.21 240.817 93.6833 240.997 94.03C241.183 94.3767 241.51 94.55 241.977 94.55ZM245.773 88.52H248.203C248.863 88.52 249.369 88.6867 249.723 89.02C250.083 89.3467 250.263 89.7933 250.263 90.36C250.263 90.76 250.163 91.08 249.963 91.32C249.769 91.56 249.493 91.7333 249.133 91.84V91.89C249.553 91.99 249.883 92.1733 250.123 92.44C250.369 92.7 250.493 93.07 250.493 93.55C250.493 93.8433 250.443 94.11 250.343 94.35C250.249 94.5833 250.113 94.7867 249.933 94.96C249.759 95.1333 249.546 95.2667 249.293 95.36C249.046 95.4533 248.766 95.5 248.453 95.5H245.773V88.52ZM248.053 94.55C248.419 94.55 248.693 94.4833 248.873 94.35C249.059 94.21 249.153 93.9733 249.153 93.64V93.31C249.153 92.9833 249.059 92.7533 248.873 92.62C248.693 92.48 248.419 92.41 248.053 92.41H247.053V94.55H248.053ZM247.883 91.5C248.236 91.5 248.496 91.4367 248.663 91.31C248.836 91.1833 248.923 90.9633 248.923 90.65V90.32C248.923 90.0067 248.836 89.7867 248.663 89.66C248.496 89.5333 248.236 89.47 247.883 89.47H247.053V91.5H247.883Z" fill="white"/>
<path d="M153.81 64L153.22 62.01H150.77L150.18 64H149.31L151.45 57.02H152.56L154.7 64H153.81ZM152.04 57.91H151.95L150.97 61.28H153.02L152.04 57.91ZM159.246 63.16H159.206C158.873 63.8 158.343 64.12 157.616 64.12C156.983 64.12 156.486 63.8833 156.126 63.41C155.773 62.9367 155.596 62.2733 155.596 61.42C155.596 60.5667 155.773 59.9033 156.126 59.43C156.486 58.9567 156.983 58.72 157.616 58.72C158.343 58.72 158.873 59.04 159.206 59.68H159.246V56.6H160.046V64H159.246V63.16ZM157.926 63.41C158.106 63.41 158.276 63.3867 158.436 63.34C158.596 63.2933 158.736 63.2267 158.856 63.14C158.976 63.0467 159.069 62.9367 159.136 62.81C159.209 62.6767 159.246 62.5233 159.246 62.35V60.49C159.246 60.3167 159.209 60.1667 159.136 60.04C159.069 59.9067 158.976 59.7967 158.856 59.71C158.736 59.6167 158.596 59.5467 158.436 59.5C158.276 59.4533 158.106 59.43 157.926 59.43C157.459 59.43 157.096 59.5733 156.836 59.86C156.583 60.14 156.456 60.5133 156.456 60.98V61.86C156.456 62.3267 156.583 62.7033 156.836 62.99C157.096 63.27 157.459 63.41 157.926 63.41ZM165.242 63.16H165.202C164.869 63.8 164.339 64.12 163.612 64.12C162.979 64.12 162.482 63.8833 162.122 63.41C161.769 62.9367 161.592 62.2733 161.592 61.42C161.592 60.5667 161.769 59.9033 162.122 59.43C162.482 58.9567 162.979 58.72 163.612 58.72C164.339 58.72 164.869 59.04 165.202 59.68H165.242V56.6H166.042V64H165.242V63.16ZM163.922 63.41C164.102 63.41 164.272 63.3867 164.432 63.34C164.592 63.2933 164.732 63.2267 164.852 63.14C164.972 63.0467 165.066 62.9367 165.132 62.81C165.206 62.6767 165.242 62.5233 165.242 62.35V60.49C165.242 60.3167 165.206 60.1667 165.132 60.04C165.066 59.9067 164.972 59.7967 164.852 59.71C164.732 59.6167 164.592 59.5467 164.432 59.5C164.272 59.4533 164.102 59.43 163.922 59.43C163.456 59.43 163.092 59.5733 162.832 59.86C162.579 60.14 162.452 60.5133 162.452 60.98V61.86C162.452 62.3267 162.579 62.7033 162.832 62.99C163.092 63.27 163.456 63.41 163.922 63.41ZM174.004 65.32H176.504V59.52H173.914V58.84H177.304V64.82C177.304 65.1667 177.211 65.45 177.024 65.67C176.844 65.89 176.558 66 176.164 66H174.004V65.32ZM176.904 57.7C176.671 57.7 176.508 57.6533 176.414 57.56C176.321 57.46 176.274 57.3367 176.274 57.19V57.03C176.274 56.8833 176.321 56.7633 176.414 56.67C176.508 56.57 176.671 56.52 176.904 56.52C177.138 56.52 177.301 56.57 177.394 56.67C177.488 56.7633 177.534 56.8833 177.534 57.03V57.19C177.534 57.3367 177.488 57.46 177.394 57.56C177.301 57.6533 177.138 57.7 176.904 57.7ZM181.98 64.12C181.62 64.12 181.294 64.0567 181 63.93C180.714 63.8033 180.467 63.6233 180.26 63.39C180.06 63.15 179.907 62.8667 179.8 62.54C179.694 62.2067 179.64 61.8333 179.64 61.42C179.64 61.0133 179.694 60.6433 179.8 60.31C179.907 59.9767 180.06 59.6933 180.26 59.46C180.467 59.22 180.714 59.0367 181 58.91C181.294 58.7833 181.62 58.72 181.98 58.72C182.34 58.72 182.664 58.7833 182.95 58.91C183.244 59.0367 183.49 59.22 183.69 59.46C183.897 59.6933 184.054 59.9767 184.16 60.31C184.267 60.6433 184.32 61.0133 184.32 61.42C184.32 61.8333 184.267 62.2067 184.16 62.54C184.054 62.8667 183.897 63.15 183.69 63.39C183.49 63.6233 183.244 63.8033 182.95 63.93C182.664 64.0567 182.34 64.12 181.98 64.12ZM181.98 63.43C182.427 63.43 182.787 63.2967 183.06 63.03C183.334 62.7633 183.47 62.35 183.47 61.79V61.05C183.47 60.49 183.334 60.0767 183.06 59.81C182.787 59.5433 182.427 59.41 181.98 59.41C181.534 59.41 181.174 59.5433 180.9 59.81C180.627 60.0767 180.49 60.49 180.49 61.05V61.79C180.49 62.35 180.627 62.7633 180.9 63.03C181.174 63.2967 181.534 63.43 181.98 63.43ZM185.927 56.6H186.727V59.68H186.767C187.1 59.04 187.63 58.72 188.357 58.72C188.99 58.72 189.483 58.9567 189.837 59.43C190.197 59.9033 190.377 60.5667 190.377 61.42C190.377 62.2733 190.197 62.9367 189.837 63.41C189.483 63.8833 188.99 64.12 188.357 64.12C187.63 64.12 187.1 63.8 186.767 63.16H186.727V64H185.927V56.6ZM188.047 63.41C188.513 63.41 188.873 63.27 189.127 62.99C189.387 62.7033 189.517 62.3267 189.517 61.86V60.98C189.517 60.5133 189.387 60.14 189.127 59.86C188.873 59.5733 188.513 59.43 188.047 59.43C187.867 59.43 187.697 59.4533 187.537 59.5C187.377 59.5467 187.237 59.6167 187.117 59.71C186.997 59.7967 186.9 59.9067 186.827 60.04C186.76 60.1667 186.727 60.3167 186.727 60.49V62.35C186.727 62.5233 186.76 62.6767 186.827 62.81C186.9 62.9367 186.997 63.0467 187.117 63.14C187.237 63.2267 187.377 63.2933 187.537 63.34C187.697 63.3867 187.867 63.41 188.047 63.41ZM200.219 64C199.825 64 199.535 63.89 199.349 63.67C199.169 63.45 199.079 63.1667 199.079 62.82V59.52H197.359V58.84H198.639C198.812 58.84 198.932 58.8067 198.999 58.74C199.072 58.6667 199.109 58.5433 199.109 58.37V57.02H199.879V58.84H202.229V59.52H199.879V63.32H202.229V64H200.219ZM206.285 57.7C206.052 57.7 205.888 57.6533 205.795 57.56C205.702 57.46 205.655 57.3367 205.655 57.19V57.03C205.655 56.8833 205.702 56.7633 205.795 56.67C205.888 56.57 206.052 56.52 206.285 56.52C206.518 56.52 206.682 56.57 206.775 56.67C206.868 56.7633 206.915 56.8833 206.915 57.03V57.19C206.915 57.3367 206.868 57.46 206.775 57.56C206.682 57.6533 206.518 57.7 206.285 57.7ZM204.025 63.32H205.885V59.52H204.025V58.84H206.685V63.32H208.425V64H204.025V63.32ZM212.211 64C211.818 64 211.528 63.89 211.341 63.67C211.161 63.45 211.071 63.1667 211.071 62.82V59.52H209.351V58.84H210.631C210.804 58.84 210.924 58.8067 210.991 58.74C211.064 58.6667 211.101 58.5433 211.101 58.37V57.02H211.871V58.84H214.221V59.52H211.871V63.32H214.221V64H212.211ZM218.207 64C217.814 64 217.524 63.89 217.337 63.67C217.157 63.45 217.067 63.1667 217.067 62.82V59.52H215.347V58.84H216.627C216.8 58.84 216.92 58.8067 216.987 58.74C217.06 58.6667 217.097 58.5433 217.097 58.37V57.02H217.867V58.84H220.217V59.52H217.867V63.32H220.217V64H218.207ZM221.753 63.32H223.553V57.28H221.753V56.6H224.353V63.32H226.153V64H221.753V63.32ZM230.039 64.12C229.666 64.12 229.329 64.0567 229.029 63.93C228.736 63.8033 228.483 63.6233 228.269 63.39C228.063 63.15 227.903 62.8667 227.789 62.54C227.676 62.2067 227.619 61.8367 227.619 61.43C227.619 61.0167 227.676 60.6433 227.789 60.31C227.909 59.9767 228.073 59.6933 228.279 59.46C228.486 59.22 228.733 59.0367 229.019 58.91C229.313 58.7833 229.636 58.72 229.989 58.72C230.336 58.72 230.649 58.7833 230.929 58.91C231.216 59.0367 231.459 59.2133 231.659 59.44C231.859 59.66 232.013 59.9233 232.119 60.23C232.226 60.5367 232.279 60.8733 232.279 61.24V61.62H228.459V61.86C228.459 62.0867 228.496 62.2967 228.569 62.49C228.643 62.6833 228.746 62.85 228.879 62.99C229.019 63.13 229.186 63.24 229.379 63.32C229.579 63.3933 229.799 63.43 230.039 63.43C230.386 63.43 230.686 63.35 230.939 63.19C231.193 63.03 231.386 62.81 231.519 62.53L232.109 62.93C231.956 63.2767 231.699 63.5633 231.339 63.79C230.986 64.01 230.553 64.12 230.039 64.12ZM229.989 59.38C229.769 59.38 229.566 59.42 229.379 59.5C229.193 59.58 229.029 59.69 228.889 59.83C228.756 59.97 228.649 60.1367 228.569 60.33C228.496 60.5167 228.459 60.7233 228.459 60.95V61.02H231.419V60.91C231.419 60.6833 231.383 60.4767 231.309 60.29C231.243 60.1033 231.146 59.9433 231.019 59.81C230.899 59.67 230.749 59.5633 230.569 59.49C230.396 59.4167 230.203 59.38 229.989 59.38ZM235.515 62.64H236.805L235.655 65.41H234.985L235.515 62.64ZM149.77 73.32H151.28V69.52H149.77V68.84H152.08V70.14H152.13C152.237 69.7333 152.437 69.4167 152.73 69.19C153.03 68.9567 153.41 68.84 153.87 68.84H154.59V69.64H153.62C153.16 69.64 152.787 69.7733 152.5 70.04C152.22 70.3067 152.08 70.6567 152.08 71.09V73.32H154.08V74H149.77V73.32ZM157.996 74.12C157.636 74.12 157.309 74.0567 157.016 73.93C156.729 73.8033 156.483 73.6233 156.276 73.39C156.076 73.15 155.923 72.8667 155.816 72.54C155.709 72.2067 155.656 71.8333 155.656 71.42C155.656 71.0133 155.709 70.6433 155.816 70.31C155.923 69.9767 156.076 69.6933 156.276 69.46C156.483 69.22 156.729 69.0367 157.016 68.91C157.309 68.7833 157.636 68.72 157.996 68.72C158.356 68.72 158.679 68.7833 158.966 68.91C159.259 69.0367 159.506 69.22 159.706 69.46C159.913 69.6933 160.069 69.9767 160.176 70.31C160.283 70.6433 160.336 71.0133 160.336 71.42C160.336 71.8333 160.283 72.2067 160.176 72.54C160.069 72.8667 159.913 73.15 159.706 73.39C159.506 73.6233 159.259 73.8033 158.966 73.93C158.679 74.0567 158.356 74.12 157.996 74.12ZM157.996 73.43C158.443 73.43 158.803 73.2967 159.076 73.03C159.349 72.7633 159.486 72.35 159.486 71.79V71.05C159.486 70.49 159.349 70.0767 159.076 69.81C158.803 69.5433 158.443 69.41 157.996 69.41C157.549 69.41 157.189 69.5433 156.916 69.81C156.643 70.0767 156.506 70.49 156.506 71.05V71.79C156.506 72.35 156.643 72.7633 156.916 73.03C157.189 73.2967 157.549 73.43 157.996 73.43ZM161.792 73.32H163.592V67.28H161.792V66.6H164.392V73.32H166.192V74H161.792V73.32ZM170.078 74.12C169.705 74.12 169.368 74.0567 169.068 73.93C168.775 73.8033 168.522 73.6233 168.308 73.39C168.102 73.15 167.942 72.8667 167.828 72.54C167.715 72.2067 167.658 71.8367 167.658 71.43C167.658 71.0167 167.715 70.6433 167.828 70.31C167.948 69.9767 168.112 69.6933 168.318 69.46C168.525 69.22 168.772 69.0367 169.058 68.91C169.352 68.7833 169.675 68.72 170.028 68.72C170.375 68.72 170.688 68.7833 170.968 68.91C171.255 69.0367 171.498 69.2133 171.698 69.44C171.898 69.66 172.052 69.9233 172.158 70.23C172.265 70.5367 172.318 70.8733 172.318 71.24V71.62H168.498V71.86C168.498 72.0867 168.535 72.2967 168.608 72.49C168.682 72.6833 168.785 72.85 168.918 72.99C169.058 73.13 169.225 73.24 169.418 73.32C169.618 73.3933 169.838 73.43 170.078 73.43C170.425 73.43 170.725 73.35 170.978 73.19C171.232 73.03 171.425 72.81 171.558 72.53L172.148 72.93C171.995 73.2767 171.738 73.5633 171.378 73.79C171.025 74.01 170.592 74.12 170.078 74.12ZM170.028 69.38C169.808 69.38 169.605 69.42 169.418 69.5C169.232 69.58 169.068 69.69 168.928 69.83C168.795 69.97 168.688 70.1367 168.608 70.33C168.535 70.5167 168.498 70.7233 168.498 70.95V71.02H171.458V70.91C171.458 70.6833 171.422 70.4767 171.348 70.29C171.282 70.1033 171.185 69.9433 171.058 69.81C170.938 69.67 170.788 69.5633 170.608 69.49C170.435 69.4167 170.242 69.38 170.028 69.38ZM179.96 74V68.84H180.76V69.68H180.8C180.854 69.5533 180.92 69.4333 181 69.32C181.08 69.2 181.177 69.0967 181.29 69.01C181.41 68.9233 181.55 68.8533 181.71 68.8C181.87 68.7467 182.057 68.72 182.27 68.72C182.81 68.72 183.244 68.8933 183.57 69.24C183.897 69.58 184.06 70.0633 184.06 70.69V74H183.26V70.83C183.26 70.3567 183.157 70.0067 182.95 69.78C182.744 69.5467 182.44 69.43 182.04 69.43C181.88 69.43 181.724 69.45 181.57 69.49C181.417 69.53 181.28 69.59 181.16 69.67C181.04 69.75 180.944 69.8533 180.87 69.98C180.797 70.1067 180.76 70.2533 180.76 70.42V74H179.96ZM189.927 74C189.613 74 189.39 73.92 189.257 73.76C189.123 73.6 189.04 73.4 189.007 73.16H188.957C188.843 73.46 188.66 73.6967 188.407 73.87C188.16 74.0367 187.827 74.12 187.407 74.12C186.867 74.12 186.437 73.98 186.117 73.7C185.797 73.42 185.637 73.0367 185.637 72.55C185.637 72.07 185.81 71.7 186.157 71.44C186.51 71.18 187.077 71.05 187.857 71.05H188.957V70.54C188.957 70.16 188.85 69.8767 188.637 69.69C188.423 69.4967 188.12 69.4 187.727 69.4C187.38 69.4 187.097 69.47 186.877 69.61C186.657 69.7433 186.48 69.9267 186.347 70.16L185.807 69.76C185.873 69.6267 185.963 69.4967 186.077 69.37C186.19 69.2433 186.33 69.1333 186.497 69.04C186.663 68.94 186.853 68.8633 187.067 68.81C187.28 68.75 187.517 68.72 187.777 68.72C188.383 68.72 188.863 68.8733 189.217 69.18C189.577 69.4867 189.757 69.9133 189.757 70.46V73.3H190.477V74H189.927ZM187.547 73.45C187.753 73.45 187.94 73.4267 188.107 73.38C188.28 73.3267 188.43 73.26 188.557 73.18C188.683 73.0933 188.78 72.9933 188.847 72.88C188.92 72.76 188.957 72.6333 188.957 72.5V71.65H187.857C187.377 71.65 187.027 71.7167 186.807 71.85C186.587 71.9833 186.477 72.1767 186.477 72.43V72.64C186.477 72.9067 186.57 73.11 186.757 73.25C186.95 73.3833 187.213 73.45 187.547 73.45ZM191.513 74V68.84H192.253V69.44H192.293C192.373 69.24 192.486 69.07 192.633 68.93C192.779 68.79 192.996 68.72 193.283 68.72C193.583 68.72 193.806 68.7967 193.953 68.95C194.099 69.0967 194.189 69.29 194.223 69.53H194.253C194.346 69.2967 194.479 69.1033 194.653 68.95C194.826 68.7967 195.066 68.72 195.373 68.72C195.793 68.72 196.073 68.8667 196.213 69.16C196.359 69.4533 196.433 69.8733 196.433 70.42V74H195.693V70.55C195.693 70.11 195.646 69.8067 195.553 69.64C195.466 69.4667 195.303 69.38 195.063 69.38C194.849 69.38 194.676 69.45 194.543 69.59C194.409 69.7233 194.343 69.93 194.343 70.21V74H193.603V70.55C193.603 70.11 193.556 69.8067 193.463 69.64C193.376 69.4667 193.216 69.38 192.983 69.38C192.769 69.38 192.593 69.45 192.453 69.59C192.319 69.7233 192.253 69.93 192.253 70.21V74H191.513ZM200.059 74.12C199.685 74.12 199.349 74.0567 199.049 73.93C198.755 73.8033 198.502 73.6233 198.289 73.39C198.082 73.15 197.922 72.8667 197.809 72.54C197.695 72.2067 197.639 71.8367 197.639 71.43C197.639 71.0167 197.695 70.6433 197.809 70.31C197.929 69.9767 198.092 69.6933 198.299 69.46C198.505 69.22 198.752 69.0367 199.039 68.91C199.332 68.7833 199.655 68.72 200.009 68.72C200.355 68.72 200.669 68.7833 200.949 68.91C201.235 69.0367 201.479 69.2133 201.679 69.44C201.879 69.66 202.032 69.9233 202.139 70.23C202.245 70.5367 202.299 70.8733 202.299 71.24V71.62H198.479V71.86C198.479 72.0867 198.515 72.2967 198.589 72.49C198.662 72.6833 198.765 72.85 198.899 72.99C199.039 73.13 199.205 73.24 199.399 73.32C199.599 73.3933 199.819 73.43 200.059 73.43C200.405 73.43 200.705 73.35 200.959 73.19C201.212 73.03 201.405 72.81 201.539 72.53L202.129 72.93C201.975 73.2767 201.719 73.5633 201.359 73.79C201.005 74.01 200.572 74.12 200.059 74.12ZM200.009 69.38C199.789 69.38 199.585 69.42 199.399 69.5C199.212 69.58 199.049 69.69 198.909 69.83C198.775 69.97 198.669 70.1367 198.589 70.33C198.515 70.5167 198.479 70.7233 198.479 70.95V71.02H201.439V70.91C201.439 70.6833 201.402 70.4767 201.329 70.29C201.262 70.1033 201.165 69.9433 201.039 69.81C200.919 69.67 200.769 69.5633 200.589 69.49C200.415 69.4167 200.222 69.38 200.009 69.38Z" fill="#9199A3"/>
<path d="M286.22 38.3458C290.208 21.8233 280.047 5.19623 263.525 1.20818C247.002 -2.77987 230.375 7.38128 226.387 23.9038C222.399 40.4262 232.56 57.0533 249.083 61.0413C265.605 65.0294 282.232 54.8682 286.22 38.3458Z" fill="#063D7A"/>
<path d="M288.048 35.0533C290.707 18.922 279.785 3.68939 263.654 1.03043C247.522 -1.62854 232.29 9.29301 229.631 25.4244C226.972 41.5558 237.893 56.7883 254.025 59.4473C270.156 62.1063 285.389 51.1847 288.048 35.0533Z" fill="white" stroke="#063D7A" stroke-miterlimit="10"/>
<path d="M281.237 49.5672C278.487 52.7638 275.084 55.3351 271.258 57.1084C267.432 58.8817 263.271 59.8159 259.054 59.8484C254.837 59.8809 250.662 59.0109 246.809 57.2968C242.956 55.5828 239.514 53.0643 236.715 49.9104C237.907 47.9635 239.772 46.2225 241.888 45.8668C242.74 45.7215 243.584 45.5298 244.415 45.2928C244.615 45.2428 244.808 45.1867 245.002 45.1243C245.551 44.9558 246.094 44.7686 246.624 44.5627C246.892 44.4566 247.154 44.3505 247.416 44.2319C247.679 44.1134 248.003 43.9761 248.296 43.8388C248.59 43.7015 248.87 43.5518 249.151 43.402C249.432 43.2523 249.713 43.0963 249.987 42.934C250.262 42.7718 250.536 42.6033 250.805 42.4286C251.073 42.2539 251.248 42.1353 251.466 41.9793C251.544 41.9315 251.619 41.8795 251.691 41.8233C251.915 41.6611 252.134 41.4926 252.352 41.3241C252.608 41.1244 252.851 40.9247 253.095 40.7001C253.338 40.4754 253.569 40.2758 253.806 40.0761C254.262 39.6393 254.705 39.1775 255.123 38.6908L256.77 38.41L257.02 38.3663L263.322 37.2868L265.375 36.9311L265.906 36.8438C266.598 38.385 268.058 39.3834 269.65 40.0386L269.855 40.126C270.242 40.282 270.635 40.413 271.029 40.5316C273.113 41.1556 275.328 41.5238 277.138 42.7281C279.434 44.2382 280.651 46.8216 281.237 49.5672Z" fill="#9DC1EB"/>
<path d="M255.254 38.1723C254.198 39.3894 252.786 40.2428 251.218 40.6114C249.649 40.9799 248.005 40.8448 246.518 40.2252C246.389 40.6603 246.352 41.1172 246.409 41.5672C246.466 42.0172 246.616 42.4505 246.849 42.8398C246.353 42.576 245.937 42.186 245.641 41.7093C245.345 41.2327 245.18 40.6862 245.164 40.1254C244.771 40.983 244.527 41.9007 244.44 42.8398C241.488 43.4076 238.356 41.6854 236.889 39.0584C236.199 37.7104 235.826 36.2225 235.799 34.7084C235.772 33.1943 236.092 31.6941 236.733 30.3224L235.074 32.5001C234.537 31.1835 234.98 29.6672 235.698 28.4504C236.415 27.2336 237.426 26.1977 238.156 24.9809C240.091 21.7236 239.835 17.6801 240.446 13.9486C240.59 12.5414 241.11 11.1988 241.95 10.0611C242.855 8.98781 244.409 8.34509 245.694 8.86301C245.925 7.10957 248.134 6.29213 249.775 5.62445C252.49 4.53245 255.391 3.45917 258.274 3.96461C262.898 4.77581 265.98 9.32477 270.405 10.8785C272.695 11.6835 275.197 11.6336 277.537 12.2763C279.877 12.919 282.248 14.6288 282.398 17.0499L279.902 15.7457C281.713 18.0828 282.771 20.9155 282.935 23.8678C283.099 26.82 282.361 29.7524 280.819 32.2755L280.351 29.9729C280.613 31.0899 279.69 32.1132 278.791 32.8308C276.326 34.7964 273.231 36.2504 270.099 35.8885C269.175 35.7824 268.271 35.5203 267.347 35.3705C264.66 34.9667 261.916 35.5093 259.584 36.9056C258.291 37.732 256.789 38.1715 255.254 38.1723Z" fill="#063D7A"/>
<path d="M256.352 32.9117C255.459 34.1597 254.018 37.9037 253.681 41.0237C253.344 44.1437 253.681 49.2605 254.461 49.2605C255.241 49.2605 256.576 42.5837 256.576 42.5837C256.576 42.5837 257.132 45.1421 258.448 45.9221C259.765 46.7021 262.118 51.925 262.118 51.925C262.118 51.925 265.238 46.2528 265.674 44.3621C266.111 42.4714 266.236 41.5853 266.791 42.2468C267.781 43.8046 268.636 45.4432 269.35 47.1452C269.905 48.4805 270.348 42.7772 269.568 39.6572C268.788 36.5372 267.01 34.4343 266.791 33.6543C266.573 32.8743 265.344 32.0943 265.344 32.0943C261.026 27.5703 257.244 31.6887 256.352 32.9117Z" fill="white" stroke="#063D7A" stroke-linecap="round" stroke-linejoin="round"/>
<path d="M255.459 34.8025C256.337 36.809 257.008 38.8998 257.462 41.0425C258.017 44.0502 261.581 50.6147 262.136 51.9438C262.691 53.2729 264.364 47.7193 265.025 43.9379C265.687 40.1564 264.875 30.9961 264.875 30.9961C261.762 35.102 255.459 34.8025 255.459 34.8025Z" fill="white" stroke="#063D7A" stroke-linecap="round" stroke-linejoin="round"/>
<path d="M248.939 14.1432C248.385 15.4816 247.76 16.7897 247.067 18.0619C246.487 19.1914 245.688 20.377 245.819 21.6999C245.95 23.0227 249.625 30.4359 251.185 32.1269C252.745 33.8179 258.118 38.0362 260.439 36.4575C265.575 32.9631 265.113 22.6109 264.564 20.9199C264.015 19.2288 263.316 19.6719 263.316 19.6719C263.029 19.8528 262.286 19.2538 262.012 19.1415C260.427 18.4738 258.692 18.4301 257.088 17.7749C255.371 17.1015 253.827 16.0501 252.571 14.6986C251.572 13.5754 250.699 12.2837 249.157 11.8594C249.632 11.9904 249.345 13.0824 248.939 14.1432Z" fill="white" stroke="#063D7A" stroke-linecap="round" stroke-linejoin="round"/>
<path d="M249.975 22.7642C250.14 22.4861 250.361 22.2452 250.624 22.0567C250.887 21.8682 251.186 21.736 251.502 21.6686C251.819 21.6013 252.146 21.6 252.463 21.6651C252.78 21.7301 253.08 21.86 253.344 22.0466" stroke="#063D7A" stroke-linecap="round" stroke-linejoin="round"/>
<path d="M259.584 19.3652C256.645 18.448 256.195 20.738 256.195 20.738" stroke="#063D7A" stroke-linecap="round" stroke-linejoin="round"/>
<path d="M253.463 24.7981C253.581 25.3035 253.494 25.7591 253.263 25.8152C253.032 25.8714 252.745 25.5032 252.639 24.9915C252.533 24.4799 252.608 24.0306 252.839 23.9744C253.07 23.9182 253.344 24.2864 253.463 24.7981Z" fill="#063D7A"/>
<path d="M259.479 23.2946C259.597 23.8063 259.51 24.2618 259.279 24.318C259.048 24.3741 258.761 23.9997 258.655 23.4943C258.549 22.9888 258.624 22.527 258.854 22.4771C259.085 22.4272 259.354 22.8016 259.479 23.2946Z" fill="#063D7A"/>
<path d="M256.221 22.1719C256.221 25.192 258.224 27.1202 258.093 28.1873C258.09 28.2116 258.082 28.2349 258.068 28.2554C258.055 28.2758 258.037 28.2928 258.015 28.305C257.994 28.3171 257.97 28.3241 257.946 28.3253C257.921 28.3266 257.897 28.322 257.874 28.3121C257.413 28.0687 256.863 27.6881 256.408 27.4509" stroke="#063D7A" stroke-linecap="round" stroke-linejoin="round"/>
<path d="M254.248 30.0352C254.687 30.5862 255.267 31.0093 255.925 31.2606C256.583 31.5119 257.297 31.5822 257.992 31.4641" stroke="#063D7A" stroke-linecap="round" stroke-linejoin="round"/>
<path d="M256.045 36.2256C256.045 36.2256 258.697 42.3345 260.893 41.8041C263.09 41.2737 264.382 31.2461 264.382 31.2461C264.382 31.2461 261.773 36.1445 259.595 36.9058C257.786 37.5422 256.045 36.2256 256.045 36.2256Z" fill="#063D7A"/>
<path d="M253.812 40.0625C253.581 40.2809 253.344 40.4993 253.101 40.6865C252.857 40.8737 252.614 41.1046 252.358 41.3105C252.146 41.4852 251.921 41.6475 251.697 41.8097C251.625 41.8659 251.55 41.918 251.472 41.9657C251.254 42.128 251.035 42.2715 250.811 42.415C250.586 42.5585 250.274 42.7644 249.993 42.9204C249.712 43.0764 249.438 43.2449 249.157 43.3884C248.876 43.532 248.589 43.688 248.302 43.8252C248.015 43.9625 247.722 44.0998 247.422 44.2184C247.123 44.3369 246.898 44.4492 246.63 44.5491C246.099 44.755 245.557 44.9422 245.007 45.1107C244.814 45.1731 244.614 45.2293 244.421 45.2792C243.59 45.5162 242.746 45.7079 241.894 45.8533C239.778 46.2089 237.913 47.9499 236.721 49.8968" stroke="#063D7A" stroke-linecap="round" stroke-linejoin="round"/>
<path d="M281.237 49.5668C280.651 46.8212 279.434 44.2378 277.15 42.7027C275.341 41.4984 273.125 41.1365 271.041 40.5063C270.648 40.3877 270.255 40.2567 269.868 40.1007L269.662 40.0195" stroke="#063D7A" stroke-linecap="round" stroke-linejoin="round"/>
<path d="M263.502 55.4942C263.502 56.1868 263.115 56.7422 262.64 56.7422C262.166 56.7422 261.779 56.1868 261.779 55.4942C261.779 54.8015 262.166 54.2461 262.64 54.2461C263.115 54.2461 263.502 54.8015 263.502 55.4942Z" fill="#063D7A"/>
<path d="M245.014 49.668C246.468 52.2379 247.546 55.0033 248.215 57.8797" stroke="#063D7A" stroke-linecap="round" stroke-linejoin="round"/>
<path d="M247.953 49.9609L248.777 54.4912" stroke="#063D7A" stroke-linecap="round" stroke-linejoin="round"/>
<path d="M288.048 35.0533C290.707 18.922 279.785 3.68939 263.654 1.03043C247.522 -1.62854 232.29 9.29301 229.631 25.4244C226.972 41.5558 237.893 56.7883 254.025 59.4473C270.156 62.1063 285.389 51.1847 288.048 35.0533Z" stroke="#063D7A" stroke-miterlimit="10"/>
<path d="M201.047 221.27V243.216C201.047 244.788 214.644 248.482 231.935 248.482C249.226 248.482 263.659 244.788 263.659 243.216V221.27H201.047Z" fill="white" stroke="#063D7A" stroke-miterlimit="10"/>
<path d="M201.047 234.879C201.047 236.451 214.644 240.152 231.935 240.152C249.226 240.152 263.659 236.451 263.659 234.879" fill="white"/>
<path d="M201.047 234.879C201.047 236.451 214.644 240.152 231.935 240.152C249.226 240.152 263.659 236.451 263.659 234.879" stroke="#063D7A" stroke-width="2" stroke-miterlimit="10"/>
<path d="M263.659 221.267C263.659 221.954 261.007 222.827 256.583 223.589C240.518 226.001 224.182 226.001 208.117 223.589C203.699 222.827 201.047 221.954 201.047 221.267C201.047 219.689 215.062 218.422 232.347 218.422C249.632 218.422 263.659 219.689 263.659 221.267Z" fill="#9DC1EB" stroke="#063D7A" stroke-miterlimit="10"/>
<path d="M256.583 223.603C240.518 226.016 224.182 226.016 208.117 223.603C212.679 222.805 221.845 222.262 232.347 222.262C242.849 222.262 252.022 222.792 256.583 223.603Z" fill="#063D7A"/>
<path d="M243.548 124.348C243.548 124.348 243.548 121.116 239.024 116.598C234.5 112.08 231.598 109.484 231.598 109.484C231.598 109.484 229.333 116.916 233.533 121.446C236.621 124.634 239.971 127.556 243.548 130.182V124.348Z" fill="#9DC1EB"/>
<path d="M236.982 144.528C236.982 144.528 236.982 141.295 232.458 136.778C227.934 132.26 225.027 129.664 225.027 129.664C225.027 129.664 222.768 137.096 226.967 141.62C230.044 144.807 233.384 147.73 236.951 150.356L236.982 144.528Z" fill="#9DC1EB"/>
<path d="M243.26 129.858C243.26 129.858 243.609 126.638 248.583 122.62C253.556 118.601 256.695 116.336 256.695 116.336C256.695 116.336 258.161 123.967 253.506 128.017C250.106 130.85 246.474 133.392 242.648 135.618L243.26 129.858Z" fill="#9DC1EB"/>
<path d="M235.335 153.714C235.335 153.714 236.009 150.557 241.382 147.081C246.754 143.606 250.118 141.684 250.118 141.684C250.118 141.684 250.773 149.427 245.719 152.972C242.032 155.438 238.145 157.592 234.1 159.411L235.335 153.714Z" fill="#9DC1EB"/>
<path d="M236.826 179.664C236.826 179.664 236.826 176.432 241.344 171.908C245.862 167.384 248.776 164.801 248.776 164.801C248.776 164.801 251.041 172.233 246.841 176.75C243.755 179.939 240.405 182.862 236.826 185.486V179.664Z" fill="#9DC1EB"/>
<path d="M236.752 186.004C236.752 186.004 237.208 182.803 233.376 177.686C229.545 172.569 227.049 169.574 227.049 169.574C227.049 169.574 223.748 176.6 227.267 181.655C229.872 185.245 232.773 188.61 235.941 191.714L236.752 186.004Z" fill="#9DC1EB"/>
<path d="M232.285 204.825C232.285 204.825 232.285 201.592 236.815 197.075C241.346 192.557 244.241 189.961 244.241 189.961C244.241 189.961 246.481 197.393 242.3 201.917C239.211 205.102 235.861 208.024 232.285 210.653V204.825Z" fill="#9DC1EB"/>
<path d="M244.259 216.53C242.538 219.564 240.621 222.483 238.518 225.266C237.931 225.266 237.332 225.31 236.733 225.322H236.222L235.354 222.002L235.305 221.815C235.141 220.829 235.184 219.82 235.429 218.851C235.702 217.525 236.144 216.239 236.746 215.026C237.02 214.446 237.37 213.828 237.719 213.185C240.952 207.688 243.104 204.449 243.104 204.449C243.104 204.449 247.179 211.064 244.259 216.53Z" fill="#9DC1EB"/>
<path d="M236.073 225.355C235.761 224.313 235.449 223.246 235.143 222.179C234.906 221.349 234.675 220.519 234.444 219.683C234.213 218.847 234.007 218.092 233.82 217.318C233.127 214.716 232.572 212.383 232.291 210.716C232.007 208.933 232.007 207.115 232.291 205.331C232.416 204.483 232.591 203.628 232.803 202.76C233.595 199.466 234.868 195.94 235.817 191.591C236.023 190.667 236.21 189.719 236.372 188.72V188.602C236.459 188.047 236.547 187.472 236.622 186.886C236.622 186.736 236.659 186.593 236.672 186.443C236.703 186.175 236.734 185.906 236.753 185.632V185.6C236.784 185.301 236.803 184.976 236.815 184.702C236.874 183.534 236.874 182.363 236.815 181.195C236.441 173.333 233.807 165.695 234.319 159.249C234.375 158.517 234.479 157.789 234.631 157.071C235.016 155.322 235.516 153.6 236.129 151.917C236.328 151.337 236.547 150.763 236.753 150.188C236.753 150.151 236.753 150.114 236.796 150.07C236.84 150.026 236.884 149.851 236.921 149.745C238.949 144.666 241.439 139.867 242.662 133.521C242.812 132.698 242.949 131.88 243.074 131.057V131.025C243.124 130.663 243.18 130.302 243.23 129.94C243.23 129.74 243.286 129.534 243.311 129.316C243.38 128.841 243.436 128.355 243.486 127.88C243.661 126.414 243.792 124.941 243.898 123.469" stroke="#063D7A" stroke-linecap="round" stroke-linejoin="round"/>
<path d="M243.217 131.999L248.096 128.262" stroke="#063D7A" stroke-linecap="round" stroke-linejoin="round"/>
<path d="M243.447 127.694L241.406 124.062" stroke="#063D7A" stroke-linecap="round" stroke-linejoin="round"/>
<path d="M234.943 156.715C234.943 156.715 239.024 153.651 243.218 150.594" stroke="#063D7A" stroke-linecap="round" stroke-linejoin="round"/>
<path d="M236.984 150.345C236.984 150.345 233.583 143.68 229.727 139.25" stroke="#063D7A" stroke-linecap="round" stroke-linejoin="round"/>
<path d="M236.988 184.291C239.319 180.004 242.262 176.079 245.724 172.641" stroke="#063D7A" stroke-linecap="round" stroke-linejoin="round"/>
<path d="M236.19 188.797C234.953 185.882 233.473 183.076 231.766 180.41C229.388 176.897 229.045 176.441 229.045 176.441" stroke="#063D7A" stroke-linecap="round" stroke-linejoin="round"/>
<path d="M232.285 210.742C233.321 208.176 234.55 205.691 235.961 203.31C237.374 201.102 238.968 199.014 240.728 197.07" stroke="#063D7A" stroke-linecap="round" stroke-linejoin="round"/>
<path d="M236.734 225.343C236.793 223.597 237.218 221.884 237.982 220.313C239.711 217.025 241.614 212.713 242.407 211.016" stroke="#063D7A" stroke-linecap="round" stroke-linejoin="round"/>
<path d="M213.933 167.515C213.933 167.515 213.578 165.487 215.924 162.161C218.27 158.835 219.811 156.895 219.811 156.895C219.811 156.895 222.039 161.306 219.892 164.607C218.301 166.937 216.517 169.129 214.557 171.159L213.933 167.515Z" fill="#9DC1EB"/>
<path d="M220.235 179.452C220.235 179.452 219.886 177.424 222.232 174.105C224.578 170.785 226.12 168.832 226.12 168.832C226.12 168.832 228.341 173.25 226.201 176.538C224.62 178.869 222.845 181.063 220.897 183.097L220.235 179.452Z" fill="#9DC1EB"/>
<path d="M214.7 170.936C214.7 170.936 214.126 168.951 210.582 166.973C207.037 164.995 204.797 163.922 204.797 163.922C204.797 163.922 204.71 168.864 208.098 170.886C210.54 172.298 213.097 173.5 215.742 174.48L214.7 170.936Z" fill="#9DC1EB"/>
<path d="M222.263 185.012C222.263 185.012 221.496 183.109 217.752 181.512C214.008 179.914 211.674 179.078 211.674 179.078C211.674 179.078 212.104 184.001 215.655 185.674C218.231 186.82 220.899 187.748 223.63 188.451L222.263 185.012Z" fill="#9DC1EB"/>
<path d="M224.147 201.475C224.147 201.475 223.798 199.441 220.472 197.107C217.146 194.774 215.043 193.457 215.043 193.457C215.043 193.457 214.419 198.362 217.539 200.745C219.825 202.395 222.242 203.856 224.765 205.113L224.147 201.475Z" fill="#9DC1EB"/>
<path d="M224.884 205.437C224.884 205.437 224.26 203.478 226.094 199.859C227.929 196.24 229.214 194.105 229.214 194.105C229.214 194.105 232.047 198.161 230.369 201.718C229.116 204.252 227.655 206.677 226.001 208.969L224.884 205.437Z" fill="#9DC1EB"/>
<path d="M230.561 221.778C230.561 221.778 230.798 219.737 234.012 217.173C237.226 214.608 239.229 213.223 239.229 213.223C239.229 213.223 240.121 218.084 237.138 220.636C234.953 222.425 232.621 224.028 230.168 225.428L230.561 221.778Z" fill="#9DC1EB"/>
<path d="M229.72 216.737C229.72 216.737 229.37 214.715 226.044 212.369C222.718 210.023 220.615 208.719 220.615 208.719C220.615 208.719 219.991 213.623 223.111 216.001C225.397 217.655 227.816 219.116 230.344 220.369L229.72 216.737Z" fill="#9DC1EB"/>
<path d="M229.052 225.367C228.204 225.367 227.355 225.33 226.525 225.299C225.439 225.268 224.378 225.218 223.336 225.168C221.14 222.091 222.9 217.68 222.9 217.68C222.9 217.68 224.597 219.464 227.224 222.591C227.952 223.432 228.567 224.366 229.052 225.367Z" fill="#9DC1EB"/>
<path opacity="0.2" d="M243.548 124.348C243.548 124.348 243.548 121.116 239.024 116.598C234.5 112.08 231.598 109.484 231.598 109.484C231.598 109.484 229.333 116.916 233.533 121.446C236.621 124.634 239.971 127.556 243.548 130.182V124.348Z" fill="#021429"/>
<path opacity="0.2" d="M236.982 144.528C236.982 144.528 236.982 141.295 232.458 136.778C227.934 132.26 225.027 129.664 225.027 129.664C225.027 129.664 222.768 137.096 226.967 141.62C230.044 144.807 233.384 147.73 236.951 150.356L236.982 144.528Z" fill="#021429"/>
<path opacity="0.2" d="M243.26 129.858C243.26 129.858 243.609 126.638 248.583 122.62C253.556 118.601 256.695 116.336 256.695 116.336C256.695 116.336 258.161 123.967 253.506 128.017C250.106 130.85 246.474 133.392 242.648 135.618L243.26 129.858Z" fill="#021429"/>
<path opacity="0.2" d="M235.335 153.714C235.335 153.714 236.009 150.557 241.382 147.081C246.754 143.606 250.118 141.684 250.118 141.684C250.118 141.684 250.773 149.427 245.719 152.972C242.032 155.438 238.145 157.592 234.1 159.411L235.335 153.714Z" fill="#021429"/>
<path opacity="0.2" d="M236.826 179.664C236.826 179.664 236.826 176.432 241.344 171.908C245.862 167.384 248.776 164.801 248.776 164.801C248.776 164.801 251.041 172.233 246.841 176.75C243.755 179.939 240.405 182.862 236.826 185.486V179.664Z" fill="#021429"/>
<path opacity="0.2" d="M232.285 204.825C232.285 204.825 232.285 201.592 236.815 197.075C241.346 192.557 244.241 189.961 244.241 189.961C244.241 189.961 246.481 197.393 242.3 201.917C239.211 205.102 235.861 208.024 232.285 210.653V204.825Z" fill="#021429"/>
<path opacity="0.2" d="M213.933 167.515C213.933 167.515 213.578 165.487 215.924 162.161C218.27 158.835 219.811 156.895 219.811 156.895C219.811 156.895 222.039 161.306 219.892 164.607C218.301 166.937 216.517 169.129 214.557 171.159L213.933 167.515Z" fill="#021429"/>
<path opacity="0.2" d="M233.377 177.688C229.539 172.565 227.049 169.576 227.049 169.576C227.049 169.576 226.906 169.876 226.712 170.394C226.56 169.849 226.362 169.319 226.12 168.809C226.12 168.809 224.578 170.755 222.232 174.081C219.886 177.407 220.235 179.429 220.235 179.429L220.859 183.073C222.616 181.246 224.232 179.29 225.695 177.22C225.822 178.81 226.362 180.339 227.261 181.657C229.866 185.247 232.767 188.611 235.935 191.716L236.746 185.981C236.746 185.981 237.208 182.805 233.377 177.688Z" fill="#021429"/>
<path opacity="0.2" d="M214.7 170.936C214.7 170.936 214.126 168.951 210.582 166.973C207.037 164.995 204.797 163.922 204.797 163.922C204.797 163.922 204.71 168.864 208.098 170.886C210.54 172.298 213.097 173.5 215.742 174.48L214.7 170.936Z" fill="#021429"/>
<path opacity="0.2" d="M222.263 185.012C222.263 185.012 221.496 183.109 217.752 181.512C214.008 179.914 211.674 179.078 211.674 179.078C211.674 179.078 212.104 184.001 215.655 185.674C218.231 186.82 220.899 187.748 223.63 188.451L222.263 185.012Z" fill="#021429"/>
<path opacity="0.2" d="M224.147 201.475C224.147 201.475 223.798 199.441 220.472 197.107C217.146 194.774 215.043 193.457 215.043 193.457C215.043 193.457 214.419 198.362 217.539 200.745C219.825 202.395 222.242 203.856 224.765 205.113L224.147 201.475Z" fill="#021429"/>
<path opacity="0.2" d="M224.884 205.437C224.884 205.437 224.26 203.478 226.094 199.859C227.929 196.24 229.214 194.105 229.214 194.105C229.214 194.105 232.047 198.161 230.369 201.718C229.116 204.252 227.655 206.677 226.001 208.969L224.884 205.437Z" fill="#021429"/>
<path opacity="0.2" d="M243.103 204.449C243.103 204.449 240.951 207.713 237.718 213.185C237.344 213.809 237.019 214.433 236.745 215.026C235.977 215.606 235.06 216.311 234.012 217.148C230.798 219.712 230.561 221.753 230.561 221.753L230.168 225.403C231.964 224.376 233.696 223.241 235.353 222.002L236.221 225.322H236.732C237.356 225.322 237.93 225.291 238.517 225.266C240.62 222.483 242.537 219.564 244.258 216.53C247.178 211.064 243.103 204.449 243.103 204.449Z" fill="#021429"/>
<path opacity="0.2" d="M229.72 216.737C229.72 216.737 229.37 214.715 226.044 212.369C222.718 210.023 220.615 208.719 220.615 208.719C220.615 208.719 219.991 213.623 223.111 216.001C225.397 217.655 227.816 219.116 230.344 220.369L229.72 216.737Z" fill="#021429"/>
<path opacity="0.2" d="M229.052 225.367C228.204 225.367 227.355 225.33 226.525 225.299C225.439 225.268 224.378 225.218 223.336 225.168C221.14 222.091 222.9 217.68 222.9 217.68C222.9 217.68 224.597 219.464 227.224 222.591C227.952 223.432 228.567 224.366 229.052 225.367Z" fill="#021429"/>
<path d="M230.068 225.381C230.249 223.428 230.368 221.637 230.362 220.464C230.343 219.329 230.147 218.205 229.781 217.131C229.613 216.595 229.394 216.052 229.157 215.503C228.296 213.537 227.123 211.478 226.069 208.876C225.806 208.252 225.557 207.59 225.332 206.885C225.232 206.598 225.133 206.299 225.039 205.999C225.042 205.956 225.042 205.912 225.039 205.868C224.97 205.65 224.914 205.431 224.852 205.213C224.796 205.02 224.752 204.82 224.708 204.589C224.565 203.965 224.459 203.304 224.371 202.655C223.71 197.625 224.552 192.458 223.504 188.415C223.386 187.964 223.242 187.52 223.073 187.086C222.644 186.035 222.146 185.013 221.582 184.028C221.389 183.679 221.189 183.342 220.958 183.011C220.949 182.988 220.938 182.965 220.927 182.942C220.883 182.868 220.846 182.805 220.802 182.743C218.986 179.773 216.902 177.039 215.448 173.196C215.261 172.696 215.086 172.191 214.918 171.673C214.905 171.647 214.894 171.62 214.887 171.592C214.824 171.398 214.762 171.211 214.706 171.012C214.668 170.912 214.631 170.806 214.6 170.7C214.5 170.388 214.406 170.076 214.312 169.764C214.044 168.865 213.801 167.96 213.576 167.043" stroke="#063D7A" stroke-linecap="round" stroke-linejoin="round"/>
<path d="M214.969 172.273L211.506 170.457" stroke="#063D7A" stroke-linecap="round" stroke-linejoin="round"/>
<path d="M214.357 169.601L215.244 167.105" stroke="#063D7A" stroke-linecap="round" stroke-linejoin="round"/>
<path d="M222.837 186.873C222.837 186.873 219.961 185.4 216.984 183.934" stroke="#063D7A" stroke-linecap="round" stroke-linejoin="round"/>
<path d="M220.896 183.097C221.745 180.411 222.863 177.819 224.235 175.359" stroke="#063D7A" stroke-linecap="round" stroke-linejoin="round"/>
<path d="M224.546 204.368C222.619 201.935 220.349 199.796 217.807 198.016" stroke="#063D7A" stroke-linecap="round" stroke-linejoin="round"/>
<path d="M225.539 207.126C226 205.159 226.627 203.235 227.411 201.373C228.528 198.914 228.659 198.59 228.659 198.59" stroke="#063D7A" stroke-linecap="round" stroke-linejoin="round"/>
<path d="M230.213 223.964C231.344 222.568 232.597 221.275 233.957 220.101C234.819 219.464 235.629 218.759 236.378 217.992" stroke="#063D7A" stroke-linecap="round" stroke-linejoin="round"/>
<path d="M230.363 220.482C229.435 218.983 228.391 217.558 227.243 216.22C226.119 214.991 224.893 213.857 223.58 212.832" stroke="#063D7A" stroke-linecap="round" stroke-linejoin="round"/>
<path d="M224.055 221.73C224.535 222.417 225.502 223.852 226.551 225.293" stroke="#063D7A" stroke-linecap="round" stroke-linejoin="round"/>
<path d="M171.693 238.638C166.027 234.663 159.494 228.23 157.341 218.863C155.616 223.319 153.29 227.518 150.427 231.343C146.389 236.57 140.796 240.379 134.453 242.22C132.899 242.694 132.025 243.224 132.025 243.786C132.025 245.776 142.995 247.393 156.53 247.393C170.064 247.393 181.041 245.776 181.041 243.786C181.041 243.299 180.367 242.825 179.169 242.401C176.517 241.494 174.001 240.228 171.693 238.638Z" fill="white" stroke="#063D7A" stroke-miterlimit="10"/>
<path d="M154.865 137.488L149.785 223.245L156.699 233.26L163.519 224.611L159.594 137.725L154.865 137.488Z" fill="white" stroke="#063D7A" stroke-miterlimit="10"/>
<path d="M184.784 130.148H116.85V134.629C116.85 138.042 134.858 140.813 157.073 140.813C179.287 140.813 197.296 138.042 197.296 134.629V130.148H184.784Z" fill="#063D7A"/>
<path d="M157.073 136.333C179.287 136.333 197.296 133.564 197.296 130.149C197.296 126.733 179.287 123.965 157.073 123.965C134.858 123.965 116.85 126.733 116.85 130.149C116.85 133.564 134.858 136.333 157.073 136.333Z" fill="#9DC1EB"/>
<path d="M157.073 136.333C179.287 136.333 197.296 133.564 197.296 130.149C197.296 126.733 179.287 123.965 157.073 123.965C134.858 123.965 116.85 126.733 116.85 130.149C116.85 133.564 134.858 136.333 157.073 136.333Z" stroke="#063D7A" stroke-linecap="round" stroke-linejoin="round"/>
<path d="M184.51 117.77H163.918C163.918 117.77 163.918 123.298 166.826 130.53C166.826 131.916 170.152 133.026 174.258 133.026C178.364 133.026 181.683 131.909 181.683 130.53C181.689 130.462 181.689 130.393 181.683 130.324C184.479 123.192 184.51 117.77 184.51 117.77Z" fill="white" stroke="#063D7A" stroke-linecap="round" stroke-linejoin="round"/>
<path d="M174.283 120.769C179.993 120.769 184.623 119.425 184.623 117.767C184.623 116.109 179.993 114.766 174.283 114.766C168.573 114.766 163.943 116.109 163.943 117.767C163.943 119.425 168.573 120.769 174.283 120.769Z" fill="white" stroke="#063D7A" stroke-linecap="round" stroke-linejoin="round"/>
<path d="M174.283 120.279C179.407 120.279 183.562 119.156 183.562 117.77C183.562 116.385 179.407 115.262 174.283 115.262C169.158 115.262 165.004 116.385 165.004 117.77C165.004 119.156 169.158 120.279 174.283 120.279Z" fill="white" stroke="#063D7A" stroke-linecap="round" stroke-linejoin="round"/>
<path d="M165.877 118.828C167.362 119.683 170.563 120.27 174.282 120.27C178.001 120.27 181.202 119.683 182.681 118.828C181.202 117.98 177.995 117.387 174.282 117.387C170.569 117.387 167.362 117.98 165.877 118.828Z" fill="#063D7A" stroke="#063D7A" stroke-linecap="round" stroke-linejoin="round"/>
<path d="M169.957 119.065C169.957 119.065 167.268 112.351 168.054 110.56C168.84 108.769 171.411 108.994 172.31 110.785C173.208 112.576 173.651 119.29 173.651 119.29C173.651 119.29 170.974 120.189 169.957 119.065Z" fill="#9DC1EB" stroke="#063D7A" stroke-miterlimit="10"/>
<path d="M172.311 119.741C172.311 119.741 170.184 107.885 170.739 105.638C171.294 103.392 174.102 102.612 176.112 104.29C178.121 105.969 177.36 114.48 177.36 115.71C177.36 116.939 177.247 119.516 177.247 119.516C175.652 120.032 173.947 120.109 172.311 119.741Z" fill="#9DC1EB" stroke="#063D7A" stroke-miterlimit="10"/>
<path d="M176.673 119.515C176.673 119.515 175.013 114.923 176.006 113.132C176.998 111.341 179.026 112.015 179.026 113.469C179.026 114.923 179.138 118.398 178.914 119.178C178.689 119.958 177.46 120.189 176.673 119.515Z" fill="#9DC1EB" stroke="#063D7A" stroke-miterlimit="10"/>
<path d="M174.213 119.389C171.411 108.781 173.764 103.496 173.764 103.496C173.764 103.496 177.121 109.318 175.33 119.389" stroke="#063D7A" stroke-linecap="round" stroke-linejoin="round"/>
<path d="M169.621 110.336C169.621 110.336 167.044 110.448 171.299 119.29" stroke="#063D7A" stroke-linecap="round" stroke-linejoin="round"/>
<path d="M108.388 239.678C102.722 236.171 96.1892 230.506 94.0364 222.25C92.2799 226.227 89.9505 229.925 87.1225 233.226C83.1476 237.875 77.4692 241.12 71.1481 242.811C69.5943 243.229 68.7207 243.697 68.7207 244.19C68.7207 245.943 79.6906 247.366 93.2252 247.366C106.76 247.366 117.736 245.943 117.736 244.19C117.736 243.759 117.062 243.341 115.864 242.942C113.245 242.172 110.733 241.076 108.388 239.678Z" fill="white" stroke="#063D7A" stroke-miterlimit="10"/>
<path d="M91.5598 150.555L86.4805 226.108L93.3944 234.938L100.215 227.319L96.2897 150.767L91.5598 150.555Z" fill="white" stroke="#063D7A" stroke-miterlimit="10"/>
<path d="M120.961 154.023H53.0391V158.51C53.0391 161.917 71.0477 164.688 93.2621 164.688C115.477 164.688 133.485 161.917 133.485 158.51V154.023H120.961Z" fill="#063D7A"/>
<path d="M93.2562 160.211C115.471 160.211 133.479 157.443 133.479 154.028C133.479 150.612 115.471 147.844 93.2562 147.844C71.0417 147.844 53.0332 150.612 53.0332 154.028C53.0332 157.443 71.0417 160.211 93.2562 160.211Z" fill="#9DC1EB" stroke="#063D7A" stroke-miterlimit="10"/>
<path d="M157.746 227.578C156.398 229.076 154.002 229.07 152.13 228.483C149.21 227.585 146.701 225.663 143.824 224.652C140.293 223.404 136.105 223.454 133.36 220.908C131.985 219.533 131.079 217.76 130.77 215.841L130.695 215.417C130.453 213.357 130.438 211.277 130.652 209.214L137.485 205.227C141.99 211.623 149.653 217.669 154.039 221.207C155.156 222.051 156.211 222.973 157.197 223.965C158.776 225.925 157.746 227.578 157.746 227.578Z" fill="white"/>
<path d="M130.628 209.209C130.415 211.272 130.43 213.352 130.672 215.412C130.928 217.487 131.865 219.418 133.336 220.903C136.082 223.455 140.269 223.399 143.801 224.647C146.677 225.658 149.186 227.58 152.106 228.478C154.028 229.065 156.399 229.071 157.722 227.574C157.722 227.574 158.752 225.92 157.148 223.954C155.544 221.989 143.57 213.92 137.436 205.234L130.628 209.209Z" stroke="#063D7A" stroke-miterlimit="10"/>
<path d="M74.8038 128.175C74.8038 128.175 66.9164 136.237 67.634 145.952C68.3516 155.668 80.944 159.98 89.2619 163.306C94.4322 165.424 99.2083 168.398 103.389 172.104C103.389 172.104 100.675 179.711 107.807 189.214C114.939 198.718 131.107 210.611 131.107 210.611C132.596 210.596 134.045 210.134 135.269 209.287C136.492 208.439 137.434 207.244 137.971 205.856C137.971 205.856 122.371 178.519 118.521 167.112C118.521 167.112 117.804 158.376 114.209 155.225C114.209 155.225 118.977 150.133 118.933 144.411C118.889 138.689 113.567 129.766 107.327 125.629L106.865 127.058L101.249 131.619C101.249 131.619 88.4569 132.63 79.5836 125.267V123.133L78.8785 124.019L74.8038 128.175Z" fill="#063D7A"/>
<path d="M112.357 152.586C113.033 153.428 113.658 154.309 114.229 155.225" stroke="white" stroke-linecap="round" stroke-linejoin="round"/>
<path d="M96.625 137.73C96.625 137.73 104.974 144.176 110.646 150.56" stroke="white" stroke-linecap="round" stroke-linejoin="round"/>
<path d="M103.391 143.403C103.391 143.403 106.348 140.57 106.891 137.73" stroke="white" stroke-linecap="round" stroke-linejoin="round"/>
<path d="M157.746 227.579C156.398 229.076 154.002 229.07 152.13 228.483C149.21 227.585 146.701 225.663 143.825 224.652C140.293 223.404 136.106 223.454 133.36 220.908C131.95 219.598 130.677 216.671 130.496 213.133C132.158 214.838 134.071 216.28 136.168 217.407C138.29 218.518 140.536 219.828 142.639 220.977C144.799 222.256 147.18 223.115 149.659 223.51C150.392 223.59 151.134 223.507 151.831 223.267C153.597 222.499 153.322 221.314 153.366 220.702C154.699 221.722 155.978 222.811 157.197 223.966C158.776 225.925 157.746 227.579 157.746 227.579Z" fill="#063D7A"/>
<path d="M99.3597 236.292C99.3597 241.19 97.8871 246.276 94.4676 249.758C93.9049 250.427 93.1372 250.892 92.2836 251.081C91.726 251.1 91.1723 250.982 90.6715 250.736C90.1708 250.49 89.7385 250.124 89.4132 249.671C88.0404 247.998 87.6161 245.714 87.7097 243.549C87.8033 241.384 88.3337 239.268 88.6769 237.128C88.8141 236.236 88.9202 235.344 88.9889 234.445C89.146 232.303 89.1 230.151 88.8516 228.018C88.5833 225.715 88.0716 223.425 89.7626 221.665C91.0543 220.324 93.5066 218.308 95.3786 219.837C95.9608 220.412 96.3658 221.142 96.5455 221.94C96.8325 222.832 97.1196 223.725 97.3879 224.629C98.6092 228.4 99.2734 232.329 99.3597 236.292Z" fill="white"/>
<path d="M88.8502 228.018C89.2041 231.048 89.1453 234.113 88.6755 237.128C88.3386 239.268 87.7957 241.384 87.7083 243.549C87.621 245.714 88.039 247.998 89.4118 249.671C89.7372 250.124 90.1694 250.49 90.6702 250.736C91.1709 250.982 91.7247 251.1 92.2822 251.081C93.1359 250.892 93.9035 250.427 94.4662 249.758C97.8857 246.251 99.3521 241.19 99.3584 236.292C99.3646 231.394 98.0355 226.595 96.5192 221.94C96.3395 221.142 95.9345 220.412 95.3523 219.837C93.4803 218.308 91.0529 220.324 89.7363 221.665C88.0702 223.425 88.6069 225.715 88.8502 228.018Z" stroke="#063D7A" stroke-miterlimit="10"/>
<path d="M88.7519 224.848C88.7519 224.848 92.265 230.12 97.3693 224.848C97.3693 224.848 96.6642 210.071 98.2429 202.427C99.8216 194.783 105.806 170.866 97.3693 162.604C88.9329 154.342 81.3638 162.073 79.9598 168.756C78.5558 175.439 82.9488 194.428 85.5758 203.22C88.2028 212.012 88.7519 224.848 88.7519 224.848Z" fill="#063D7A"/>
<path d="M100.101 166.871C100.101 166.871 94.8469 153.087 83.6523 161.061" stroke="white" stroke-linecap="round" stroke-linejoin="round"/>
<path d="M99.3597 236.292C99.3597 241.19 97.8871 246.276 94.4676 249.758C93.9049 250.427 93.1372 250.892 92.2836 251.081C91.726 251.1 91.1723 250.981 90.6715 250.735C90.1708 250.489 89.7385 250.123 89.4132 249.67C88.0404 247.998 87.6161 245.714 87.7097 243.549C87.8033 241.383 88.3337 239.268 88.6769 237.128C88.8141 236.235 88.9202 235.343 88.9889 234.445C89.382 236.317 89.4568 240.454 89.513 241.221C89.5341 241.979 89.6644 242.729 89.8999 243.449C90.0206 243.808 90.2175 244.136 90.4771 244.412C90.7366 244.688 91.0527 244.904 91.4037 245.046C91.8616 245.17 92.3447 245.166 92.8002 245.034C93.2558 244.902 93.6663 244.647 93.9871 244.298C94.6204 243.59 95.0874 242.75 95.3536 241.839C97.0384 237.084 97.2631 231.948 97.1944 226.907C97.153 226.143 97.2096 225.378 97.3629 224.629C98.5927 228.399 99.2654 232.328 99.3597 236.292Z" fill="#063D7A"/>
<path d="M77.2944 66.3504C76.7094 67.7113 76.4859 69.2001 76.6455 70.6728C76.8051 72.1454 77.3424 73.5518 78.2054 74.7557C81.1881 79.0051 90.3671 82.9862 95.6774 80.7274C100.988 78.4685 110.547 78.587 114.928 81.3514C119.308 84.1157 135.776 82.2187 135.776 72.2285C135.776 72.2285 138.034 74.2128 137.504 77.1206C137.504 77.1206 144.805 70.6623 136.175 61.0714C136.175 61.0714 138.621 56.6472 133.479 55.992C128.337 55.3368 127.863 52.5475 127.37 49.6272C126.877 46.7069 126.996 39.5808 120.606 39.6432C120.606 39.6432 110.285 29.4221 98.7662 34.464C87.2471 39.5059 90.0302 46.944 84.6139 45.8894C84.3914 46.5343 84.3914 47.2351 84.6139 47.88C84.6139 47.88 86.3423 51.8611 83.8214 53.7207C81.3004 55.5802 74.5987 58.9061 74.2617 68.0727C74.5549 67.5301 74.9947 67.0809 75.5309 66.7764C76.0672 66.4719 76.6782 66.3243 77.2944 66.3504Z" fill="#063D7A"/>
<path d="M94.1426 76.2953L96.0895 75.2595V70.4609C96.0895 70.4609 99.0847 75.9584 102.492 76.5387C105.899 77.119 109.849 71.1723 109.849 71.1723C109.849 71.1723 109.175 74.9974 109.849 75.9584C110.523 76.9193 116.157 79.8646 116.157 79.8646C116.157 79.8646 107.502 88.0078 105.549 94.2166C105.549 94.2166 104.925 88.351 100.882 85.2622C97.7929 83.0107 95.4464 79.8885 94.1426 76.2953Z" fill="white"/>
<path d="M94.1426 76.2959C91.8588 76.9714 89.458 77.1565 87.0977 76.8387C83.6969 76.2147 78.137 74.2055 74.106 77.1195C70.0749 80.0336 70.8237 91.7336 70.362 95.0096C69.9002 98.2856 69.5196 101.481 66.7178 104.301C63.9161 107.122 62.0378 115.215 62.7741 118.204C62.7741 118.204 60.7087 121.006 62.2125 126.203C63.7164 131.401 64.9207 130.434 64.9207 130.434C64.9207 130.434 71.0858 130.678 74.2807 128.749C74.2807 128.749 77.4756 126.154 78.5426 124.013C79.6097 121.873 77.825 118.204 77.825 118.204L79.6034 120.076V125.286C79.6034 125.286 86.2802 130.16 93.1317 131.121C101.244 131.638 100.975 131.626 100.975 131.626L106.716 127.576C106.716 127.576 109.212 119.807 111.59 116.999C113.967 114.191 119.552 109.368 119.908 106.516C120.263 103.665 119.046 96.9253 119.046 96.9253C119.046 96.9253 123.121 101.187 124.07 106.011C125.018 110.834 137.798 101.081 137.798 101.081C137.798 101.081 134.022 93.9301 133.03 90.08C132.038 86.23 130.534 81.7059 126.828 81.1568C123.121 80.6077 115.852 80.0773 115.852 80.0773C115.852 80.0773 107.833 87.5653 105.606 94.5479C105.606 94.5479 104.763 89.1316 100.857 85.2877C96.9506 81.4439 94.2549 78.9915 94.1426 76.2959Z" fill="#9DC1EB"/>
<path opacity="0.6" d="M116.158 79.8662C116.158 79.8662 107.515 88.2215 105.774 93.538C105.774 93.538 103.59 87.922 100.277 84.671C96.9635 81.4199 95.3286 78.8865 94.143 76.2969L92.5581 76.8398C92.5581 76.8398 91.023 80.5463 90.7734 82.281L95.26 84.6834L94.8918 92.9202C94.8918 92.9202 102.804 101.07 103.628 106.024L105.799 107.272C105.799 107.272 106.86 101.101 106.355 97.7438C106.355 97.7438 107.603 96.0714 110.673 94.8359C113.743 93.6004 115.833 92.5084 115.833 92.5084L114.96 87.2169C117.212 86.6638 119.397 85.8644 121.474 84.8332L117.574 80.1782L116.158 79.8662Z" fill="white"/>
<path opacity="0.2" d="M129.878 102.894C129.878 102.894 127.382 95.7801 117.323 91.1562L117.86 93.2779L115.32 92.9471C115.32 92.9471 115.944 103.767 112.262 107.299C108.581 110.831 94.416 107.979 90.7344 111.149L97.1678 111.655C97.1678 111.655 91.6142 113.177 91.3209 115.087C91.0277 116.996 98.9587 116.004 102.135 117.495C102.135 117.495 102.877 126.855 100.076 131.548L100.98 131.61L106.865 127.061C106.865 127.061 110.422 117.346 113.105 115.087C115.788 112.828 119.856 109.065 119.794 106.032C119.732 103 119.232 96.6724 119.232 96.6724C119.232 96.6724 122.671 100.978 123.6 104.423C124.53 107.867 129.878 102.894 129.878 102.894Z" fill="#021429"/>
<path d="M129.522 115.373C129.522 115.373 131.631 124.234 139.725 124.016C139.725 124.016 140.673 124.446 141.734 122.013C142.795 119.579 143.881 117.071 142.87 112.297C141.859 107.524 138.527 102.238 138.527 102.238L128.836 107.692L129.522 115.373Z" fill="white"/>
<path d="M115.439 56.0123C115.439 56.0123 114.815 45.0611 106.703 42.484C98.5909 39.9069 91.5334 46.228 89.9609 54.8392C89.9609 54.8392 91.8329 63.9496 92.9998 66.1211C94.1667 68.2927 98.8841 75.6683 102.26 76.5482C105.636 77.428 110.328 70.7887 112.2 67.9183C114.072 65.0479 115.408 60.2181 115.682 56.0123" fill="white"/>
<path d="M115.439 56.0123C115.439 56.0123 114.815 45.0611 106.703 42.484C98.5909 39.9069 91.5334 46.228 89.9609 54.8392C89.9609 54.8392 91.8329 63.9496 92.9998 66.1211C94.1667 68.2927 98.8841 75.6683 102.26 76.5482C105.636 77.428 110.328 70.7887 112.2 67.9183C114.072 65.0479 115.408 60.2181 115.682 56.0123" stroke="#063D7A" stroke-miterlimit="10"/>
<path d="M102.117 67.9788C102.303 68.2954 102.535 68.5834 102.804 68.8336C103.752 69.7135 104.052 68.3157 104.052 67.5856C104 65.8378 104.302 64.0975 104.938 62.4688" stroke="#063D7A" stroke-linecap="round" stroke-linejoin="round"/>
<path d="M106.111 60.8264C106.866 59.672 108.782 58.3305 110.623 59.5784" stroke="#063D7A" stroke-linecap="round" stroke-linejoin="round"/>
<path d="M96.3379 59.0691C98.3597 57.8211 100.756 58.5699 101.149 60.2172" stroke="#063D7A" stroke-linecap="round" stroke-linejoin="round"/>
<path d="M107.952 63.8542C107.921 64.5842 107.628 65.1645 107.297 65.1521C106.966 65.1396 106.723 64.5281 106.748 63.8043C106.773 63.0805 107.072 62.4877 107.403 62.5002C107.734 62.5127 107.952 63.1117 107.952 63.8542Z" fill="#063D7A"/>
<path d="M99.5644 63.6472C99.5332 64.3773 99.2399 64.9576 98.9092 64.9452C98.5785 64.9327 98.3289 64.3212 98.3601 63.5973C98.3913 62.8735 98.6846 62.2807 99.0153 62.2932C99.346 62.3056 99.5957 62.9109 99.5644 63.6472Z" fill="#063D7A"/>
<path d="M114.223 63.7725C114.223 63.7725 114.89 64.1344 116.482 62.7491C118.073 61.3639 119.427 58.6745 118.778 57.5513C118.129 56.4281 116.157 58.0568 116.157 58.0568L114.223 63.7725Z" fill="white" stroke="#063D7A" stroke-miterlimit="10"/>
<path d="M90.143 56.5355C90.143 56.5355 88.452 55.5184 87.4723 56.3296C86.3865 57.2219 87.9652 60.2233 88.5081 61.0782C89.1945 62.1577 90.5424 63.075 91.6843 62.0891L90.143 56.5355Z" fill="white" stroke="#063D7A" stroke-miterlimit="10"/>
<path d="M98.791 69.1211C99.045 69.7737 99.4537 70.3549 99.9819 70.8147C100.51 71.2745 101.142 71.5991 101.824 71.7606" stroke="#063D7A" stroke-linecap="round" stroke-linejoin="round"/>
<path d="M110.23 70.6758C109.25 72.866 109.3 74.7942 109.881 77.1217" stroke="#063D7A" stroke-linecap="round" stroke-linejoin="round"/>
<path d="M95.8841 70.4609C96.0653 71.8509 96.1342 73.2532 96.09 74.6542C96.1543 75.5844 96.0225 76.5176 95.7031 77.3936" stroke="#063D7A" stroke-linecap="round" stroke-linejoin="round"/>
<path d="M89.3935 55.401C89.3935 55.401 98.6287 55.0328 100.757 45.4481C100.757 45.4481 104.8 55.6568 116.581 56.5367C116.581 56.5367 118.684 49.2795 117.499 44.6245C116.313 39.9694 110.51 35.9446 102.722 36.5873C94.9346 37.23 88.5011 40.0567 89.3935 55.401Z" fill="#063D7A"/>
<path d="M79.6094 120.063V125.273C79.6094 125.273 88.882 132.331 101.275 131.626L106.703 127.564C106.703 127.564 108.526 120.731 112.232 116.119C115.939 111.508 120.531 109.436 119.826 103.677C119.121 97.9172 118.928 95.9766 118.928 95.9766" stroke="#063D7A" stroke-linecap="round" stroke-linejoin="round"/>
<path d="M95.8833 75.7121C95.8833 75.7121 90.5793 77.7651 85.1568 76.5607C79.7342 75.3564 75.9902 75.0756 72.9326 78.1332C69.875 81.1908 71.5473 97.4772 68.9078 101.128C66.2683 104.778 61.2513 112.116 62.7801 118.225" stroke="#063D7A" stroke-linecap="round" stroke-linejoin="round"/>
<path d="M78.5227 121.155C79.9766 123.794 76.9502 126.147 74.7787 128.175C72.6072 130.203 66.4296 130.671 64.5201 130.321C62.6107 129.972 61.3003 123.289 61.656 121.142C62.0117 118.996 63.2097 116.968 65.0006 116.119C66.7915 115.27 68.1206 109.692 69.4373 108.93C70.7539 108.169 71.5401 110.646 71.5401 110.646" stroke="#063D7A" stroke-miterlimit="10"/>
<path d="M95.3457 111.434L107.489 112.912C108.637 113.05 109.891 113.249 110.646 114.123" stroke="#063D7A" stroke-linecap="round" stroke-linejoin="round"/>
<path d="M81.457 102.007C81.457 102.007 82.1933 95.811 81.457 92.9219" stroke="#063D7A" stroke-linecap="round" stroke-linejoin="round"/>
<path d="M81.7812 99.745C83.1007 98.4224 84.1779 96.8785 84.9637 95.1836" stroke="#063D7A" stroke-linecap="round" stroke-linejoin="round"/>
<path d="M126.79 102.019C125.978 101.887 125.214 101.548 124.572 101.034C123.93 100.519 123.431 99.8482 123.125 99.0848C122.818 98.3214 122.714 97.4917 122.823 96.6763C122.932 95.861 123.249 95.0875 123.745 94.4309C124.369 93.5698 125.311 92.9396 125.916 92.0472C126.268 91.516 126.493 90.9111 126.574 90.2792C126.656 89.6472 126.591 89.0051 126.384 88.4022C126.178 87.7993 125.836 87.2519 125.385 86.8019C124.934 86.352 124.386 86.0117 123.782 85.8072C124.981 85.7041 126.187 85.7167 127.383 85.8446C129.841 86.2003 131.333 87.9163 130.815 90.4997C130.297 93.0831 127.27 93.4263 125.473 94.8677C125.008 95.197 124.631 95.6356 124.376 96.1448C124.12 96.6541 123.993 97.2184 124.007 97.7881C124.051 98.6774 124.333 99.5386 124.822 100.283C125.312 101.026 125.991 101.626 126.79 102.019Z" fill="white" stroke="#063D7A" stroke-miterlimit="10"/>
<path d="M109.561 75.7109C111.869 77.8939 114.745 79.3837 117.86 80.0103C122.727 80.834 128.143 80.5969 129.953 82.7372C131.762 84.8775 134.464 96.3092 137.984 101.413C141.503 106.518 146.539 117.201 140.399 123.759C140.399 123.759 133.759 125.93 129.972 116.895" stroke="#063D7A" stroke-linecap="round" stroke-linejoin="round"/>
<path d="M117.861 94.6914C117.861 94.6914 121.718 99.1717 123.34 103.677" stroke="#063D7A" stroke-linecap="round" stroke-linejoin="round"/>
<path d="M126.047 116.121C127.751 115.026 129.78 114.548 131.794 114.767C135.114 115.16 134.808 116.09 134.227 116.327C133.647 116.564 124.774 118.592 124.481 118.068C124.187 117.544 126.047 116.121 126.047 116.121Z" fill="white" stroke="#063D7A" stroke-miterlimit="10"/>
<path d="M94.1426 76.2969C94.4234 79.2359 96.8695 81.4137 99.0223 83.4417C100.808 85.0292 102.353 86.8686 103.609 88.9017C106.86 94.5551 106.142 101.563 105.325 108.034" stroke="#063D7A" stroke-linecap="round" stroke-linejoin="round"/>
<path d="M92.9747 76.2656C91.929 77.998 91.1902 79.8979 90.7907 81.8816C90.7468 82.0175 90.7468 82.1638 90.7907 82.2997C90.8655 82.4154 90.9746 82.5048 91.1027 82.5555L95.2773 84.7021C94.8906 86.6994 94.7336 88.7344 94.8093 90.7674C94.8063 91.1356 94.861 91.5019 94.9715 91.8531C95.1622 92.2977 95.4354 92.7021 95.7765 93.045C99.1649 96.9075 102.822 100.982 103.62 106.055" stroke="#063D7A" stroke-linecap="round" stroke-linejoin="round"/>
<path d="M116.556 79.6367C115.686 80.1388 114.897 80.77 114.216 81.5087C110.593 85.1536 107.724 89.4772 105.773 94.2321" stroke="#063D7A" stroke-linecap="round" stroke-linejoin="round"/>
<path d="M117.08 79.6836C118.59 81.3476 120.046 83.074 121.448 84.8628C119.506 86.182 117.268 87.0008 114.933 87.2465C115.226 88.8439 115.513 90.4414 115.807 92.0326C115.853 92.1978 115.853 92.3727 115.807 92.538C115.699 92.7278 115.526 92.872 115.32 92.9436C112.231 94.4474 108.5 95.1026 106.328 97.7734" stroke="#063D7A" stroke-linecap="round" stroke-linejoin="round"/>
<path d="M100.756 45.4453C100.756 45.4453 101.299 57.7943 116.156 58.0564" stroke="#063D7A" stroke-linecap="round" stroke-linejoin="round"/>
<path d="M133.472 102.004C134.426 104.458 134.982 107.049 135.12 109.679C135.213 113.567 131.631 115.657 129.085 116.119C126.54 116.58 123.432 116.437 121.36 113.829C119.289 111.22 118.559 105.661 118.559 105.661L133.472 102.004Z" fill="white" stroke="#063D7A" stroke-miterlimit="10"/>
<path d="M136.843 101.105C136.348 101.131 135.863 101.258 135.42 101.48C133.12 102.449 130.912 103.625 128.824 104.993C128.637 105.118 128.425 105.274 128.406 105.499C128.406 105.848 128.799 106.041 129.143 106.123C131.146 106.497 133.205 106.054 135.189 105.611C135.769 105.509 136.333 105.333 136.868 105.087C138.528 104.238 139.632 101.143 136.843 101.105Z" fill="white" stroke="#063D7A" stroke-miterlimit="10"/>
<path d="M137.972 105.663C136.295 105.86 134.637 106.198 133.017 106.674C132.503 106.772 132.013 106.971 131.576 107.26C131.496 107.307 131.429 107.372 131.38 107.45C131.331 107.529 131.302 107.618 131.295 107.71C131.295 107.934 131.52 108.078 131.719 108.171C132.436 108.454 133.191 108.628 133.959 108.689C135.831 108.926 138.09 109.226 139.706 108.028C141.485 106.73 139.438 105.557 137.972 105.663Z" fill="white" stroke="#063D7A" stroke-miterlimit="10"/>
<path d="M133.093 109.758C132.538 109.754 131.992 109.894 131.508 110.163C131.357 110.246 131.236 110.372 131.158 110.525C131.105 110.689 131.106 110.865 131.161 111.028C131.216 111.191 131.323 111.332 131.464 111.43C131.75 111.617 132.074 111.739 132.413 111.786L135.788 112.516C136.487 112.665 137.33 112.778 137.767 112.079C137.913 111.835 137.991 111.556 137.991 111.271C137.991 110.986 137.913 110.707 137.767 110.463C136.937 109.446 134.228 109.683 133.093 109.758Z" fill="white" stroke="#063D7A" stroke-miterlimit="10"/>
<path d="M65.5507 115.645C64.5024 117.66 64.3901 120.013 64.3027 122.272" stroke="#063D7A" stroke-linecap="round" stroke-linejoin="round"/>
<path d="M66.293 116.988C66.3099 119.32 67.0106 121.596 68.3083 123.534C69.6061 125.472 71.4438 126.986 73.5938 127.89" stroke="#063D7A" stroke-linecap="round" stroke-linejoin="round"/>
<path d="M108.8 114.878C105.456 114.634 102.061 114.397 98.7852 115.09" stroke="#063D7A" stroke-linecap="round" stroke-linejoin="round"/>
<path d="M100.857 85.2773L88.6387 85.7391L91.0536 108.035L102.448 107.305L100.857 85.2773Z" fill="white" stroke="#063D7A" stroke-miterlimit="10"/>
<path d="M100.969 91.6613L101.65 92.8407L98.1677 99.2055C100.04 98.7562 103.079 95.4116 103.584 96.0855C104.089 96.7594 95.472 105.252 93.3629 105.782C91.8531 106.084 90.2987 106.084 88.789 105.782C87.1104 107.748 77.7317 123.136 77.7317 123.136C77.7317 123.136 68.1533 122.1 70.044 111.592C70.044 111.592 81.8501 101.97 85.3133 98.8935C85.3133 98.8935 86.6986 93.5084 88.8451 92.928L89.6064 94.8C89.6064 94.8 101.113 89.5397 101.462 89.9266C101.812 90.3135 101.462 91.2058 101.462 91.2058C101.462 91.2058 95.0352 97.1088 93.4939 97.4458" fill="white"/>
<path d="M100.969 91.6613L101.65 92.8407L98.1677 99.2055C100.04 98.7562 103.079 95.4116 103.584 96.0855C104.089 96.7594 95.472 105.252 93.3629 105.782C91.8531 106.084 90.2987 106.084 88.789 105.782C87.1104 107.748 77.7317 123.136 77.7317 123.136C77.7317 123.136 68.1533 122.1 70.044 111.592C70.044 111.592 81.8501 101.97 85.3133 98.8935C85.3133 98.8935 86.6986 93.3399 88.8451 92.928L89.6064 94.8C89.6064 94.8 101.113 89.5397 101.462 89.9266C101.812 90.3135 101.462 91.2058 101.462 91.2058C101.462 91.2058 95.0352 97.1088 93.4939 97.4458" stroke="#063D7A" stroke-miterlimit="10"/>
<path opacity="0.2" d="M101.236 43.0938C102.73 44.7868 104.404 46.3121 106.228 47.6427C107.052 48.1828 107.906 48.6745 108.787 49.1153C111.671 50.5829 114.68 51.79 117.779 52.722" stroke="white" stroke-width="0.75" stroke-linecap="round" stroke-linejoin="round"/>
<path opacity="0.2" d="M101.867 40.5898C106.223 43.2435 110.945 45.2429 115.882 46.5241" stroke="white" stroke-width="0.75" stroke-linecap="round" stroke-linejoin="round"/>
<path d="M96.3379 71.0859C96.3379 71.0859 98.0976 78.9671 102.116 79.6847C106.135 80.4023 109.336 71.8847 109.336 71.8847C109.336 71.8847 105.348 76.5709 102.834 76.5335C100.319 76.496 96.3379 71.0859 96.3379 71.0859Z" fill="#063D7A"/>
<path d="M91.434 89.3212C91.951 89.3212 92.37 88.9022 92.37 88.3852C92.37 87.8683 91.951 87.4492 91.434 87.4492C90.9171 87.4492 90.498 87.8683 90.498 88.3852C90.498 88.9022 90.9171 89.3212 91.434 89.3212Z" fill="white" stroke="#063D7A" stroke-miterlimit="10"/>
</svg>
