<svg width="32" height="33" viewBox="0 0 32 33" fill="none" xmlns="http://www.w3.org/2000/svg">
<path d="M18.8936 14.4468V17.3534" stroke="black" stroke-width="2" stroke-linecap="round" stroke-linejoin="round"/>
<path d="M9.7738 7.45996H8.62714C7.52737 7.45996 6.47265 7.89684 5.695 8.67449C4.91735 9.45214 4.48047 10.5069 4.48047 11.6066V26.3533C4.48047 27.4531 4.91735 28.5078 5.695 29.2854C6.47265 30.0631 7.52737 30.5 8.62714 30.5H23.3738C24.4736 30.5 25.5283 30.0631 26.3059 29.2854C27.0836 28.5078 27.5205 27.4531 27.5205 26.3533V11.6066C27.5205 10.5069 27.0836 9.45214 26.3059 8.67449C25.5283 7.89684 24.4736 7.45996 23.3738 7.45996H22.2138V8.99329C22.2138 9.11586 22.1897 9.23723 22.1428 9.35047C22.0959 9.4637 22.0271 9.56659 21.9404 9.65326C21.8538 9.73993 21.7509 9.80868 21.6376 9.85558C21.5244 9.90249 21.403 9.92663 21.2805 9.92663H10.6671C10.5435 9.9284 10.4206 9.90556 10.3059 9.85945C10.1911 9.81333 10.0866 9.74486 9.99853 9.65802C9.91045 9.57118 9.8405 9.46769 9.79277 9.35357C9.74503 9.23946 9.72046 9.11699 9.72047 8.99329L9.7738 7.45996Z" stroke="black" stroke-width="2" stroke-linecap="round" stroke-linejoin="round"/>
<path d="M13.1064 14.4468V17.3534" stroke="black" stroke-width="2" stroke-linecap="round" stroke-linejoin="round"/>
<path d="M20.1598 15.8999H11.8398" stroke="black" stroke-width="2" stroke-linecap="round" stroke-linejoin="round"/>
<path d="M20.1598 21.98H11.8398" stroke="black" stroke-width="2" stroke-linecap="round" stroke-linejoin="round"/>
<path d="M20.1598 26.0332H11.8398" stroke="black" stroke-width="2" stroke-linecap="round" stroke-linejoin="round"/>
<path d="M9.77307 8.99333V7.16667C9.76586 7.0423 9.78328 6.91774 9.8243 6.80012C9.86533 6.6825 9.92917 6.57414 10.0122 6.48124C10.0952 6.38834 10.1957 6.31273 10.3079 6.25875C10.4202 6.20477 10.542 6.17348 10.6664 6.16667H13.0264C13.0061 5.95827 13.0061 5.74839 13.0264 5.54C13.0264 4.73374 13.3467 3.96051 13.9168 3.3904C14.4869 2.82028 15.2601 2.5 16.0664 2.5C16.8727 2.5 17.6459 2.82028 18.216 3.3904C18.7861 3.96051 19.1064 4.73374 19.1064 5.54C19.1267 5.74839 19.1267 5.95827 19.1064 6.16667H21.3331C21.4568 6.16665 21.5792 6.19123 21.6933 6.23897C21.8075 6.2867 21.911 6.35665 21.9978 6.44473C22.0846 6.53282 22.1531 6.63729 22.1992 6.75207C22.2453 6.86685 22.2682 6.98965 22.2664 7.11333V8.99333C22.2664 9.1159 22.2423 9.23727 22.1954 9.3505C22.1485 9.46374 22.0797 9.56663 21.993 9.6533C21.9064 9.73997 21.8035 9.80872 21.6902 9.85562C21.577 9.90253 21.4556 9.92667 21.3331 9.92667H10.6664C10.4259 9.91635 10.1986 9.81348 10.0321 9.63955C9.86567 9.46562 9.77285 9.23409 9.77307 8.99333Z" stroke="black" stroke-width="2" stroke-linecap="round" stroke-linejoin="round"/>
</svg>
