<svg width="32" height="33" viewBox="0 0 32 33" fill="none" xmlns="http://www.w3.org/2000/svg">
<path d="M21.8621 3.36943L23.0408 1.8335M23.2211 5.23166L28 2.50303M24.0376 7.74424H26.4856M7.85289 22.5002V31.0488C7.85289 31.1479 7.96482 31.2027 8.03987 31.1404L12.763 27.2169C12.807 27.1803 12.8705 27.1822 12.9124 27.2213L15.3329 29.4805M17.51 22.5002V28.6891M22.4052 11.6545C22.4052 16.8727 18.2851 21.1028 13.2026 21.1028C8.12015 21.1028 4 16.8727 4 11.6545C4 6.43634 8.12015 2.20619 13.2026 2.20619C18.2851 2.20619 22.4052 6.43634 22.4052 11.6545ZM14.6002 8.94787L17.8205 8.66422C18.1744 8.63305 18.3597 9.07566 18.0883 9.29374C16.8983 10.2499 15.5553 11.5317 15.8218 12.1126C16.2538 13.0543 17.7658 16.5074 16.7938 16.4027C15.8218 16.2981 13.4458 13.6822 12.7978 14.1007C12.1498 14.5193 9.55777 17.6584 9.01777 16.4027C8.47777 15.1471 10.9618 12.9497 10.0978 12.1126C9.23377 11.2755 6.74979 9.91519 8.26179 9.60127C9.29479 9.38681 10.4013 9.30971 11.0163 9.29176C11.1755 9.28712 11.3142 9.18623 11.3577 9.04065C11.7845 7.61175 12.6326 5.35835 13.1218 6.14821C13.5737 6.87788 14.0036 8.03157 14.2258 8.70838C14.2761 8.86182 14.4317 8.96271 14.6002 8.94787Z" stroke="black" stroke-linecap="round"/>
</svg>
