<svg width="48" height="45" viewBox="0 0 48 45" fill="none" xmlns="http://www.w3.org/2000/svg">
<g clip-path="url(#clip0_18789_2159)">
<path fill-rule="evenodd" clip-rule="evenodd" d="M24 45C19.2533 45 14.6131 43.6804 10.6663 41.2081C6.71955 38.7357 3.64343 35.2217 1.82693 31.1104C0.0104237 26.999 -0.46489 22.475 0.461155 18.1105C1.3872 13.7459 3.67301 9.73679 7.02947 6.59011C10.3859 3.44343 14.6623 1.30051 19.3178 0.432345C23.9734 -0.435822 28.799 0.00973839 33.1844 1.71271C37.5699 3.41568 41.3181 6.29957 43.9553 9.99967C46.5924 13.6998 48 18.0499 48 22.5C48 28.4674 45.4715 34.1903 40.9706 38.4099C36.4697 42.6295 30.3652 45 24 45ZM10.4112 27.5738C9.89511 27.0846 9.60564 26.4243 9.60564 25.7363C9.60564 25.0482 9.89511 24.3879 10.4112 23.8988L11.824 22.5818C12.0643 22.3545 12.3508 22.1748 12.6666 22.0533C12.9824 21.9318 13.321 21.871 13.6623 21.8746C14.0036 21.8782 14.3406 21.946 14.6534 22.074C14.9663 22.2021 15.2484 22.3878 15.4832 22.62L17.9792 25.0478C18.0982 25.1655 18.2416 25.2592 18.4005 25.3233C18.5594 25.3874 18.7306 25.4204 18.9036 25.4204C19.0766 25.4204 19.2478 25.3874 19.4068 25.3233C19.5657 25.2592 19.709 25.1655 19.828 25.0478L32.548 12.7553C32.7845 12.5214 33.069 12.3347 33.3844 12.2066C33.6999 12.0784 34.0397 12.0114 34.3834 12.0095C34.7272 12.0076 35.0678 12.0709 35.3848 12.1955C35.7018 12.3202 35.9886 12.5037 36.228 12.735L37.6 14.0355C38.1035 14.5227 38.3851 15.1744 38.3851 15.8528C38.3851 16.5311 38.1035 17.1828 37.6 17.67L20.7128 33.7583C20.4772 33.9869 20.1952 34.1692 19.8834 34.2944C19.5716 34.4196 19.2362 34.4852 18.897 34.4873C18.5579 34.4894 18.2217 34.4279 17.9081 34.3066C17.5946 34.1853 17.3101 34.0065 17.0712 33.7808L10.4112 27.5738Z" fill="#699F4C"/>
</g>
<defs>
<clipPath id="clip0_18789_2159">
<rect width="48" height="45" fill="white"/>
</clipPath>
</defs>
</svg>
