<svg width="32" height="33" viewBox="0 0 32 33" fill="none" xmlns="http://www.w3.org/2000/svg">
<g clip-path="url(#clip0_18666_2579)">
<path d="M30.4188 12.788L29.3175 5.63065C29.2691 5.31594 29.1096 5.02894 28.868 4.82156C28.6264 4.61418 28.3185 4.50011 28.0001 4.49999C20.7108 4.49999 16.9748 0.92132 16.9428 0.890653C16.693 0.642319 16.355 0.50293 16.0028 0.50293C15.6505 0.50293 15.3126 0.642319 15.0628 0.890653C15.0255 0.92132 11.2895 4.49999 4.00013 4.49999C3.68171 4.50011 3.37386 4.61418 3.13224 4.82156C2.89062 5.02894 2.73119 5.31594 2.68279 5.63065L1.58146 12.788C1.08748 16.0393 1.60455 19.3638 3.06265 22.3115C4.52076 25.2592 6.84946 27.6876 9.73346 29.268L15.3601 32.3347C15.556 32.4416 15.7756 32.4976 15.9988 32.4976C16.222 32.4976 16.4416 32.4416 16.6375 32.3347L22.2641 29.268C25.1486 27.688 27.4779 25.2598 28.9365 22.3121C30.3951 19.3643 30.9125 16.0396 30.4188 12.788ZM20.9895 26.9213L16.0001 29.648L11.0108 26.9267C8.60643 25.6104 6.66463 23.5871 5.44834 21.1307C4.23205 18.6743 3.80004 15.9034 4.21079 13.1933L5.14413 7.13865C9.03705 7.05149 12.816 5.80807 16.0001 3.56665C19.183 5.80779 22.9604 7.05164 26.8521 7.13999L27.7855 13.1933C28.1966 15.903 27.7652 18.6736 26.5496 21.1299C25.3341 23.5863 23.3931 25.6099 20.9895 26.9267V26.9213Z" fill="black"/>
<path d="M20.3911 11.5574L13.3338 18.6147L11.6098 16.8907C11.4868 16.7634 11.3396 16.6618 11.177 16.5919C11.0143 16.522 10.8393 16.4853 10.6623 16.4837C10.4853 16.4822 10.3097 16.5159 10.1458 16.583C9.98197 16.65 9.8331 16.749 9.70791 16.8742C9.58272 16.9994 9.48371 17.1483 9.41667 17.3121C9.34963 17.476 9.31589 17.6515 9.31743 17.8286C9.31897 18.0056 9.35575 18.1806 9.42563 18.3433C9.49551 18.5059 9.59709 18.6531 9.72443 18.7761L12.3911 21.4427C12.6411 21.6927 12.9802 21.8331 13.3338 21.8331C13.6873 21.8331 14.0264 21.6927 14.2764 21.4427L22.2764 13.4427C22.5193 13.1913 22.6537 12.8544 22.6507 12.5049C22.6476 12.1553 22.5074 11.8208 22.2602 11.5736C22.013 11.3264 21.6786 11.1862 21.329 11.1832C20.9794 11.1801 20.6426 11.3145 20.3911 11.5574Z" fill="black"/>
</g>
<defs>
<clipPath id="clip0_18666_2579">
<rect width="32" height="32" fill="white" transform="translate(0 0.5)"/>
</clipPath>
</defs>
</svg>
