<svg width="32" height="33" viewBox="0 0 32 33" fill="none" xmlns="http://www.w3.org/2000/svg">
<g clip-path="url(#clip0_18666_2555)">
<path d="M15.9998 8.98486C22.3638 8.98486 27.5229 14.144 27.5229 20.5081C27.5229 26.8721 22.3638 32.0312 15.9998 32.0312C9.63569 32.0312 4.47656 26.8721 4.47656 20.5081C4.47656 17.5036 5.62644 14.7677 7.51006 12.7164" stroke="black" stroke-width="0.703125" stroke-miterlimit="10" stroke-linecap="round" stroke-linejoin="round"/>
<path d="M16 8.98496C16.5534 8.98496 17.002 8.53635 17.002 7.98296C17.002 7.42957 16.5534 6.98096 16 6.98096C15.4467 6.98096 14.998 7.42957 14.998 7.98296C14.998 8.53635 15.4467 8.98496 16 8.98496Z" stroke="black" stroke-width="0.703125" stroke-miterlimit="10" stroke-linecap="round" stroke-linejoin="round"/>
<path d="M15.9996 0.96875V6.98088M25.3753 22.5121C24.5917 27.9209 20.6922 32.0312 15.9996 32.0312C10.7423 32.0312 6.48047 26.8721 6.48047 20.5081C6.48047 17.9119 7.18972 15.5162 8.38647 13.5895M15.9996 8.98487C20.6922 8.98487 24.5917 13.0952 25.3753 18.504" stroke="black" stroke-width="0.703125" stroke-miterlimit="10" stroke-linecap="round" stroke-linejoin="round"/>
<path d="M21.9518 25.1928C20.9371 29.2222 18.6537 32.0312 15.9995 32.0312C12.4024 32.0312 9.48633 26.8721 9.48633 20.5081C9.48633 18.5193 9.77108 16.6482 10.2725 15.0154M15.9995 8.98486C18.6644 8.98486 20.9556 11.8166 21.964 15.8722" stroke="black" stroke-width="0.703125" stroke-miterlimit="10" stroke-linecap="round" stroke-linejoin="round"/>
<path d="M15.9998 8.98486C17.3833 8.98486 18.5048 14.144 18.5048 20.5081M18.5048 20.5081C18.5048 26.8721 17.3833 32.0312 15.9998 32.0312C14.6163 32.0312 13.4947 26.8721 13.4947 20.5081C13.4947 18.3237 13.6268 16.2812 13.8563 14.5407M18.5048 20.5081H4.47656M5.47856 15.999H26.5209M17.7894 11.9909H23.5149M5.47856 25.0171H26.5209M8.48462 29.0252H23.5149" stroke="black" stroke-width="0.703125" stroke-miterlimit="10" stroke-linecap="round" stroke-linejoin="round"/>
<path d="M15.4985 10.989C13.5616 10.989 11.9914 9.41881 11.9914 7.48193C11.9914 9.41881 10.4212 10.989 8.48438 10.989C10.4212 10.989 11.9914 12.5592 11.9914 14.4961C11.9914 12.5591 13.5616 10.989 15.4985 10.989ZM25.5186 20.5081C24.1351 20.5081 23.0136 19.3866 23.0136 18.0031C23.0136 19.3866 21.892 20.5081 20.5085 20.5081C21.892 20.5081 23.0136 21.6297 23.0136 23.0132C23.0136 21.6297 24.1352 20.5081 25.5186 20.5081Z" stroke="black" stroke-width="0.703125" stroke-miterlimit="10" stroke-linecap="round" stroke-linejoin="round"/>
</g>
<defs>
<clipPath id="clip0_18666_2555">
<rect width="32" height="32" fill="white" transform="translate(0 0.5)"/>
</clipPath>
</defs>
</svg>
