<svg width="32" height="33" viewBox="0 0 32 33" fill="none" xmlns="http://www.w3.org/2000/svg">
<path d="M30.0537 23.7534C30.0537 23.3503 29.8936 22.9637 29.6085 22.6786C29.3235 22.3935 28.9368 22.2334 28.5337 22.2334H3.57371C3.17058 22.2334 2.78396 22.3935 2.49891 22.6786C2.21385 22.9637 2.05371 23.3503 2.05371 23.7534V25.0867C2.05371 25.4899 2.21385 25.8765 2.49891 26.1615C2.78396 26.4466 3.17058 26.6067 3.57371 26.6067H28.5337C28.9368 26.6067 29.3235 26.4466 29.6085 26.1615C29.8936 25.8765 30.0537 25.4899 30.0537 25.0867V23.7534Z" stroke="black" stroke-width="2" stroke-linecap="round" stroke-linejoin="round"/>
<path d="M27.4134 8.0332L23.7334 22.1932" stroke="black" stroke-width="2" stroke-linecap="round" stroke-linejoin="round"/>
<path d="M23.8799 10.0465L27.9999 7.72651C28.284 7.56689 28.5338 7.35284 28.7352 7.09661C28.9365 6.84037 29.0853 6.54697 29.1732 6.23318C29.3391 5.59319 29.2481 4.91372 28.9199 4.33984" stroke="black" stroke-width="2" stroke-linecap="round" stroke-linejoin="round"/>
</svg>
