<svg width="32" height="33" viewBox="0 0 32 33" fill="none" xmlns="http://www.w3.org/2000/svg">
<path d="M16 31.5C13.0333 31.5 10.1332 30.6203 7.66645 28.9721C5.19972 27.3238 3.27713 24.9812 2.14181 22.2403C1.0065 19.4994 0.709449 16.4834 1.28823 13.5737C1.86701 10.6639 3.29562 7.99119 5.3934 5.8934C7.49119 3.79562 10.1639 2.36701 13.0737 1.78823C15.9834 1.20945 18.9994 1.5065 21.7403 2.64181C24.4812 3.77713 26.8238 5.69972 28.4721 8.16645C30.1203 10.6332 31 13.5333 31 16.5C31 20.4783 29.4197 24.2936 26.6066 27.1066C23.7936 29.9197 19.9783 31.5 16 31.5ZM16 3.50001C13.4288 3.50001 10.9154 4.26244 8.77759 5.6909C6.63975 7.11936 4.97351 9.14968 3.98957 11.5251C3.00563 13.9006 2.74819 16.5144 3.2498 19.0362C3.75141 21.5579 4.98954 23.8743 6.80762 25.6924C8.6257 27.5105 10.9421 28.7486 13.4638 29.2502C15.9856 29.7518 18.5995 29.4944 20.9749 28.5104C23.3503 27.5265 25.3807 25.8603 26.8091 23.7224C28.2376 21.5846 29 19.0712 29 16.5C29 13.0522 27.6304 9.74559 25.1924 7.30762C22.7544 4.86965 19.4478 3.50001 16 3.50001Z" fill="#101820"/>
<path d="M20.24 22.16L15.29 17.21C15.1973 17.1166 15.124 17.0057 15.0742 16.8839C15.0245 16.7621 14.9993 16.6316 15 16.5V8.5H17V16.09L21.66 20.74L20.24 22.16Z" fill="#101820"/>
</svg>
