<svg width="24" height="18" viewBox="0 0 24 18" fill="none" xmlns="http://www.w3.org/2000/svg">
<path d="M22.8191 13.2473C23.7691 8.71689 20.7642 7.39036 18.7574 7.52078C18.5585 7.5337 18.3966 7.34136 18.4704 7.14666C18.8461 6.15642 19.7729 4.61898 21.4023 4.05968C23.2915 3.41114 22.3469 1.98796 21.6384 1.35744C20.4239 0.276543 16.0872 1.42932 13.8452 7.84284C10.5389 17.3005 21.4025 20.003 22.8191 13.2473Z" stroke="black" strokeLinecap="round"/>
<path d="M10.5969 13.2473C11.5469 8.71689 8.54202 7.39036 6.53514 7.52078C6.33624 7.5337 6.17434 7.34136 6.24821 7.14666C6.62389 6.15642 7.55069 4.61898 9.18003 4.05968C11.0693 3.41114 10.1247 1.98796 9.41619 1.35744C8.20166 0.276543 3.86498 1.42932 1.62294 7.84284C-1.68329 17.3005 9.18024 20.003 10.5969 13.2473Z" stroke="black" strokeLinecap="round"/>
</svg>
