<svg width="121" height="82" viewBox="0 0 121 82" fill="none" xmlns="http://www.w3.org/2000/svg">
<path d="M63.6887 13.0278C63.7828 13.1138 63.8208 13.2191 63.7948 13.322C63.7689 13.425 63.6809 13.5178 63.549 13.5814C50.0362 20.0304 41.3639 28.4754 37.5319 38.9162C37.3767 39.3532 37.5939 39.6932 38.1835 39.936C42.2792 41.5968 46.6542 42.4418 46.6076 46.1859C46.5611 49.459 46.5145 52.7078 46.468 55.9323C46.4693 56.0257 46.5066 56.1178 46.5766 56.2002C46.6465 56.2827 46.747 56.353 46.869 56.4048C46.9911 56.4567 47.1309 56.4886 47.2761 56.4977C47.4213 56.5067 47.5674 56.4927 47.7014 56.4567C60.1515 53.2225 84.2372 51.9113 92.3123 60.7108C92.6691 61.0993 93.2121 61.2741 93.9413 61.2352C102.8 60.7885 109.634 58.4478 114.443 54.2132C127.754 42.4563 109.486 21.2736 92.0795 13.8145C91.9036 13.7401 91.7577 13.6412 91.6532 13.5255C91.5486 13.4099 91.4884 13.2806 91.4771 13.1479C91.4658 13.0152 91.5038 12.8827 91.5882 12.7607C91.6725 12.6388 91.8009 12.5307 91.9632 12.4451C94.9885 10.8717 102.296 7.34607 102.272 4.75286C102.266 3.86921 101.7 3.02285 100.698 2.39802C99.6954 1.77319 98.3376 1.42048 96.92 1.41666C88.1235 1.38752 61.478 -0.0256307 54.5897 2.52387C53.7236 2.84312 53.0937 3.36335 52.8366 3.97161C52.5796 4.57987 52.7162 5.22706 53.2167 5.77266C56.0325 8.87577 60.5704 10.2744 63.6887 13.0278Z" stroke="#8AD0EF" stroke-width="2"/>
<path d="M42.0919 45.501C42.098 44.3998 39.9806 43.3391 36.2056 42.5522C32.4306 41.7652 27.3071 41.3166 21.9623 41.3049C19.3158 41.2991 16.6946 41.4008 14.2484 41.6041C11.8022 41.8075 9.5789 42.1085 7.70542 42.4899C5.83194 42.8714 4.34498 43.3259 3.32943 43.8274C2.31388 44.3289 1.78963 44.8677 1.78663 45.413C1.78052 46.5141 3.89787 47.5749 7.67289 48.3618C11.4479 49.1487 16.5714 49.5973 21.9162 49.609C24.5627 49.6148 27.1839 49.5131 29.6301 49.3098C32.0763 49.1065 34.2996 48.8055 36.1731 48.424C38.0466 48.0425 39.5335 47.5881 40.5491 47.0865C41.5646 46.585 42.0889 46.0462 42.0919 45.501Z" stroke="#909DB9" stroke-width="2"/>
<path d="M4.13704 50.4681C2.10469 50.0116 1.17388 50.4535 1.34454 51.7938L1.41435 52.26C1.63155 53.9597 3.02008 55.1058 5.57991 55.6982C17.0604 58.3594 28.4012 58.2283 39.6024 55.3049C41.0607 54.9261 41.8519 54.2462 41.976 53.2653L42.2786 50.9489C42.3872 50.1524 41.8519 49.8999 40.6728 50.1913C28.5253 53.173 16.3467 53.2653 4.13704 50.4681Z" stroke="#909DB9" stroke-width="2"/>
<path d="M87.0756 61.09C87.0756 59.9657 84.9474 58.8873 81.1593 58.0923C77.3712 57.2972 72.2334 56.8506 66.8762 56.8506C61.519 56.8506 56.3812 57.2972 52.5931 58.0923C48.8049 58.8873 46.6768 59.9657 46.6768 61.09C46.6768 61.6468 47.1993 62.1981 48.2144 62.7124C49.2295 63.2268 50.7174 63.6941 52.5931 64.0878C54.4687 64.4815 56.6955 64.7937 59.1462 65.0068C61.597 65.2198 64.2236 65.3295 66.8762 65.3295C69.5288 65.3295 72.1555 65.2198 74.6062 65.0068C77.0569 64.7937 79.2836 64.4815 81.1593 64.0878C83.035 63.6941 84.5229 63.2268 85.538 62.7124C86.5531 62.1981 87.0756 61.6468 87.0756 61.09Z" stroke="#909DB9" stroke-width="2"/>
<path d="M5.37077 63.5234C16.4634 65.9904 27.5793 65.9807 38.7184 63.4943C39.7232 63.2706 40.5997 62.8648 41.2374 62.3282C41.8752 61.7915 42.2457 61.1479 42.3022 60.4786L42.372 59.6045C42.4806 58.2447 41.5187 57.8077 39.4863 58.2933C27.6491 61.1002 15.8351 61.0662 4.04436 58.1913C1.81033 57.6474 0.871673 58.1136 1.2285 59.5899L1.48452 60.5806C1.6462 61.2454 2.09305 61.8702 2.77747 62.3885C3.4619 62.9068 4.35819 63.299 5.37077 63.5234Z" stroke="#909DB9" stroke-width="2"/>
<path d="M39.9278 66.0282C27.9664 68.8157 16.005 68.8351 4.04365 66.0865C2.2285 65.6786 1.37521 66.0719 1.48381 67.2666L1.53032 68.097C1.66995 69.7966 3.02744 70.9038 5.60278 71.4186C16.7109 73.6719 27.7803 73.6039 38.8108 71.2146C40.5949 70.8261 41.6188 70.0443 41.8826 68.8691L42.2549 67.2083C42.5342 65.9942 41.7585 65.6009 39.9278 66.0282Z" stroke="#909DB9" stroke-width="2"/>
<path d="M87.2393 68.2445L87.3323 67.3412C87.4719 66.0495 86.5799 65.627 84.6561 66.0738C72.5241 68.8709 60.4463 68.8175 48.4229 65.9135C47.0111 65.5736 46.344 65.8747 46.4216 66.8168L46.5845 68.9146C46.6196 69.3771 46.8699 69.8226 47.3044 70.1956C47.7389 70.5687 48.3383 70.8528 49.0279 71.0125C60.4308 73.6834 71.8958 73.7951 83.4228 71.3476C84.4784 71.1224 85.404 70.7076 86.0831 70.1555C86.7622 69.6033 87.1645 68.9384 87.2393 68.2445Z" stroke="#909DB9" stroke-width="2"/>
<path d="M46.3746 74.5505L46.5841 76.6629C46.6319 77.133 46.8941 77.5846 47.3396 77.9642C47.785 78.3438 48.3951 78.6354 49.0973 78.8045C60.5002 81.6016 71.9496 81.7085 83.4456 79.125C85.9899 78.552 87.2543 77.4205 87.2388 75.7305V75.2643C87.2233 74.0114 86.2692 73.5841 84.3764 73.9823C72.2289 76.5755 60.1822 76.4784 48.2363 73.6909C46.9176 73.3898 46.2971 73.6763 46.3746 74.5505Z" stroke="#909DB9" stroke-width="2"/>
<path d="M1.32149 74.9151L1.62403 76.5905C1.70917 77.0785 2.00562 77.5427 2.48136 77.933C2.9571 78.3232 3.59406 78.6247 4.3235 78.8049C15.6178 81.6312 26.9741 81.7283 38.3925 79.0963C40.58 78.5912 41.8134 77.6151 42.0927 76.168L42.2555 75.2939C42.5193 73.9439 41.6272 73.4971 39.5793 73.9536C27.5559 76.5856 15.5868 76.5274 3.67191 73.7788C1.9033 73.3708 1.11981 73.7496 1.32149 74.9151Z" stroke="#909DB9" stroke-width="2"/>
<path d="M71.3219 28.9387C74.8126 25.5005 81.5612 27.3944 85.9129 29.5506C87.2626 30.2207 88.6512 30.2353 90.0785 29.5943C90.8076 29.2738 91.0248 28.8513 90.7301 28.3268C89.3493 25.7919 86.6111 24.0534 82.5153 23.1113C82.1865 23.0322 81.8994 22.8991 81.6858 22.7268C81.4722 22.5545 81.3404 22.3497 81.3052 22.1352C81.0104 20.5423 79.6607 19.6634 77.256 19.4983C76.842 19.47 76.4245 19.5273 76.0674 19.6615C75.7102 19.7956 75.433 19.9992 75.278 20.2413C73.8662 22.4071 71.4072 23.9611 67.901 24.9032C67.3582 25.0445 66.9009 25.295 66.5978 25.6171C59.1743 33.4695 70.391 36.6309 80.7467 36.5726C81.4177 36.5661 82.0779 36.6792 82.6501 36.8988C83.2223 37.1184 83.6829 37.4353 83.9782 37.8126C84.2734 38.1899 84.3911 38.612 84.3175 39.0296C84.2439 39.4472 83.982 39.8431 83.5625 40.1711C79.7926 43.143 73.6723 41.1034 69.5533 39.4135C67.7691 38.6754 66.2565 38.6608 65.0154 39.3698C64.3482 39.7486 64.1854 40.2002 64.5267 40.7247C66.0626 43.0945 68.7621 44.663 72.6251 45.4303C72.9858 45.5058 73.3086 45.6382 73.5617 45.8145C73.8147 45.9908 73.9892 46.2048 74.0679 46.4355L74.673 48.3003C74.7532 48.5295 74.959 48.7343 75.2557 48.8803C75.5525 49.0262 75.9219 49.1044 76.3019 49.1016L78.885 49.0725C79.9245 49.053 80.5528 48.7228 80.77 48.0818L81.282 46.6249C81.3691 46.3951 81.541 46.1815 81.7836 46.0018C82.0263 45.822 82.3328 45.6811 82.6782 45.5906C91.9634 43.2742 94.3138 36.1793 85.2846 33.2218C81.9801 32.1583 77.512 32.202 73.742 31.9981C73.1958 31.969 72.6708 31.8522 72.2177 31.659C71.7646 31.4658 71.3987 31.2027 71.1554 30.8952C70.9121 30.5876 70.7997 30.246 70.8288 29.9033C70.858 29.5605 71.0278 29.2283 71.3219 28.9387Z" stroke="#8AD0EF" stroke-width="2"/>
<path d="M63.6887 13.0278C60.5704 10.2744 56.0325 8.87577 53.2167 5.77266C52.7162 5.22706 52.5796 4.57987 52.8366 3.97161C53.0937 3.36335 53.7236 2.84312 54.5897 2.52387C61.478 -0.0256307 88.1235 1.38752 96.92 1.41666C98.3376 1.42048 99.6954 1.77319 100.698 2.39802C101.7 3.02285 102.266 3.86921 102.272 4.75286C102.296 7.34607 94.9885 10.8717 91.9632 12.4451C91.8009 12.5307 91.6725 12.6388 91.5882 12.7607C91.5038 12.8827 91.4658 13.0152 91.4771 13.1479C91.4884 13.2806 91.5486 13.4099 91.6532 13.5255C91.7577 13.6412 91.9036 13.7401 92.0795 13.8145C109.486 21.2736 127.754 42.4563 114.443 54.2132C109.634 58.4478 102.8 60.7885 93.9413 61.2352C93.2121 61.2741 92.6691 61.0993 92.3123 60.7108C84.2372 51.9113 60.1515 53.2225 47.7014 56.4567C47.5674 56.4927 47.4213 56.5067 47.2761 56.4977C47.1309 56.4886 46.9911 56.4567 46.869 56.4048C46.747 56.353 46.6465 56.2827 46.5766 56.2002C46.5066 56.1178 46.4693 56.0257 46.468 55.9323C46.5146 52.7078 46.5611 49.459 46.6076 46.1859C46.6542 42.4418 42.2792 41.5968 38.1835 39.936C37.5939 39.6932 37.3767 39.3532 37.5319 38.9162C41.3639 28.4754 50.0362 20.0304 63.549 13.5814C63.6809 13.5178 63.7689 13.425 63.7948 13.322C63.8208 13.2191 63.7828 13.1138 63.6887 13.0278ZM71.3217 28.9367C74.8124 25.4985 81.561 27.3924 85.9127 29.5486C87.2624 30.2187 88.651 30.2333 90.0783 29.5923C90.8074 29.2718 91.0246 28.8493 90.7299 28.3248C89.3491 25.7899 86.6109 24.0514 82.5151 23.1093C82.1863 23.0302 81.8992 22.8971 81.6856 22.7248C81.472 22.5525 81.3402 22.3477 81.305 22.1332C81.0102 20.5403 79.6605 19.6614 77.2558 19.4963C76.8418 19.468 76.4243 19.5253 76.0672 19.6595C75.71 19.7936 75.4328 19.9972 75.2777 20.2393C73.866 22.4051 71.407 23.9591 67.9008 24.9012C67.358 25.0425 66.9007 25.2931 66.5976 25.6151C59.1741 33.4675 70.3908 36.6289 80.7465 36.5706C81.4175 36.5641 82.0777 36.6772 82.6499 36.8968C83.2221 37.1164 83.6827 37.4333 83.978 37.8106C84.2732 38.1879 84.3909 38.61 84.3173 39.0276C84.2437 39.4452 83.9818 39.8411 83.5623 40.1691C79.7924 43.1411 73.6721 41.1015 69.5531 39.4115C67.7689 38.6734 66.2563 38.6588 65.0151 39.3678C64.348 39.7466 64.1852 40.1982 64.5265 40.7227C66.0624 43.0925 68.7619 44.661 72.6249 45.4283C72.9856 45.5038 73.3084 45.6362 73.5615 45.8125C73.8145 45.9888 73.989 46.2028 74.0677 46.4336L74.6727 48.2983C74.753 48.5275 74.9588 48.7323 75.2555 48.8783C75.5522 49.0242 75.9217 49.1024 76.3017 49.0996L78.8848 49.0705C79.9243 49.051 80.5526 48.7208 80.7698 48.0798L81.2818 46.6229C81.3689 46.3931 81.5408 46.1795 81.7834 45.9998C82.0261 45.82 82.3326 45.6791 82.678 45.5886C91.9632 43.2722 94.3136 36.1773 85.2844 33.2199C81.9799 32.1563 77.5118 32.2001 73.7418 31.9961C73.1956 31.967 72.6706 31.8502 72.2175 31.657C71.7644 31.4638 71.3985 31.2007 71.1552 30.8932C70.9119 30.5856 70.7995 30.244 70.8286 29.9013C70.8578 29.5586 71.0276 29.2263 71.3217 28.9367Z" fill="#007BFF"/>
<path d="M71.3209 28.9387C71.0268 29.2283 70.857 29.5605 70.8278 29.9033C70.7987 30.246 70.9112 30.5876 71.1545 30.8952C71.3977 31.2027 71.7636 31.4658 72.2167 31.659C72.6698 31.8522 73.1948 31.969 73.7411 31.9981C77.511 32.202 81.9791 32.1583 85.2836 33.2218C94.3129 36.1793 91.9624 43.2742 82.6772 45.5906C82.3318 45.6811 82.0253 45.822 81.7827 46.0018C81.54 46.1815 81.3681 46.3951 81.281 46.6249L80.769 48.0818C80.5518 48.7228 79.9235 49.053 78.8841 49.0725L76.3009 49.1016C75.921 49.1044 75.5515 49.0262 75.2547 48.8803C74.958 48.7343 74.7522 48.5295 74.672 48.3003L74.0669 46.4355C73.9882 46.2048 73.8137 45.9908 73.5607 45.8145C73.3076 45.6382 72.9848 45.5058 72.6241 45.4303C68.7611 44.663 66.0616 43.0945 64.5257 40.7247C64.1844 40.2002 64.3473 39.7486 65.0144 39.3698C66.2555 38.6608 67.7682 38.6754 69.5523 39.4135C73.6713 41.1034 79.7916 43.143 83.5615 40.1711C83.9811 39.8431 84.2429 39.4472 84.3165 39.0296C84.3901 38.612 84.2724 38.1899 83.9772 37.8126C83.6819 37.4353 83.2213 37.1184 82.6491 36.8988C82.077 36.6792 81.4168 36.5661 80.7457 36.5726C70.39 36.6309 59.1734 33.4695 66.5969 25.6171C66.8999 25.295 67.3572 25.0445 67.9001 24.9032C71.4062 23.9611 73.8652 22.4071 75.277 20.2413C75.432 19.9992 75.7093 19.7956 76.0664 19.6615C76.4236 19.5273 76.841 19.47 77.255 19.4983C79.6597 19.6634 81.0094 20.5423 81.3042 22.1352C81.3394 22.3497 81.4712 22.5545 81.6848 22.7268C81.8984 22.8991 82.1856 23.0322 82.5144 23.1113C86.6101 24.0534 89.3483 25.7919 90.7291 28.3268C91.0238 28.8513 90.8067 29.2738 90.0775 29.5943C88.6502 30.2353 87.2617 30.2207 85.9119 29.5506C81.5602 27.3944 74.8116 25.5005 71.3209 28.9387Z" fill="white"/>
<path d="M21.916 49.6108C33.046 49.6351 42.0791 47.7959 42.0919 45.5028C42.1047 43.2097 33.0923 41.3311 21.9623 41.3067C10.8323 41.2824 1.79921 43.1216 1.78642 45.4147C1.77363 47.7078 10.786 49.5864 21.916 49.6108Z" fill="#0BA02C"/>
<path d="M4.13704 50.4681C16.3467 53.2653 28.5253 53.173 40.6728 50.1913C41.8519 49.8999 42.3871 50.1524 42.2786 50.9489L41.976 53.2653C41.8519 54.2462 41.0607 54.9261 39.6024 55.3049C28.4012 58.2283 17.0604 58.3594 5.57991 55.6982C3.02008 55.1058 1.63155 53.9597 1.41435 52.26L1.34454 51.7938C1.17388 50.4535 2.10469 50.0116 4.13704 50.4681Z" fill="#0BA02C"/>
<path d="M66.8762 65.3295C78.032 65.3295 87.0756 63.4314 87.0756 61.09C87.0756 58.7487 78.032 56.8506 66.8762 56.8506C55.7204 56.8506 46.6768 58.7487 46.6768 61.09C46.6768 63.4314 55.7204 65.3295 66.8762 65.3295Z" fill="#0BA02C"/>
<path d="M5.37077 63.5234C4.35819 63.299 3.4619 62.9068 2.77747 62.3885C2.09305 61.8702 1.6462 61.2454 1.48452 60.5806L1.2285 59.5899C0.871673 58.1136 1.81033 57.6474 4.04436 58.1913C15.8351 61.0662 27.6491 61.1002 39.4863 58.2933C41.5187 57.8077 42.4806 58.2447 42.372 59.6045L42.3022 60.4786C42.2457 61.1479 41.8752 61.7915 41.2374 62.3282C40.5997 62.8648 39.7232 63.2706 38.7184 63.4943C27.5793 65.9807 16.4634 65.9904 5.37077 63.5234Z" fill="#0BA02C"/>
<path d="M39.9278 66.0282C41.7584 65.6009 42.5342 65.9942 42.2549 67.2083L41.8826 68.8691C41.6188 70.0443 40.5949 70.8261 38.8108 71.2146C27.7803 73.6039 16.7109 73.6719 5.60278 71.4186C3.02744 70.9038 1.66995 69.7966 1.53032 68.097L1.48381 67.2666C1.37521 66.0719 2.2285 65.6786 4.04365 66.0865C16.005 68.8351 27.9664 68.8157 39.9278 66.0282Z" fill="#0BA02C"/>
<path d="M83.4228 71.3476C71.8958 73.7951 60.4308 73.6834 49.0279 71.0125C48.3383 70.8528 47.7389 70.5687 47.3044 70.1956C46.8699 69.8226 46.6196 69.3771 46.5845 68.9146L46.4216 66.8168C46.344 65.8747 47.0111 65.5736 48.4229 65.9135C60.4463 68.8175 72.5241 68.8709 84.6561 66.0738C86.5799 65.627 87.4719 66.0495 87.3323 67.3412L87.2393 68.2445C87.1645 68.9384 86.7622 69.6033 86.0831 70.1555C85.404 70.7076 84.4784 71.1224 83.4228 71.3476Z" fill="#0BA02C"/>
<path d="M48.2363 73.6909C60.1822 76.4784 72.2289 76.5755 84.3764 73.9823C86.2692 73.5841 87.2233 74.0114 87.2388 75.2643V75.7305C87.2543 77.4205 85.9899 78.552 83.4456 79.125C71.9496 81.7085 60.5002 81.6016 49.0973 78.8045C48.3951 78.6354 47.785 78.3438 47.3396 77.9642C46.8941 77.5846 46.6319 77.133 46.5841 76.6629L46.3746 74.5505C46.2971 73.6763 46.9176 73.3898 48.2363 73.6909Z" fill="#0BA02C"/>
<path d="M3.67191 73.7788C15.5868 76.5274 27.5559 76.5856 39.5793 73.9536C41.6272 73.4971 42.5193 73.9439 42.2555 75.2939L42.0927 76.168C41.8134 77.6151 40.58 78.5912 38.3925 79.0963C26.9741 81.7283 15.6178 81.6312 4.3235 78.8049C3.59406 78.6247 2.9571 78.3232 2.48136 77.933C2.00562 77.5427 1.70917 77.0785 1.62403 76.5905L1.32149 74.9151C1.11981 73.7496 1.9033 73.3708 3.67191 73.7788Z" fill="#0BA02C"/>
</svg>
