<svg width="118" height="82" viewBox="0 0 118 82" fill="none" xmlns="http://www.w3.org/2000/svg">
<path d="M92.7586 8.70668L57.7136 24.19C55.4107 25.2015 54.8917 26.7243 56.1565 28.7583L56.4607 29.2477C56.8026 29.8072 57.3691 30.2251 58.0444 30.4161C58.7197 30.6072 59.4529 30.5569 60.0941 30.2756L95.7476 14.5476C96.4993 14.2104 97.0482 14.3899 97.3942 15.086L98.7724 17.8107C98.9864 18.2453 99.335 18.6135 99.7753 18.8702C100.216 19.1269 100.728 19.2608 101.251 19.2556C101.774 19.2505 102.283 19.1063 102.717 18.841C103.151 18.5756 103.491 18.2005 103.694 17.7617L108.652 7.22198C108.788 6.93339 108.854 6.62192 108.848 6.30814C108.841 5.99436 108.762 5.68542 108.614 5.4017C108.467 5.11798 108.256 4.86595 107.994 4.66224C107.732 4.45853 107.426 4.30779 107.095 4.21995C103.348 3.23015 99.3869 2.20772 95.2107 1.15266C93.4566 0.717582 92.2754 1.21248 91.6668 2.63736C91.5313 2.95041 91.4692 3.28512 91.4846 3.61966C91.5 3.95419 91.5926 4.28105 91.7563 4.57889L93.2776 7.35251C93.3415 7.47242 93.3787 7.60266 93.3872 7.73574C93.3957 7.86882 93.3752 8.00212 93.327 8.12796C93.2788 8.25381 93.2037 8.36972 93.1061 8.46904C93.0086 8.56835 92.8905 8.64912 92.7586 8.70668Z" stroke="#909DB9" stroke-width="2"/>
<path d="M48.8359 25.0719C48.8359 19.3082 46.3242 13.7806 41.8532 9.70503C37.3822 5.62947 31.3183 3.33984 24.9954 3.33984C18.6725 3.33984 12.6085 5.62947 8.13748 9.70503C3.6665 13.7806 1.15479 19.3082 1.15479 25.0719C1.15479 30.8356 3.6665 36.3633 8.13748 40.4388C12.6085 44.5144 18.6725 46.804 24.9954 46.804C31.3183 46.804 37.3822 44.5144 41.8532 40.4388C46.3242 36.3633 48.8359 30.8356 48.8359 25.0719Z" stroke="#8AD0EF" stroke-width="2"/>
<path d="M47.3681 73.201V55.613C47.3681 55.4359 47.3295 55.2606 47.2546 55.0972C47.1797 54.9338 47.0701 54.7856 46.9319 54.6611C46.7937 54.5367 46.6297 54.4385 46.4496 54.3722C46.2694 54.306 46.0767 54.273 45.8825 54.2751L29.058 54.3077C28.7954 54.312 28.545 54.4084 28.3609 54.5763C28.1768 54.7441 28.0737 54.9699 28.0736 55.2051L28.0557 73.1683C28.0557 73.9406 27.6381 74.3267 26.8028 74.3267L18.6591 74.4083C17.788 74.4192 17.3525 74.0222 17.3525 73.2173L17.4778 52.3662C17.4778 51.6375 17.108 51.1371 16.3682 50.8652L11.124 48.9726C10.4915 48.7442 10.1753 48.94 10.1753 49.56V77.7203C10.1753 78.5857 10.5525 79.4157 11.2238 80.0277C11.8951 80.6396 12.8056 80.9834 13.755 80.9834L113.019 80.9997C115.668 80.9997 116.891 79.7924 116.688 77.3777L116.617 76.5619C116.564 75.9774 116.274 75.4317 115.804 75.0307C115.335 74.6297 114.718 74.4021 114.075 74.392L106.952 74.2614C106.751 74.2572 106.559 74.1814 106.419 74.0503C106.278 73.9192 106.2 73.7432 106.2 73.5599V28.5784C106.2 27.9927 105.946 27.4308 105.493 27.0151C105.041 26.5995 104.426 26.3638 103.784 26.3595L89.0533 26.3105C88.7721 26.3106 88.4937 26.3609 88.2341 26.4587C87.9745 26.5564 87.7388 26.6997 87.5408 26.8802C87.3428 27.0607 87.1863 27.2749 87.0804 27.5103C86.9744 27.7458 86.921 27.9979 86.9234 28.2521L87.174 72.842C87.1859 73.6904 86.7205 74.1201 85.7779 74.1309L77.8131 74.1799C77.687 74.1821 77.5619 74.1609 77.4447 74.1176C77.3276 74.0743 77.2208 74.0097 77.1309 73.9277C77.0409 73.8456 76.9694 73.7478 76.9206 73.6398C76.8718 73.5318 76.8466 73.4159 76.8466 73.2988L76.8645 42.0549C76.8645 41.5746 76.6533 41.1139 76.2773 40.7743C75.9014 40.4347 75.3916 40.2439 74.8599 40.2439L59.521 40.2112C59.2484 40.2112 58.9784 40.2606 58.7265 40.3566C58.4746 40.4525 58.2457 40.5931 58.0529 40.7704C57.8601 40.9476 57.7072 41.158 57.6028 41.3896C57.4985 41.6212 57.4448 41.8695 57.4448 42.1202L57.5521 73.2336C57.5521 73.8971 57.1942 74.2288 56.4783 74.2288L48.5673 74.2941C48.4106 74.2963 48.2551 74.2696 48.1097 74.2156C47.9644 74.1616 47.832 74.0815 47.7204 73.9797C47.6088 73.878 47.5202 73.7568 47.4597 73.6231C47.3993 73.4894 47.3681 73.3459 47.3681 73.201Z" stroke="#909DB9" stroke-width="2"/>
<path d="M21.5763 12.9648C13.2357 15.9015 12.8419 25.6581 21.809 27.2244C22.4892 27.3441 23.9807 27.4311 26.2836 27.4855C27.4888 27.5072 28.3539 27.7084 28.8789 28.0891C29.8215 28.7635 30.0005 29.7479 29.4158 31.0422C29.1891 31.5534 28.7954 31.9178 28.2346 32.1354C22.4713 34.289 22.3101 30.8301 18.1756 29.8349C17.1614 29.5847 16.5648 29.5412 16.3858 29.7044C16.0216 30.0256 15.7487 30.4217 15.5869 30.8638C15.4251 31.3058 15.3785 31.7827 15.4505 32.2595C15.5226 32.7364 15.7115 33.2012 16.0033 33.6201C16.2952 34.0389 16.6827 34.4012 17.1376 34.6805L21.6301 37.4379C22.2028 37.7968 22.525 38.2917 22.5965 38.9226C22.7875 40.4997 23.7182 41.185 25.3887 40.9783C25.6711 40.9425 25.9393 40.8451 26.1701 40.6944C26.4009 40.5437 26.5873 40.3443 26.7131 40.1136C28.6999 36.4263 32.4227 35.8553 34.1767 32.9185C38.1323 26.2944 29.4337 22.0035 22.7398 22.7051C22.2061 22.758 21.6695 22.6313 21.2311 22.3488C20.7927 22.0664 20.4827 21.6477 20.3593 21.1714L20.1624 20.4209C19.8164 19.1048 20.3533 18.2292 21.7732 17.7941C28.5209 15.771 28.163 20.1109 32.8165 20.3556C33.1337 20.37 33.4499 20.31 33.7344 20.1815C34.0189 20.0531 34.262 19.8605 34.4403 19.6225C34.6186 19.3844 34.7259 19.109 34.7519 18.823C34.7778 18.537 34.7216 18.25 34.5885 17.9899C33.3714 15.6079 31.4026 13.9709 28.682 13.079C28.4252 12.9938 28.1967 12.8517 28.0182 12.6661C27.8397 12.4806 27.7171 12.2577 27.6618 12.0185L27.2323 10.1259C27.1772 9.87071 27.0225 9.64182 26.7962 9.48034C26.5698 9.31887 26.2866 9.23538 25.9973 9.24487L23.7957 9.31013C23.5238 9.32044 23.2654 9.41861 23.068 9.58653C22.8707 9.75445 22.7477 9.98079 22.7218 10.2238L22.5607 11.7901C22.5011 12.3665 22.1729 12.7581 21.5763 12.9648Z" stroke="#8AD0EF" stroke-width="2"/>
<path d="M93.2776 7.35251L91.7563 4.57889C91.5926 4.28105 91.5 3.95419 91.4846 3.61966C91.4692 3.28512 91.5313 2.95041 91.6668 2.63736C92.2754 1.21248 93.4566 0.717582 95.2107 1.15266C99.3869 2.20772 103.348 3.23015 107.095 4.21995C107.426 4.30779 107.732 4.45853 107.994 4.66224C108.256 4.86595 108.467 5.11798 108.614 5.4017C108.762 5.68542 108.841 5.99436 108.848 6.30814C108.854 6.62192 108.788 6.93339 108.652 7.22198L103.694 17.7617C103.491 18.2005 103.151 18.5756 102.717 18.841C102.283 19.1063 101.774 19.2505 101.251 19.2556C100.728 19.2608 100.216 19.1269 99.7753 18.8702C99.335 18.6135 98.9864 18.2453 98.7724 17.8107L97.3942 15.086C97.0482 14.3899 96.4993 14.2104 95.7476 14.5476L60.0941 30.2756C59.4529 30.5569 58.7197 30.6072 58.0444 30.4161C57.3691 30.2251 56.8026 29.8072 56.4607 29.2477L56.1565 28.7583C54.8917 26.7243 55.4107 25.2015 57.7136 24.19L92.7586 8.70668C92.8905 8.64912 93.0086 8.56835 93.1061 8.46904C93.2037 8.36972 93.2788 8.25381 93.327 8.12796C93.3752 8.00212 93.3957 7.86882 93.3872 7.73574C93.3787 7.60266 93.3415 7.47242 93.2776 7.35251Z" fill="#0BA02C"/>
<path d="M48.8359 25.0719C48.8359 30.8356 46.3242 36.3633 41.8532 40.4388C37.3822 44.5144 31.3183 46.804 24.9954 46.804C18.6725 46.804 12.6085 44.5144 8.13748 40.4388C3.6665 36.3633 1.15479 30.8356 1.15479 25.0719C1.15479 19.3082 3.6665 13.7806 8.13748 9.70503C12.6085 5.62947 18.6725 3.33984 24.9954 3.33984C31.3183 3.33984 37.3822 5.62947 41.8532 9.70503C46.3242 13.7806 48.8359 19.3082 48.8359 25.0719ZM21.5767 12.9659C13.2361 15.9027 12.8424 25.6593 21.8094 27.2256C22.4896 27.3452 23.9811 27.4322 26.284 27.4866C27.4892 27.5084 28.3543 27.7096 28.8793 28.0903C29.8219 28.7647 30.0009 29.749 29.4162 31.0434C29.1895 31.5546 28.7958 31.919 28.235 32.1365C22.4717 34.2901 22.3105 30.8313 18.176 29.836C17.1618 29.5859 16.5652 29.5423 16.3862 29.7055C16.022 30.0268 15.7491 30.4229 15.5873 30.8649C15.4255 31.307 15.3789 31.7838 15.451 32.2607C15.523 32.7375 15.7119 33.2024 16.0037 33.6212C16.2956 34.04 16.6831 34.4024 17.138 34.6817L21.6305 37.439C22.2032 37.7979 22.5254 38.2928 22.597 38.9237C22.7879 40.5009 23.7186 41.1861 25.3891 40.9794C25.6715 40.9437 25.9397 40.8462 26.1705 40.6955C26.4013 40.5448 26.5877 40.3455 26.7136 40.1147C28.7003 36.4274 32.4231 35.8564 34.1771 32.9196C38.1327 26.2956 29.4342 22.0046 22.7402 22.7062C22.2065 22.7591 21.6699 22.6324 21.2315 22.35C20.7931 22.0675 20.4831 21.6488 20.3597 21.1726L20.1628 20.4221C19.8168 19.1059 20.3537 18.2304 21.7736 17.7953C28.5213 15.7722 28.1634 20.1121 32.817 20.3568C33.1341 20.3711 33.4503 20.3111 33.7348 20.1827C34.0193 20.0542 34.2625 19.8616 34.4407 19.6236C34.619 19.3856 34.7264 19.1102 34.7523 18.8241C34.7782 18.5381 34.722 18.2511 34.5889 17.9911C33.3718 15.609 31.403 13.972 28.6824 13.0801C28.4256 12.9949 28.1971 12.8528 28.0186 12.6673C27.8401 12.4817 27.7175 12.2588 27.6622 12.0196L27.2327 10.127C27.1776 9.87185 27.0229 9.64297 26.7966 9.48149C26.5702 9.32001 26.287 9.23652 25.9977 9.24601L23.7961 9.31127C23.5243 9.32159 23.2658 9.41976 23.0685 9.58768C22.8711 9.7556 22.7481 9.98193 22.7223 10.2249L22.5611 11.7912C22.5015 12.3677 22.1734 12.7593 21.5767 12.9659Z" fill="#007BFF"/>
<path d="M22.5607 11.7901L22.7218 10.2238C22.7477 9.98079 22.8707 9.75445 23.068 9.58653C23.2654 9.41861 23.5238 9.32044 23.7957 9.31013L25.9973 9.24487C26.2866 9.23538 26.5698 9.31887 26.7962 9.48034C27.0225 9.64182 27.1772 9.87071 27.2323 10.1259L27.6618 12.0185C27.7171 12.2577 27.8397 12.4806 28.0182 12.6661C28.1967 12.8517 28.4252 12.9938 28.682 13.079C31.4026 13.9709 33.3714 15.6079 34.5885 17.9899C34.7216 18.25 34.7778 18.537 34.7519 18.823C34.7259 19.109 34.6186 19.3844 34.4403 19.6225C34.262 19.8605 34.0189 20.0531 33.7344 20.1815C33.4499 20.31 33.1337 20.37 32.8165 20.3556C28.163 20.1109 28.5209 15.771 21.7732 17.7941C20.3533 18.2292 19.8164 19.1048 20.1624 20.4209L20.3593 21.1714C20.4827 21.6477 20.7927 22.0664 21.2311 22.3488C21.6695 22.6313 22.2061 22.758 22.7398 22.7051C29.4337 22.0035 38.1323 26.2944 34.1767 32.9185C32.4227 35.8553 28.6999 36.4263 26.7131 40.1136C26.5873 40.3443 26.4009 40.5437 26.1701 40.6944C25.9393 40.8451 25.6711 40.9425 25.3887 40.9783C23.7182 41.1849 22.7875 40.4997 22.5965 38.9226C22.525 38.2917 22.2028 37.7968 21.6301 37.4379L17.1376 34.6805C16.6827 34.4012 16.2952 34.0389 16.0033 33.6201C15.7115 33.2012 15.5226 32.7364 15.4505 32.2596C15.3785 31.7827 15.4251 31.3058 15.5869 30.8638C15.7487 30.4217 16.0216 30.0256 16.3858 29.7044C16.5648 29.5412 17.1614 29.5847 18.1756 29.8349C22.3101 30.8301 22.4713 34.289 28.2346 32.1354C28.7954 31.9178 29.1891 31.5534 29.4158 31.0422C30.0005 29.7479 29.8215 28.7635 28.8789 28.0891C28.3539 27.7084 27.4888 27.5072 26.2836 27.4855C23.9807 27.4311 22.4892 27.3441 21.809 27.2244C12.8419 25.6581 13.2357 15.9015 21.5763 12.9648C22.1729 12.7581 22.5011 12.3665 22.5607 11.7901Z" fill="white"/>
<path d="M47.3681 73.201C47.3681 73.3459 47.3993 73.4894 47.4598 73.6231C47.5202 73.7568 47.6088 73.878 47.7204 73.9797C47.832 74.0815 47.9644 74.1616 48.1097 74.2156C48.2551 74.2696 48.4106 74.2963 48.5673 74.2941L56.4783 74.2288C57.1942 74.2288 57.5521 73.8971 57.5521 73.2336L57.4448 42.1202C57.4448 41.8695 57.4985 41.6212 57.6028 41.3896C57.7072 41.158 57.8601 40.9476 58.0529 40.7704C58.2457 40.5931 58.4746 40.4525 58.7265 40.3566C58.9784 40.2606 59.2484 40.2112 59.521 40.2112L74.8599 40.2439C75.3916 40.2439 75.9014 40.4347 76.2773 40.7743C76.6533 41.1139 76.8645 41.5746 76.8645 42.0549L76.8466 73.2988C76.8466 73.4159 76.8718 73.5318 76.9206 73.6398C76.9694 73.7478 77.0409 73.8456 77.1309 73.9277C77.2208 74.0097 77.3276 74.0743 77.4447 74.1176C77.5619 74.1609 77.687 74.182 77.8131 74.1799L85.7779 74.1309C86.7205 74.1201 87.1859 73.6904 87.174 72.842L86.9234 28.2521C86.921 27.9979 86.9744 27.7458 87.0804 27.5103C87.1863 27.2749 87.3428 27.0607 87.5408 26.8802C87.7388 26.6997 87.9745 26.5564 88.2341 26.4587C88.4937 26.3609 88.7721 26.3106 89.0533 26.3105L103.784 26.3595C104.426 26.3638 105.041 26.5995 105.493 27.0151C105.946 27.4308 106.2 27.9927 106.2 28.5784V73.5599C106.2 73.7432 106.278 73.9192 106.419 74.0503C106.559 74.1814 106.751 74.2572 106.952 74.2614L114.075 74.392C114.719 74.4021 115.335 74.6297 115.804 75.0307C116.274 75.4317 116.564 75.9774 116.617 76.5619L116.688 77.3777C116.891 79.7924 115.668 80.9997 113.019 80.9997L13.755 80.9834C12.8056 80.9834 11.8951 80.6396 11.2238 80.0277C10.5525 79.4157 10.1753 78.5857 10.1753 77.7203V49.56C10.1753 48.94 10.4915 48.7442 11.124 48.9726L16.3682 50.8652C17.108 51.1371 17.4778 51.6375 17.4778 52.3662L17.3525 73.2173C17.3525 74.0222 17.788 74.4192 18.6591 74.4083L26.8028 74.3267C27.6381 74.3267 28.0557 73.9406 28.0557 73.1683L28.0736 55.2051C28.0737 54.9699 28.1768 54.7441 28.3609 54.5763C28.545 54.4084 28.7954 54.312 29.058 54.3077L45.8825 54.2751C46.0767 54.273 46.2694 54.306 46.4496 54.3722C46.6297 54.4385 46.7937 54.5367 46.9319 54.6611C47.0701 54.7856 47.1797 54.9338 47.2546 55.0972C47.3295 55.2606 47.3681 55.4359 47.3681 55.613V73.201Z" fill="#0BA02C"/>
</svg>
