<svg width="60" height="60" viewBox="0 0 60 60" fill="none" xmlns="http://www.w3.org/2000/svg">
<rect width="60" height="60" rx="30" fill="#007BFF"/>
<g clip-path="url(#clip0_2017_3851)">
<mask id="mask0_2017_3851" style="mask-type:luminance" maskUnits="userSpaceOnUse" x="16" y="16" width="28" height="28">
<path d="M44 16H16V44H44V16Z" fill="white"/>
</mask>
<g mask="url(#mask0_2017_3851)">
</g>
<g clip-path="url(#clip1_2017_3851)">
<path d="M26.8639 28.6559L29.5519 41.0879C29.6639 41.6479 30.2239 42.0959 30.7839 42.2079C31.3439 42.3199 32.0159 41.9839 32.3519 41.4239L33.9199 38.5119L38.2879 42.8799C38.8479 43.4399 39.8559 43.4399 40.4159 42.8799L43.1039 40.1919C43.6639 39.6319 43.6639 38.6239 43.1039 38.0639L38.6239 33.9199L41.4239 32.3519C41.9839 32.0159 42.3199 31.4559 42.2079 30.7839C42.0959 30.1119 41.6479 29.6639 41.0879 29.5519L28.6559 26.9759C27.6479 26.7519 26.6399 27.7599 26.8639 28.6559ZM28.3199 22.2719C28.9919 22.2719 29.4399 21.7119 29.4399 21.1519V17.7919C29.4399 17.1199 28.8799 16.6719 28.3199 16.6719C27.6479 16.6719 27.1999 17.2319 27.1999 17.7919V21.1519C27.1999 21.7119 27.6479 22.2719 28.3199 22.2719ZM24.1759 22.3839L21.7119 20.0319C21.2639 19.4719 20.4799 19.4719 20.0319 20.0319C19.5839 20.4799 19.5839 21.1519 20.0319 21.5999L22.3839 23.9519C22.8319 24.3999 23.6159 24.3999 24.0639 23.9519C24.6239 23.6159 24.6239 22.8319 24.1759 22.3839ZM16.6719 28.2079C16.6719 28.8799 17.2319 29.3279 17.7919 29.3279H21.1519C21.8239 29.3279 22.2719 28.7679 22.2719 28.2079C22.2719 27.6479 21.7119 27.0879 21.1519 27.0879H17.7919C17.1199 27.0879 16.6719 27.6479 16.6719 28.2079ZM22.4959 32.4639L20.1439 34.8159C19.6959 35.2639 19.6959 36.0479 20.1439 36.4959C20.5919 36.9439 21.3759 36.9439 21.8239 36.4959L24.1759 34.1439C24.6239 33.6959 24.6239 32.9119 24.1759 32.4639C23.6159 32.0159 22.9439 32.0159 22.4959 32.4639ZM34.2559 24.0639L36.6079 21.5999C37.0559 21.1519 37.0559 20.3679 36.6079 19.9199C36.1599 19.4719 35.3759 19.4719 34.9279 19.9199L32.5759 22.2719C32.1279 22.7199 32.1279 23.5039 32.5759 23.9519C33.0239 24.5119 33.8079 24.5119 34.2559 24.0639Z" fill="white"/>
</g>
</g>
<defs>
<clipPath id="clip0_2017_3851">
<rect width="28" height="28" fill="white" transform="translate(16 16)"/>
</clipPath>
<clipPath id="clip1_2017_3851">
<rect width="28" height="28" fill="white" transform="translate(16 16)"/>
</clipPath>
</defs>
</svg>
