<svg width="60" height="60" viewBox="0 0 60 60" fill="none" xmlns="http://www.w3.org/2000/svg">
<rect width="60" height="60" rx="30" fill="#007BFF"/>
<g clip-path="url(#clip0_2017_3803)">
<mask id="mask0_2017_3803" style="mask-type:luminance" maskUnits="userSpaceOnUse" x="16" y="16" width="28" height="28">
<path d="M44 16H16V44H44V16Z" fill="white"/>
</mask>
<g mask="url(#mask0_2017_3803)">
<mask id="mask1_2017_3803" style="mask-type:luminance" maskUnits="userSpaceOnUse" x="16" y="16" width="28" height="28">
<path d="M16 16H44V44H16V16Z" fill="white"/>
</mask>
<g mask="url(#mask1_2017_3803)">
<path d="M43.1797 43.1797H16.8203V41.5877C16.8203 40.0559 18.062 38.8142 19.5938 38.8142H40.4062C41.938 38.8142 43.1797 40.0559 43.1797 41.5877V43.1797Z" stroke="white" stroke-width="2" stroke-miterlimit="10"/>
<path d="M27.543 21.7424V16.8205H40.3763V38.8145H27.543" stroke="white" stroke-width="2" stroke-miterlimit="10"/>
<path d="M19.625 21.8335H32.4584V38.8145H19.625V21.8335Z" stroke="white" stroke-width="2" stroke-miterlimit="10"/>
<path d="M24 25.584V29.084" stroke="white" stroke-width="2" stroke-miterlimit="10"/>
<path d="M28.082 25.584V29.084" stroke="white" stroke-width="2" stroke-miterlimit="10"/>
<path d="M24 31.7822V35.2822" stroke="white" stroke-width="2" stroke-miterlimit="10"/>
<path d="M28.082 31.7822V35.2822" stroke="white" stroke-width="2" stroke-miterlimit="10"/>
<path d="M36 25.584V29.084" stroke="white" stroke-width="2" stroke-miterlimit="10"/>
<path d="M36 31.7822V35.2822" stroke="white" stroke-width="2" stroke-miterlimit="10"/>
<path d="M36 19.3867V22.8867" stroke="white" stroke-width="2" stroke-miterlimit="10"/>
</g>
</g>
</g>
<defs>
<clipPath id="clip0_2017_3803">
<rect width="28" height="28" fill="white" transform="translate(16 16)"/>
</clipPath>
</defs>
</svg>
